  0
SECTION
  2
HEADER
  9
$ACADVER
  1
AC1014
  9
$HANDSEED
  5
FFFF
  9
$MEASUREMENT
 70
     1
  0
ENDSEC
  0
SECTION
  2
TABLES
  0
TABLE
  2
VPORT
  5
8
330
0
100
AcDbSymbolTable
 70
     4
  0
VPORT
  5
2E
330
8
100
AcDbSymbolTableRecord
100
AcDbViewportTableRecord
  2
*ACTIVE
 70
     0
 10
0.0
 20
0.0
 11
1.0
 21
1.0
 12
210.0
 22
148.5
 13
0.0
 23
0.0
 14
10.0
 24
10.0
 15
10.0
 25
10.0
 16
0.0
 26
0.0
 36
1.0
 17
0.0
 27
0.0
 37
0.0
 40
341.0
 41
1.24
 42
50.0
 43
0.0
 44
0.0
 50
0.0
 51
0.0
 71
     0
 72
   100
 73
     1
 74
     3
 75
     0
 76
     0
 77
     0
 78
     0
  0
ENDTAB
  0
TABLE
  2
LTYPE
  5
5
330
0
100
AcDbSymbolTable
 70
     1
  0
LTYPE
  5
14
330
5
100
AcDbSymbolTableRecord
100
AcDbLinetypeTableRecord
  2
BYBLOCK
 70
     0
  3

 72
    65
 73
     0
 40
0.0
  0
LTYPE
  5
15
330
5
100
AcDbSymbolTableRecord
100
AcDbLinetypeTableRecord
  2
BYLAYER
 70
     0
  3

 72
    65
 73
     0
 40
0.0
  0
LTYPE
  5
16
330
5
100
AcDbSymbolTableRecord
100
AcDbLinetypeTableRecord
  2
CONTINUOUS
 70
     0
  3
Solid line
 72
    65
 73
     0
 40
0.0
  0
ENDTAB
  0
TABLE
  2
LAYER
  5
2
100
AcDbSymbolTable
 70
2
  0
LAYER
  5
50
100
AcDbSymbolTableRecord
100
AcDbLayerTableRecord
  2
0
 70
0
  6
CONTINUOUS
  0
LAYER
  5
51
100
AcDbSymbolTableRecord
100
AcDbLayerTableRecord
  2
Image
 70
0
  6
CONTINUOUS
  0
ENDTAB
  0
TABLE
  2
STYLE
  5
3
330
0
100
AcDbSymbolTable
 70
     1
  0
STYLE
  5
11
330
3
100
AcDbSymbolTableRecord
100
AcDbTextStyleTableRecord
  2
STANDARD
 70
     0
 40
0.0
 41
1.0
 50
0.0
 71
     0
 42
2.5
  3
txt
  4

  0
ENDTAB
  0
TABLE
  2
VIEW
  5
6
330
0
100
AcDbSymbolTable
 70
     0
  0
ENDTAB
  0
TABLE
  2
UCS
  5
7
330
0
100
AcDbSymbolTable
 70
     0
  0
ENDTAB
  0
TABLE
  2
APPID
  5
9
330
0
100
AcDbSymbolTable
 70
     2
  0
APPID
  5
12
330
9
100
AcDbSymbolTableRecord
100
AcDbRegAppTableRecord
  2
ACAD
 70
     0
  0
ENDTAB
  0
TABLE
  2
DIMSTYLE
  5
A
330
0
100
AcDbSymbolTable
 70
     1
  0
DIMSTYLE
105
27
330
A
100
AcDbSymbolTableRecord
100
AcDbDimStyleTableRecord
  2
ISO-25
 70
     0
  3

  4

  5

  6

  7

 40
1.0
 41
2.5
 42
0.625
 43
3.75
 44
1.25
 45
0.0
 46
0.0
 47
0.0
 48
0.0
140
2.5
141
2.5
142
0.0
143
0.03937007874016
144
1.0
145
0.0
146
1.0
147
0.625
 71
     0
 72
     0
 73
     0
 74
     0
 75
     0
 76
     0
 77
     1
 78
     8
170
     0
171
     3
172
     1
173
     0
174
     0
175
     0
176
     0
177
     0
178
     0
270
     2
271
     2
272
     2
273
     2
274
     3
340
11
275
     0
280
     0
281
     0
282
     0
283
     0
284
     8
285
     0
286
     0
287
     3
288
     0
  0
ENDTAB
  0
TABLE
  2
BLOCK_RECORD
  5
1
330
0
100
AcDbSymbolTable
 70
     1
  0
BLOCK_RECORD
  5
1F
330
1
100
AcDbSymbolTableRecord
100
AcDbBlockTableRecord
  2
*MODEL_SPACE
  0
BLOCK_RECORD
  5
1B
330
1
100
AcDbSymbolTableRecord
100
AcDbBlockTableRecord
  2
*PAPER_SPACE
  0
ENDTAB
  0
ENDSEC
  0
SECTION
  2
BLOCKS
  0
BLOCK
  5
20
330
1F
100
AcDbEntity
  8
0
100
AcDbBlockBegin
  2
*MODEL_SPACE
 70
     0
 10
0.0
 20
0.0
 30
0.0
  3
*MODEL_SPACE
  1

  0
ENDBLK
  5
21
330
1F
100
AcDbEntity
  8
0
100
AcDbBlockEnd
  0
BLOCK
  5
1C
330
1B
100
AcDbEntity
 67
     1
  8
0
100
AcDbBlockBegin
  2
*PAPER_SPACE
  1

  0
ENDBLK
  5
1D
330
1B
100
AcDbEntity
 67
     1
  8
0
100
AcDbBlockEnd
  0
ENDSEC
  0
SECTION
  2
ENTITIES
  0
LWPOLYLINE
  5
100
100
AcDbEntity
  8
Image
 62
7
100
AcDbPolyline
 90
2279
 70
1
 10
621.087201
 20
50.962183
 30
0.0
 10
626.487199
 20
69.862184
 30
0.0
 10
631.887201
 20
83.362186
 30
0.0
 10
639.311138
 20
96.862185
 30
0.0
 10
649.972949
 20
113.062186
 30
0.0
 10
661.446886
 20
129.262187
 30
0.0
 10
669.680823
 20
140.062190
 30
0.0
 10
675.080825
 20
150.840930
 30
0.0
 10
680.480826
 20
158.940930
 30
0.0
 10
688.476654
 20
167.040931
 30
0.0
 10
699.742244
 20
180.073214
 30
0.0
 10
705.712009
 20
190.405500
 30
0.0
 10
716.044292
 20
196.379514
 30
0.0
 10
729.074449
 20
207.647233
 30
0.0
 10
737.172323
 20
215.640935
 30
0.0
 10
745.272324
 20
221.040933
 30
0.0
 10
756.070200
 20
226.440934
 30
0.0
 10
766.870200
 20
233.924400
 30
0.0
 10
777.453350
 20
242.003140
 30
0.0
 10
791.165950
 20
245.064557
 30
0.0
 10
805.012484
 20
248.104713
 30
0.0
 10
815.463826
 20
256.459832
 30
0.0
 10
828.961699
 20
264.240935
 30
0.0
 10
842.459575
 20
269.640936
 30
0.0
 10
853.259575
 20
275.040938
 30
0.0
 10
864.057451
 20
282.737001
 30
0.0
 10
877.257686
 20
291.325978
 30
0.0
 10
893.753199
 20
294.174796
 30
0.0
 10
910.140287
 20
297.023614
 30
0.0
 10
923.448951
 20
305.357473
 30
0.0
 10
931.315090
 20
311.862986
 30
0.0
 10
942.346825
 20
312.840938
 30
0.0
 10
961.244699
 20
318.219679
 30
0.0
 10
974.742575
 20
323.619678
 30
0.0
 10
988.242574
 20
331.294482
 30
0.0
 10
1004.206591
 20
340.011018
 30
0.0
 10
1023.338324
 20
342.732280
 30
0.0
 10
1042.376516
 20
345.453539
 30
0.0
 10
1058.431950
 20
353.957476
 30
0.0
 10
1071.931949
 20
361.419682
 30
0.0
 10
1085.429825
 20
366.819683
 30
0.0
 10
1096.886754
 20
371.411808
 30
0.0
 10
1109.725575
 20
372.219682
 30
0.0
 10
1123.506204
 20
372.963776
 30
0.0
 10
1134.023450
 20
379.894486
 30
0.0
 10
1149.987464
 20
388.589761
 30
0.0
 10
1169.119200
 20
391.311021
 30
0.0
 10
1188.159515
 20
394.053543
 30
0.0
 10
1204.214949
 20
402.557480
 30
0.0
 10
1220.412825
 20
410.019685
 30
0.0
 10
1236.610700
 20
415.419684
 30
0.0
 10
1246.670857
 20
419.969292
 30
0.0
 10
1258.208573
 20
420.819685
 30
0.0
 10
1270.594560
 20
421.648819
 30
0.0
 10
1279.804324
 20
428.345670
 30
0.0
 10
1294.190861
 20
435.807875
 30
0.0
 10
1311.245508
 20
438.167717
 30
0.0
 10
1328.400075
 20
439.719685
 30
0.0
 10
1345.548265
 20
441.271654
 30
0.0
 10
1362.602912
 20
443.610239
 30
0.0
 10
1376.993698
 20
451.093703
 30
0.0
 10
1387.574724
 20
457.875592
 30
0.0
 10
1401.289447
 20
458.619686
 30
0.0
 10
1414.130395
 20
459.427562
 30
0.0
 10
1425.587323
 20
464.019687
 30
0.0
 10
1438.438900
 20
468.611815
 30
0.0
 10
1452.583072
 20
469.419689
 30
0.0
 10
1467.524491
 20
470.078744
 30
0.0
 10
1479.580950
 20
476.733075
 30
0.0
 10
1496.401738
 20
484.407876
 30
0.0
 10
1515.318746
 20
487.533075
 30
0.0
 10
1534.397329
 20
489.467720
 30
0.0
 10
1553.543944
 20
490.573231
 30
0.0
 10
1572.718199
 20
490.977168
 30
0.0
 10
1584.708749
 20
491.891342
 30
0.0
 10
1592.966073
 20
499.098428
 30
0.0
 10
1603.274971
 20
506.475595
 30
0.0
 10
1617.263949
 20
507.198429
 30
0.0
 10
1630.102767
 20
508.027563
 30
0.0
 10
1641.559699
 20
512.598431
 30
0.0
 10
1653.018753
 20
517.190556
 30
0.0
 10
1665.857574
 20
517.998429
 30
0.0
 10
1679.591431
 20
518.742526
 30
0.0
 10
1690.153324
 20
525.566934
 30
0.0
 10
1703.785134
 20
532.455124
 30
0.0
 10
1719.876710
 20
534.538588
 30
0.0
 10
1736.051199
 20
535.920480
 30
0.0
 10
1752.246948
 20
537.025991
 30
0.0
 10
1768.417186
 20
538.110243
 30
0.0
 10
1784.564037
 20
539.492132
 30
0.0
 10
1800.630102
 20
541.596856
 30
0.0
 10
1814.338447
 20
548.357487
 30
0.0
 10
1824.955612
 20
555.054339
 30
0.0
 10
1838.636323
 20
555.798433
 30
0.0
 10
1851.475143
 20
556.627567
 30
0.0
 10
1862.932073
 20
561.198434
 30
0.0
 10
1874.391127
 20
565.769299
 30
0.0
 10
1887.229948
 20
566.598433
 30
0.0
 10
1900.887273
 20
567.342527
 30
0.0
 10
1911.525697
 20
573.996858
 30
0.0
 10
1925.765539
 20
581.310245
 30
0.0
 10
1942.571445
 20
583.627567
 30
0.0
 10
1959.470895
 20
585.158276
 30
0.0
 10
1975.454046
 20
586.412609
 30
0.0
 10
1991.435071
 20
587.645679
 30
0.0
 10
2007.416096
 20
588.900010
 30
0.0
 10
2010.704995
 20
608.799222
 30
0.0
 10
2012.556727
 20
624.829145
 30
0.0
 10
2013.615467
 20
640.922846
 30
0.0
 10
2014.053420
 20
657.037808
 30
0.0
 10
2014.706096
 20
673.003952
 30
0.0
 10
2022.212948
 20
685.377179
 30
0.0
 10
2029.766570
 20
699.833873
 30
0.0
 10
2030.310822
 20
717.777181
 30
0.0
 10
2031.082554
 20
734.572458
 30
0.0
 10
2035.710821
 20
750.177183
 30
0.0
 10
2040.392239
 20
768.524428
 30
0.0
 10
2041.110822
 20
787.977184
 30
0.0
 10
2041.627436
 20
808.259076
 30
0.0
 10
2048.515626
 20
825.755928
 30
0.0
 10
2055.259249
 20
840.191363
 30
0.0
 10
2057.329957
 20
856.922860
 30
0.0
 10
2058.699091
 20
873.739396
 30
0.0
 10
2059.787594
 20
890.555932
 30
0.0
 10
2060.876098
 20
907.436248
 30
0.0
 10
2062.234604
 20
924.295304
 30
0.0
 10
2064.301060
 20
941.069321
 30
0.0
 10
2071.280667
 20
955.355934
 30
0.0
 10
2078.379330
 20
971.704754
 30
0.0
 10
2078.906573
 20
991.072474
 30
0.0
 10
2078.825786
 20
1005.274048
 30
0.0
 10
2077.784051
 20
1019.411844
 30
0.0
 10
2066.756572
 20
1023.536252
 30
0.0
 10
2050.647988
 20
1021.070111
 30
0.0
 10
2034.360821
 20
1020.219718
 30
0.0
 10
2022.363892
 20
1019.284285
 30
0.0
 10
2014.112947
 20
1012.034679
 30
0.0
 10
2003.804049
 20
1004.657512
 30
0.0
 10
1989.817197
 20
1003.934678
 30
0.0
 10
1976.978379
 20
1003.126804
 30
0.0
 10
1965.519322
 20
998.534676
 30
0.0
 10
1949.321446
 20
993.155937
 30
0.0
 10
1933.123571
 20
985.629953
 30
0.0
 10
1918.737037
 20
978.146487
 30
0.0
 10
1901.682390
 20
975.807905
 30
0.0
 10
1884.529948
 20
974.255937
 30
0.0
 10
1867.379633
 20
972.703967
 30
0.0
 10
1850.324986
 20
970.344125
 30
0.0
 10
1835.936324
 20
962.881919
 30
0.0
 10
1825.353174
 20
956.078769
 30
0.0
 10
1811.638448
 20
955.355934
 30
0.0
 10
1798.799627
 20
954.526801
 30
0.0
 10
1787.342698
 20
949.955936
 30
0.0
 10
1771.733720
 20
945.321288
 30
0.0
 10
1754.946948
 20
944.555935
 30
0.0
 10
1737.226868
 20
943.981918
 30
0.0
 10
1722.549072
 20
936.966170
 30
0.0
 10
1707.280254
 20
929.355146
 30
0.0
 10
1689.311432
 20
927.059083
 30
0.0
 10
1671.255447
 20
925.507115
 30
0.0
 10
1653.241981
 20
923.976407
 30
0.0
 10
1635.313556
 20
921.659082
 30
0.0
 10
1619.961822
 20
914.218136
 30
0.0
 10
1605.220245
 20
907.329949
 30
0.0
 10
1587.566072
 20
906.755934
 30
0.0
 10
1570.779299
 20
905.990576
 30
0.0
 10
1555.170321
 20
901.355932
 30
0.0
 10
1536.831581
 20
896.678766
 30
0.0
 10
1517.376698
 20
895.955931
 30
0.0
 10
1497.009769
 20
895.445695
 30
0.0
 10
1479.580950
 20
888.366166
 30
0.0
 10
1462.490159
 20
881.286641
 30
0.0
 10
1443.037403
 20
879.288214
 30
0.0
 10
1423.520867
 20
877.948844
 30
0.0
 10
1403.989450
 20
876.864592
 30
0.0
 10
1384.498423
 20
875.780340
 30
0.0
 10
1365.024407
 20
874.440970
 30
0.0
 10
1345.609918
 20
872.442543
 30
0.0
 10
1328.400075
 20
865.575616
 30
0.0
 10
1310.884090
 20
858.687426
 30
0.0
 10
1290.604324
 20
858.155930
 30
0.0
 10
1271.149441
 20
857.433095
 30
0.0
 10
1252.808575
 20
852.755929
 30
0.0
 10
1237.261250
 20
848.652780
 30
0.0
 10
1220.752982
 20
847.632308
 30
0.0
 10
1204.214949
 20
847.355930
 30
0.0
 10
1187.190067
 20
847.207112
 30
0.0
 10
1170.186443
 20
846.314196
 30
0.0
 10
1155.621324
 20
840.063804
 30
0.0
 10
1137.650379
 20
832.814196
 30
0.0
 10
1117.649119
 20
830.284273
 30
0.0
 10
1097.547935
 20
828.689786
 30
0.0
 10
1077.412738
 20
827.605534
 30
0.0
 10
1057.262656
 20
826.861440
 30
0.0
 10
1037.104073
 20
826.351204
 30
0.0
 10
1016.943365
 20
826.011046
 30
0.0
 10
996.778401
 20
825.819707
 30
0.0
 10
976.613441
 20
825.755928
 30
0.0
 10
955.876587
 20
825.713408
 30
0.0
 10
935.139737
 20
825.458290
 30
0.0
 10
914.426270
 20
824.565377
 30
0.0
 10
896.453199
 20
817.677188
 30
0.0
 10
878.176111
 20
811.256714
 30
0.0
 10
857.556190
 20
810.236242
 30
0.0
 10
836.912881
 20
809.832305
 30
0.0
 10
816.265321
 20
809.662226
 30
0.0
 10
795.617760
 20
809.577187
 30
0.0
 10
774.968075
 20
809.577187
 30
0.0
 10
754.616028
 20
809.513407
 30
0.0
 10
734.263977
 20
809.364588
 30
0.0
 10
713.914057
 20
809.045691
 30
0.0
 10
693.568384
 20
808.492935
 30
0.0
 10
673.239723
 20
807.514982
 30
0.0
 10
653.482951
 20
804.177185
 30
0.0
 10
633.181925
 20
801.285848
 30
0.0
 10
612.451453
 20
800.371674
 30
0.0
 10
591.710347
 20
799.797659
 30
0.0
 10
570.962868
 20
799.414982
 30
0.0
 10
550.215384
 20
799.159864
 30
0.0
 10
529.465778
 20
798.968525
 30
0.0
 10
508.711917
 20
798.862226
 30
0.0
 10
487.962311
 20
798.798446
 30
0.0
 10
467.206324
 20
798.777187
 30
0.0
 10
446.456718
 20
798.798446
 30
0.0
 10
425.704986
 20
798.862226
 30
0.0
 10
404.953251
 20
798.968525
 30
0.0
 10
384.203645
 20
799.159864
 30
0.0
 10
363.454036
 20
799.414982
 30
0.0
 10
342.706555
 20
799.797659
 30
0.0
 10
321.965451
 20
800.371674
 30
0.0
 10
301.232852
 20
801.285848
 30
0.0
 10
280.929700
 20
804.177185
 30
0.0
 10
267.212850
 20
808.237817
 30
0.0
 10
252.490408
 20
809.279549
 30
0.0
 10
237.736076
 20
809.577187
 30
0.0
 10
222.229145
 20
809.726006
 30
0.0
 10
206.755596
 20
810.618919
 30
0.0
 10
194.540750
 20
817.677188
 30
0.0
 10
179.096324
 20
825.755928
 30
0.0
 10
161.851190
 20
826.372463
 30
0.0
 10
144.690669
 20
828.179549
 30
0.0
 10
127.787180
 20
831.602386
 30
0.0
 10
113.550950
 20
840.000024
 30
0.0
 10
100.052652
 20
847.355930
 30
0.0
 10
86.554350
 20
852.755929
 30
0.0
 10
75.755626
 20
858.155930
 30
0.0
 10
64.956902
 20
866.255931
 30
0.0
 10
56.857965
 20
874.355932
 30
0.0
 10
48.759027
 20
885.155931
 30
0.0
 10
56.755067
 20
895.955931
 30
0.0
 10
68.021720
 20
908.988217
 30
0.0
 10
73.991910
 20
919.320500
 30
0.0
 10
84.322493
 20
925.294516
 30
0.0
 10
97.352865
 20
936.562233
 30
0.0
 10
105.451803
 20
944.555935
 30
0.0
 10
113.550950
 20
949.955936
 30
0.0
 10
124.349464
 20
955.355934
 30
0.0
 10
135.148188
 20
963.349635
 30
0.0
 10
148.646490
 20
974.723654
 30
0.0
 10
162.144788
 20
985.629953
 30
0.0
 10
170.629379
 20
993.155937
 30
0.0
 10
185.727908
 20
1000.086647
 30
0.0
 10
194.540750
 20
1014.033103
 30
0.0
 10
205.805066
 20
1020.304757
 30
0.0
 10
218.838201
 20
1023.132316
 30
0.0
 10
232.550801
 20
1026.172475
 30
0.0
 10
243.133951
 20
1034.251216
 30
0.0
 10
251.233952
 20
1041.734681
 30
0.0
 10
259.331826
 20
1047.134680
 30
0.0
 10
270.131826
 20
1052.534681
 30
0.0
 10
280.929700
 20
1060.762241
 30
0.0
 10
297.127575
 20
1072.242555
 30
0.0
 10
313.325450
 20
1082.914996
 30
0.0
 10
321.425451
 20
1090.334682
 30
0.0
 10
329.523325
 20
1095.734683
 30
0.0
 10
343.023327
 20
1101.134684
 30
0.0
 10
356.521200
 20
1108.554370
 30
0.0
 10
372.719075
 20
1119.226811
 30
0.0
 10
388.916950
 20
1130.685866
 30
0.0
 10
397.014825
 20
1138.934685
 30
0.0
 10
405.114825
 20
1144.334686
 30
0.0
 10
415.912699
 20
1149.734685
 30
0.0
 10
426.712702
 20
1157.728387
 30
0.0
 10
440.210575
 20
1169.102404
 30
0.0
 10
453.708451
 20
1180.008703
 30
0.0
 10
462.193255
 20
1187.513428
 30
0.0
 10
477.196327
 20
1194.380359
 30
0.0
 10
486.104201
 20
1208.092956
 30
0.0
 10
496.902075
 20
1216.086658
 30
0.0
 10
507.702075
 20
1227.503195
 30
0.0
 10
521.199951
 20
1236.113432
 30
0.0
 10
534.697824
 20
1241.513430
 30
0.0
 10
542.797825
 20
1246.913432
 30
0.0
 10
550.895699
 20
1255.523669
 30
0.0
 10
561.695701
 20
1266.940204
 30
0.0
 10
572.493575
 20
1274.933905
 30
0.0
 10
580.483025
 20
1287.902411
 30
0.0
 10
593.704520
 20
1295.513436
 30
0.0
 10
599.489324
 20
1302.933121
 30
0.0
 10
615.689325
 20
1313.605562
 30
0.0
 10
631.887201
 20
1325.064617
 30
0.0
 10
639.883028
 20
1333.313436
 30
0.0
 10
651.148618
 20
1346.324462
 30
0.0
 10
657.118383
 20
1356.656745
 30
0.0
 10
667.450667
 20
1362.630762
 30
0.0
 10
680.480826
 20
1373.898478
 30
0.0
 10
688.476654
 20
1381.892180
 30
0.0
 10
699.742244
 20
1394.924462
 30
0.0
 10
705.712009
 20
1405.256748
 30
0.0
 10
716.044292
 20
1411.230763
 30
0.0
 10
729.074449
 20
1422.498481
 30
0.0
 10
737.070276
 20
1430.492183
 30
0.0
 10
748.335869
 20
1443.524465
 30
0.0
 10
754.307757
 20
1453.856749
 30
0.0
 10
764.637917
 20
1459.830766
 30
0.0
 10
777.668074
 20
1471.098485
 30
0.0
 10
785.663902
 20
1479.092184
 30
0.0
 10
796.931620
 20
1492.124469
 30
0.0
 10
802.901382
 20
1502.456752
 30
0.0
 10
813.231540
 20
1508.409509
 30
0.0
 10
826.261699
 20
1519.677225
 30
0.0
 10
834.495637
 20
1527.670927
 30
0.0
 10
845.969574
 20
1543.870928
 30
0.0
 10
856.633513
 20
1560.070929
 30
0.0
 10
864.057451
 20
1565.853608
 30
0.0
 10
871.664221
 20
1579.077229
 30
0.0
 10
884.639105
 20
1587.070930
 30
0.0
 10
892.617924
 20
1597.870933
 30
0.0
 10
904.047215
 20
1608.670933
 30
0.0
 10
912.651074
 20
1622.170931
 30
0.0
 10
918.051075
 20
1635.670934
 30
0.0
 10
923.448951
 20
1643.770934
 30
0.0
 10
932.054935
 20
1651.870934
 30
0.0
 10
943.482100
 20
1662.670934
 30
0.0
 10
953.776115
 20
1673.470937
 30
0.0
 10
961.244699
 20
1686.864637
 30
0.0
 10
964.244462
 20
1697.941015
 30
0.0
 10
974.274858
 20
1703.532355
 30
0.0
 10
984.607142
 20
1709.485112
 30
0.0
 10
990.576907
 20
1719.817395
 30
0.0
 10
1001.842497
 20
1732.849681
 30
0.0
 10
1009.838324
 20
1743.649681
 30
0.0
 10
1015.238323
 20
1754.449680
 30
0.0
 10
1020.638324
 20
1762.549680
 30
0.0
 10
1028.872262
 20
1770.649681
 30
0.0
 10
1040.346199
 20
1786.849682
 30
0.0
 10
1051.008012
 20
1803.049683
 30
0.0
 10
1058.431950
 20
1811.149684
 30
0.0
 10
1063.831949
 20
1819.249685
 30
0.0
 10
1069.231950
 20
1832.111889
 30
0.0
 10
1080.029824
 20
1847.801653
 30
0.0
 10
1088.578407
 20
1854.073308
 30
0.0
 10
1090.829824
 20
1864.639450
 30
0.0
 10
1098.927698
 20
1878.628428
 30
0.0
 10
1107.027699
 20
1886.728428
 30
0.0
 10
1112.425574
 20
1894.828429
 30
0.0
 10
1117.825575
 20
1905.628429
 30
0.0
 10
1125.925576
 20
1916.428429
 30
0.0
 10
1134.023450
 20
1921.828430
 30
0.0
 10
1125.925576
 20
1927.228431
 30
0.0
 10
1117.825575
 20
1935.222133
 30
0.0
 10
1104.948486
 20
1946.447329
 30
0.0
 10
1092.919668
 20
1955.376463
 30
0.0
 10
1088.782501
 20
1970.258354
 30
0.0
 10
1084.515652
 20
1985.437883
 30
0.0
 10
1071.961713
 20
1994.239459
 30
0.0
 10
1058.431950
 20
2005.613474
 30
0.0
 10
1050.436123
 20
2013.628435
 30
0.0
 10
1039.053600
 20
2027.107174
 30
0.0
 10
1028.151554
 20
2040.607176
 30
0.0
 10
1020.638324
 20
2056.807177
 30
0.0
 10
1028.736199
 20
2073.007179
 30
0.0
 10
1036.836200
 20
2081.107179
 30
0.0
 10
1047.634073
 20
2089.207180
 30
0.0
 10
1058.431950
 20
2081.107179
 30
0.0
 10
1072.503838
 20
2073.985131
 30
0.0
 10
1089.754076
 20
2073.155997
 30
0.0
 10
1107.027699
 20
2073.007179
 30
0.0
 10
1123.563605
 20
2072.752061
 30
0.0
 10
1140.074000
 20
2071.731589
 30
0.0
 10
1155.621324
 20
2067.607177
 30
0.0
 10
1167.078253
 20
2063.036312
 30
0.0
 10
1179.917073
 20
2062.207179
 30
0.0
 10
1196.546523
 20
2063.036312
 30
0.0
 10
1204.214949
 20
2075.600879
 30
0.0
 10
1207.189200
 20
2086.656000
 30
0.0
 10
1217.166444
 20
2092.247336
 30
0.0
 10
1229.809675
 20
2102.685919
 30
0.0
 10
1233.695973
 20
2119.353637
 30
0.0
 10
1236.727628
 20
2132.981198
 30
0.0
 10
1245.040228
 20
2143.207181
 30
0.0
 10
1252.808575
 20
2156.707184
 30
0.0
 10
1258.208573
 20
2170.207183
 30
0.0
 10
1263.606449
 20
2181.007185
 30
0.0
 10
1271.121804
 20
2191.785926
 30
0.0
 10
1282.021725
 20
2205.285927
 30
0.0
 10
1293.406370
 20
2218.785926
 30
0.0
 10
1300.441253
 20
2226.418211
 30
0.0
 10
1301.402198
 20
2237.685926
 30
0.0
 10
1306.802198
 20
2256.585930
 30
0.0
 10
1312.202200
 20
2270.085929
 30
0.0
 10
1319.870626
 20
2283.585931
 30
0.0
 10
1328.574406
 20
2299.552074
 30
0.0
 10
1331.297791
 20
2318.685932
 30
0.0
 10
1334.025428
 20
2337.713491
 30
0.0
 10
1342.527239
 20
2353.785933
 30
0.0
 10
1349.995822
 20
2369.964675
 30
0.0
 10
1355.395824
 20
2386.164676
 30
0.0
 10
1359.975193
 20
2397.623731
 30
0.0
 10
1360.795822
 20
2410.464677
 30
0.0
 10
1361.516534
 20
2424.453656
 30
0.0
 10
1368.893697
 20
2434.764680
 30
0.0
 10
1376.993698
 20
2448.264678
 30
0.0
 10
1369.376296
 20
2460.935547
 30
0.0
 10
1352.695822
 20
2461.764680
 30
0.0
 10
1339.857004
 20
2460.935547
 30
0.0
 10
1328.400075
 20
2456.364679
 30
0.0
 10
1318.665190
 20
2451.815074
 30
0.0
 10
1307.431490
 20
2450.964680
 30
0.0
 10
1289.866608
 20
2447.669403
 30
0.0
 10
1281.147946
 20
2432.532397
 30
0.0
 10
1279.878733
 20
2414.525307
 30
0.0
 10
1271.706449
 20
2402.364677
 30
0.0
 10
1264.571645
 20
2394.796172
 30
0.0
 10
1263.606449
 20
2383.464677
 30
0.0
 10
1258.208573
 20
2364.564676
 30
0.0
 10
1252.808575
 20
2351.085934
 30
0.0
 10
1245.384637
 20
2337.585933
 30
0.0
 10
1234.720697
 20
2321.385931
 30
0.0
 10
1223.246761
 20
2305.185930
 30
0.0
 10
1215.012823
 20
2297.192232
 30
0.0
 10
1201.982666
 20
2285.924512
 30
0.0
 10
1191.652506
 20
2279.950496
 30
0.0
 10
1185.682744
 20
2269.618212
 30
0.0
 10
1180.093530
 20
2259.583567
 30
0.0
 10
1169.017152
 20
2256.585930
 30
0.0
 10
1155.621324
 20
2249.251283
 30
0.0
 10
1139.614787
 20
2240.726086
 30
0.0
 10
1120.827464
 20
2237.749706
 30
0.0
 10
1101.867936
 20
2236.155219
 30
0.0
 10
1082.857382
 20
2235.326085
 30
0.0
 10
1063.831949
 20
2235.092227
 30
0.0
 10
1044.804389
 20
2235.326085
 30
0.0
 10
1025.793837
 20
2236.155219
 30
0.0
 10
1006.834307
 20
2237.749706
 30
0.0
 10
988.049109
 20
2240.726086
 30
0.0
 10
972.044699
 20
2249.251283
 30
0.0
 10
958.648873
 20
2256.585930
 30
0.0
 10
947.393910
 20
2259.732385
 30
0.0
 10
941.864226
 20
2270.085929
 30
0.0
 10
936.506745
 20
2280.269396
 30
0.0
 10
925.564304
 20
2283.585931
 30
0.0
 10
912.651074
 20
2294.385931
 30
0.0
 10
904.655247
 20
2305.185930
 30
0.0
 10
893.398160
 20
2318.175696
 30
0.0
 10
887.857844
 20
2328.061523
 30
0.0
 10
878.448237
 20
2334.290658
 30
0.0
 10
860.058473
 20
2335.736327
 30
0.0
 10
841.609181
 20
2336.374122
 30
0.0
 10
823.153511
 20
2336.799319
 30
0.0
 10
804.695713
 20
2337.118216
 30
0.0
 10
786.237917
 20
2337.330814
 30
0.0
 10
767.777995
 20
2337.458373
 30
0.0
 10
749.322325
 20
2337.500893
 30
0.0
 10
729.340199
 20
2337.543413
 30
0.0
 10
709.360197
 20
2337.628452
 30
0.0
 10
689.384449
 20
2337.819791
 30
0.0
 10
669.410823
 20
2338.244987
 30
0.0
 10
649.462713
 20
2339.265463
 30
0.0
 10
631.887201
 20
2345.685933
 30
0.0
 10
618.825151
 20
2353.190659
 30
0.0
 10
602.189323
 20
2353.785933
 30
0.0
 10
586.731294
 20
2354.572547
 30
0.0
 10
572.493575
 20
2359.164675
 30
0.0
 10
561.695701
 20
2364.564676
 30
0.0
 10
550.895699
 20
2372.090658
 30
0.0
 10
537.397826
 20
2382.996960
 30
0.0
 10
525.317981
 20
2391.989874
 30
0.0
 10
523.899950
 20
2407.764678
 30
0.0
 10
525.262706
 20
2423.326881
 30
0.0
 10
536.930110
 20
2432.426097
 30
0.0
 10
547.260267
 20
2438.400112
 30
0.0
 10
553.230032
 20
2448.732394
 30
0.0
 10
564.497748
 20
2461.764680
 30
0.0
 10
572.493575
 20
2469.758381
 30
0.0
 10
585.991451
 20
2481.132397
 30
0.0
 10
599.489324
 20
2492.038699
 30
0.0
 10
607.974128
 20
2499.564684
 30
0.0
 10
622.987830
 20
2506.431611
 30
0.0
 10
631.887201
 20
2520.165471
 30
0.0
 10
640.406020
 20
2526.096968
 30
0.0
 10
650.782949
 20
2528.903266
 30
0.0
 10
661.244917
 20
2531.794605
 30
0.0
 10
669.680823
 20
2537.981220
 30
0.0
 10
678.467516
 20
2551.970198
 30
0.0
 10
693.593896
 20
2558.943427
 30
0.0
 10
702.076574
 20
2566.469410
 30
0.0
 10
715.576576
 20
2577.375711
 30
0.0
 10
729.074449
 20
2588.749727
 30
0.0
 10
739.872326
 20
2596.743428
 30
0.0
 10
750.672325
 20
2602.143429
 30
0.0
 10
758.770199
 20
2607.543428
 30
0.0
 10
766.870200
 20
2615.537129
 30
0.0
 10
780.368076
 20
2626.932407
 30
0.0
 10
793.865949
 20
2637.817446
 30
0.0
 10
802.350753
 20
2645.343432
 30
0.0
 10
817.353825
 20
2652.210361
 30
0.0
 10
826.261699
 20
2665.922959
 30
0.0
 10
837.061699
 20
2673.895400
 30
0.0
 10
847.859576
 20
2685.333198
 30
0.0
 10
853.644378
 20
2693.943434
 30
0.0
 10
866.865876
 20
2701.533196
 30
0.0
 10
874.855325
 20
2714.522962
 30
0.0
 10
885.655325
 20
2722.495404
 30
0.0
 10
896.453199
 20
2733.911939
 30
0.0
 10
909.951075
 20
2742.522176
 30
0.0
 10
923.448951
 20
2747.922177
 30
0.0
 10
931.548951
 20
2753.322178
 30
0.0
 10
939.646823
 20
2761.932415
 30
0.0
 10
950.446825
 20
2773.348950
 30
0.0
 10
961.244699
 20
2781.342651
 30
0.0
 10
969.044936
 20
2794.141075
 30
0.0
 10
981.856117
 20
2801.922178
 30
0.0
 10
987.781236
 20
2810.447376
 30
0.0
 10
990.585411
 20
2820.822182
 30
0.0
 10
993.481001
 20
2831.282024
 30
0.0
 10
999.669742
 20
2839.722182
 30
0.0
 10
1012.910371
 20
2847.588325
 30
0.0
 10
1020.638324
 20
2860.918245
 30
0.0
 10
1029.242183
 20
2866.700923
 30
0.0
 10
1040.671474
 20
2877.500923
 30
0.0
 10
1048.650294
 20
2888.300925
 30
0.0
 10
1061.623051
 20
2896.294627
 30
0.0
 10
1069.231950
 20
2909.518248
 30
0.0
 10
1076.655887
 20
2915.300927
 30
0.0
 10
1087.319825
 20
2931.500927
 30
0.0
 10
1098.793761
 20
2947.700929
 30
0.0
 10
1107.027699
 20
2955.694630
 30
0.0
 10
1119.904787
 20
2966.919827
 30
0.0
 10
1131.933606
 20
2975.848961
 30
0.0
 10
1136.070772
 20
2990.730852
 30
0.0
 10
1140.335496
 20
3005.910381
 30
0.0
 10
1152.889435
 20
3014.711957
 30
0.0
 10
1163.257860
 20
3020.218254
 30
0.0
 10
1166.419197
 20
3031.485973
 30
0.0
 10
1173.887781
 20
3044.879673
 30
0.0
 10
1184.181797
 20
3055.679673
 30
0.0
 10
1195.611091
 20
3066.479675
 30
0.0
 10
1204.214949
 20
3079.979674
 30
0.0
 10
1209.614948
 20
3093.479677
 30
0.0
 10
1215.012823
 20
3101.579677
 30
0.0
 10
1222.436761
 20
3109.679677
 30
0.0
 10
1233.100698
 20
3125.879679
 30
0.0
 10
1244.574637
 20
3142.079679
 30
0.0
 10
1252.808575
 20
3150.179680
 30
0.0
 10
1258.208573
 20
3158.279681
 30
0.0
 10
1263.606449
 20
3169.079681
 30
0.0
 10
1271.840386
 20
3179.879680
 30
0.0
 10
1283.314323
 20
3196.079682
 30
0.0
 10
1293.978262
 20
3212.258423
 30
0.0
 10
1301.402198
 20
3220.358423
 30
0.0
 10
1306.802198
 20
3228.458424
 30
0.0
 10
1312.202200
 20
3241.958426
 30
0.0
 10
1309.502198
 20
3252.758426
 30
0.0
 10
1298.702198
 20
3255.458425
 30
0.0
 10
1285.204322
 20
3247.358424
 30
0.0
 10
1274.406449
 20
3239.258423
 30
0.0
 10
1263.606449
 20
3233.858425
 30
0.0
 10
1252.149520
 20
3229.287557
 30
0.0
 10
1239.310699
 20
3228.458424
 30
0.0
 10
1221.288730
 20
3229.500156
 30
0.0
 10
1215.012823
 20
3244.658425
 30
0.0
 10
1222.844950
 20
3260.858426
 30
0.0
 10
1231.606131
 20
3275.378900
 30
0.0
 10
1234.340146
 20
3293.258428
 30
0.0
 10
1237.082668
 20
3310.925358
 30
0.0
 10
1245.408023
 20
3325.658431
 30
0.0
 10
1252.808575
 20
3339.158430
 30
0.0
 10
1258.208573
 20
3352.658431
 30
0.0
 10
1263.606449
 20
3363.458431
 30
0.0
 10
1271.706449
 20
3374.258431
 30
0.0
 10
1279.804324
 20
3390.437172
 30
0.0
 10
1271.706449
 20
3406.637174
 30
0.0
 10
1263.606449
 20
3412.419852
 30
0.0
 10
1255.999676
 20
3425.643473
 30
0.0
 10
1243.024792
 20
3433.637175
 30
0.0
 10
1235.045976
 20
3444.437177
 30
0.0
 10
1223.618808
 20
3455.237177
 30
0.0
 10
1215.012823
 20
3463.337178
 30
0.0
 10
1209.614948
 20
3471.437178
 30
0.0
 10
1204.214949
 20
3464.187571
 30
0.0
 10
1188.805814
 20
3458.043476
 30
0.0
 10
1171.451404
 20
3456.236390
 30
0.0
 10
1154.037466
 20
3455.067099
 30
0.0
 10
1136.608646
 20
3454.174185
 30
0.0
 10
1119.175574
 20
3453.408831
 30
0.0
 10
1099.318879
 20
3452.622217
 30
0.0
 10
1079.455808
 20
3451.920642
 30
0.0
 10
1059.592737
 20
3451.325364
 30
0.0
 10
1039.723286
 20
3450.815128
 30
0.0
 10
1019.855962
 20
3450.453711
 30
0.0
 10
999.984388
 20
3450.219853
 30
0.0
 10
980.112809
 20
3450.177333
 30
0.0
 10
960.241235
 20
3450.326152
 30
0.0
 10
940.371786
 20
3450.793868
 30
0.0
 10
920.517216
 20
3451.644262
 30
0.0
 10
900.700917
 20
3453.089933
 30
0.0
 10
881.016429
 20
3455.768673
 30
0.0
 10
864.057451
 20
3464.123792
 30
0.0
 10
853.259575
 20
3471.437178
 30
0.0
 10
842.459575
 20
3476.837177
 30
0.0
 10
828.961699
 20
3482.237178
 30
0.0
 10
816.856345
 20
3487.211982
 30
0.0
 10
815.463826
 20
3501.137178
 30
0.0
 10
816.841463
 20
3515.019857
 30
0.0
 10
828.859651
 20
3520.037181
 30
0.0
 10
839.936032
 20
3523.034819
 30
0.0
 10
845.525243
 20
3533.069464
 30
0.0
 10
851.495008
 20
3543.401748
 30
0.0
 10
861.825165
 20
3549.354505
 30
0.0
 10
874.855325
 20
3560.622220
 30
0.0
 10
885.655325
 20
3568.615922
 30
0.0
 10
896.453199
 20
3574.015924
 30
0.0
 10
904.553199
 20
3579.415924
 30
0.0
 10
912.651074
 20
3587.664744
 30
0.0
 10
928.848949
 20
3599.123799
 30
0.0
 10
945.046824
 20
3609.796239
 30
0.0
 10
950.831628
 20
3617.215926
 30
0.0
 10
964.240210
 20
3625.018288
 30
0.0
 10
972.044699
 20
3638.433251
 30
0.0
 10
980.648558
 20
3644.215927
 30
0.0
 10
992.075725
 20
3655.015929
 30
0.0
 10
1007.769742
 20
3665.815929
 30
0.0
 10
1020.638324
 20
3671.215930
 30
0.0
 10
1028.106908
 20
3676.615929
 30
0.0
 10
1038.400923
 20
3687.415929
 30
0.0
 10
1049.828091
 20
3698.215931
 30
0.0
 10
1058.431950
 20
3706.315932
 30
0.0
 10
1071.827776
 20
3714.415932
 30
0.0
 10
1082.906279
 20
3717.413569
 30
0.0
 10
1088.493367
 20
3727.426955
 30
0.0
 10
1094.465258
 20
3737.759239
 30
0.0
 10
1104.795416
 20
3743.733255
 30
0.0
 10
1117.825575
 20
3755.000972
 30
0.0
 10
1125.925576
 20
3762.994673
 30
0.0
 10
1134.023450
 20
3768.394674
 30
0.0
 10
1144.821324
 20
3773.794676
 30
0.0
 10
1155.621324
 20
3781.788377
 30
0.0
 10
1168.651483
 20
3793.056093
 30
0.0
 10
1178.981641
 20
3799.030110
 30
0.0
 10
1184.951406
 20
3809.362393
 30
0.0
 10
1196.219122
 20
3822.394676
 30
0.0
 10
1204.214949
 20
3830.388377
 30
0.0
 10
1217.245106
 20
3841.656097
 30
0.0
 10
1227.575266
 20
3847.630110
 30
0.0
 10
1233.545028
 20
3857.962397
 30
0.0
 10
1244.812748
 20
3870.994680
 30
0.0
 10
1252.808575
 20
3879.094680
 30
0.0
 10
1266.812432
 20
3887.194681
 30
0.0
 10
1277.372198
 20
3889.426963
 30
0.0
 10
1283.639599
 20
3897.973420
 30
0.0
 10
1291.618418
 20
3908.773423
 30
0.0
 10
1304.410467
 20
3916.575786
 30
0.0
 10
1312.202200
 20
3929.352951
 30
0.0
 10
1323.000074
 20
3937.346652
 30
0.0
 10
1333.797948
 20
3948.763187
 30
0.0
 10
1339.582752
 20
3957.373424
 30
0.0
 10
1352.806373
 20
3964.984448
 30
0.0
 10
1360.795822
 20
3977.952954
 30
0.0
 10
1371.593699
 20
3985.946656
 30
0.0
 10
1382.391573
 20
3997.363191
 30
0.0
 10
1388.178504
 20
4005.973428
 30
0.0
 10
1401.399999
 20
4013.584452
 30
0.0
 10
1409.389448
 20
4026.552957
 30
0.0
 10
1420.187322
 20
4034.525399
 30
0.0
 10
1430.987325
 20
4045.963194
 30
0.0
 10
1436.772126
 20
4054.573430
 30
0.0
 10
1449.993624
 20
4062.163195
 30
0.0
 10
1457.983074
 20
4075.152958
 30
0.0
 10
1468.780947
 20
4083.125400
 30
0.0
 10
1479.580950
 20
4094.563197
 30
0.0
 10
1485.365751
 20
4103.152174
 30
0.0
 10
1498.587249
 20
4110.763199
 30
0.0
 10
1506.576699
 20
4123.731701
 30
0.0
 10
1517.376698
 20
4131.725403
 30
0.0
 10
1528.174572
 20
4143.141941
 30
0.0
 10
1533.959377
 20
4151.752177
 30
0.0
 10
1547.367962
 20
4159.554538
 30
0.0
 10
1555.170321
 20
4172.969500
 30
0.0
 10
1562.594259
 20
4178.752178
 30
0.0
 10
1573.258199
 20
4194.952179
 30
0.0
 10
1584.732136
 20
4211.152181
 30
0.0
 10
1592.966073
 20
4219.145882
 30
0.0
 10
1605.953713
 20
4230.392338
 30
0.0
 10
1619.608909
 20
4240.767141
 30
0.0
 10
1623.858753
 20
4257.966355
 30
0.0
 10
1625.028044
 20
4275.697065
 30
0.0
 10
1625.287414
 20
4293.491553
 30
0.0
 10
1625.825288
 20
4313.433288
 30
0.0
 10
1633.461824
 20
4329.930927
 30
0.0
 10
1640.732691
 20
4338.817542
 30
0.0
 10
1641.559699
 20
4351.424627
 30
0.0
 10
1642.894816
 20
4366.965574
 30
0.0
 10
1654.436784
 20
4376.149826
 30
0.0
 10
1666.465605
 20
4385.057700
 30
0.0
 10
1670.604896
 20
4399.960852
 30
0.0
 10
1674.869622
 20
4415.140380
 30
0.0
 10
1687.423558
 20
4423.920696
 30
0.0
 10
1700.953323
 20
4435.315971
 30
0.0
 10
1711.751197
 20
4443.309673
 30
0.0
 10
1722.549072
 20
4448.709673
 30
0.0
 10
1736.049073
 20
4454.109672
 30
0.0
 10
1749.546949
 20
4461.529358
 30
0.0
 10
1763.246790
 20
4471.266366
 30
0.0
 10
1780.575689
 20
4474.689203
 30
0.0
 10
1798.229863
 20
4475.709675
 30
0.0
 10
1810.445771
 20
4478.409674
 30
0.0
 10
1816.555851
 20
4489.209676
 30
0.0
 10
1827.940496
 20
4502.709675
 30
0.0
 10
1835.936324
 20
4510.809676
 30
0.0
 10
1841.334196
 20
4518.909677
 30
0.0
 10
1846.734197
 20
4529.709676
 30
0.0
 10
1854.968135
 20
4540.509679
 30
0.0
 10
1866.442072
 20
4556.709680
 30
0.0
 10
1877.106011
 20
4572.888419
 30
0.0
 10
1884.529948
 20
4580.988419
 30
0.0
 10
1889.929947
 20
4589.088419
 30
0.0
 10
1895.327822
 20
4602.588422
 30
0.0
 10
1902.751760
 20
4616.088424
 30
0.0
 10
1913.415697
 20
4632.288425
 30
0.0
 10
1924.889634
 20
4648.488423
 30
0.0
 10
1933.123571
 20
4659.288426
 30
0.0
 10
1938.523573
 20
4670.088425
 30
0.0
 10
1943.921448
 20
4683.588427
 30
0.0
 10
1951.324123
 20
4697.088427
 30
0.0
 10
1959.649478
 20
4711.800239
 30
0.0
 10
1962.389874
 20
4729.488429
 30
0.0
 10
1965.126015
 20
4747.346697
 30
0.0
 10
1973.887196
 20
4761.867171
 30
0.0
 10
1981.717197
 20
4772.667171
 30
0.0
 10
1987.117198
 20
4783.467171
 30
0.0
 10
1991.694441
 20
4794.926228
 30
0.0
 10
1992.517197
 20
4807.767172
 30
0.0
 10
1993.237905
 20
4821.756150
 30
0.0
 10
2000.615071
 20
4832.065048
 30
0.0
 10
2008.715072
 20
4845.565050
 30
0.0
 10
2002.439168
 20
4858.008435
 30
0.0
 10
1987.117198
 20
4859.062923
 30
0.0
 10
1974.456959
 20
4858.240167
 30
0.0
 10
1965.519322
 20
4850.962922
 30
0.0
 10
1953.834913
 20
4843.511350
 30
0.0
 10
1938.523573
 20
4842.865051
 30
0.0
 10
1924.377272
 20
4842.059300
 30
0.0
 10
1911.525697
 20
4837.465049
 30
0.0
 10
1900.068766
 20
4832.887804
 30
0.0
 10
1887.229948
 20
4832.065048
 30
0.0
 10
1873.485458
 20
4831.329458
 30
0.0
 10
1862.932073
 20
4824.477410
 30
0.0
 10
1844.446639
 20
4817.376622
 30
0.0
 10
1823.650258
 20
4815.399456
 30
0.0
 10
1802.804982
 20
4814.060087
 30
0.0
 10
1781.942697
 20
4812.997095
 30
0.0
 10
1761.118681
 20
4811.912843
 30
0.0
 10
1740.307418
 20
4810.573473
 30
0.0
 10
1719.549308
 20
4808.596306
 30
0.0
 10
1700.953323
 20
4801.686859
 30
0.0
 10
1683.479858
 20
4796.435676
 30
0.0
 10
1664.403398
 20
4795.372685
 30
0.0
 10
1645.303556
 20
4794.862448
 30
0.0
 10
1626.199461
 20
4794.564811
 30
0.0
 10
1607.091114
 20
4794.415992
 30
0.0
 10
1587.984890
 20
4794.330953
 30
0.0
 10
1568.876544
 20
4794.288433
 30
0.0
 10
1549.772449
 20
4794.267174
 30
0.0
 10
1530.659850
 20
4794.288433
 30
0.0
 10
1511.545122
 20
4794.330953
 30
0.0
 10
1492.432524
 20
4794.415992
 30
0.0
 10
1473.322051
 20
4794.564811
 30
0.0
 10
1454.209453
 20
4794.841189
 30
0.0
 10
1435.107481
 20
4795.351425
 30
0.0
 10
1416.024646
 20
4796.414417
 30
0.0
 10
1398.589448
 20
4801.729379
 30
0.0
 10
1387.791574
 20
4812.040402
 30
0.0
 10
1376.993698
 20
4823.456937
 30
0.0
 10
1368.893697
 20
4832.065048
 30
0.0
 10
1360.795822
 20
4837.465049
 30
0.0
 10
1368.294170
 20
4842.865051
 30
0.0
 10
1375.964722
 20
4850.769458
 30
0.0
 10
1379.336534
 20
4861.762925
 30
0.0
 10
1382.232124
 20
4872.222767
 30
0.0
 10
1388.422992
 20
4880.660799
 30
0.0
 10
1402.416219
 20
4889.445367
 30
0.0
 10
1409.389448
 20
4904.571746
 30
0.0
 10
1416.902677
 20
4913.056550
 30
0.0
 10
1427.804724
 20
4926.554422
 30
0.0
 10
1439.187246
 20
4940.052298
 30
0.0
 10
1447.185200
 20
4948.048126
 30
0.0
 10
1460.215357
 20
4959.315842
 30
0.0
 10
1470.545514
 20
4965.285607
 30
0.0
 10
1476.515279
 20
4975.615764
 30
0.0
 10
1482.104493
 20
4985.648284
 30
0.0
 10
1493.180871
 20
4988.645924
 30
0.0
 10
1506.576699
 20
4996.116634
 30
0.0
 10
1517.376698
 20
5006.408523
 30
0.0
 10
1528.174572
 20
5017.837814
 30
0.0
 10
1533.959377
 20
5026.441673
 30
0.0
 10
1547.189379
 20
5034.059075
 30
0.0
 10
1555.170321
 20
5047.053093
 30
0.0
 10
1563.691270
 20
5052.976083
 30
0.0
 10
1574.068199
 20
5055.782385
 30
0.0
 10
1584.530167
 20
5058.675849
 30
0.0
 10
1592.966073
 20
5064.866716
 30
0.0
 10
1600.840719
 20
5078.107345
 30
0.0
 10
1614.177017
 20
5085.833172
 30
0.0
 10
1619.961822
 20
5094.439157
 30
0.0
 10
1630.761822
 20
5105.866324
 30
0.0
 10
1641.559699
 20
5113.845144
 30
0.0
 10
1649.549148
 20
5126.820025
 30
0.0
 10
1662.772769
 20
5134.428923
 30
0.0
 10
1668.557573
 20
5143.032782
 30
0.0
 10
1679.355448
 20
5154.459947
 30
0.0
 10
1690.153324
 20
5162.440893
 30
0.0
 10
1698.142771
 20
5175.413650
 30
0.0
 10
1711.366395
 20
5183.022549
 30
0.0
 10
1717.151199
 20
5191.626408
 30
0.0
 10
1727.949072
 20
5203.055699
 30
0.0
 10
1738.746946
 20
5212.899006
 30
0.0
 10
1745.496947
 20
5223.067592
 30
0.0
 10
1745.496947
 20
5229.366881
 30
0.0
 10
1740.075686
 20
5239.384522
 30
0.0
 10
1738.746946
 20
5250.962631
 30
0.0
 10
1737.754112
 20
5262.066647
 30
0.0
 10
1730.649072
 20
5269.411923
 30
0.0
 10
1723.856554
 20
5283.407279
 30
0.0
 10
1722.893481
 20
5300.321611
 30
0.0
 10
1722.608599
 20
5317.261454
 30
0.0
 10
1722.549072
 20
5334.203424
 30
0.0
 10
1722.608599
 20
5351.145393
 30
0.0
 10
1722.893481
 20
5368.085236
 30
0.0
 10
1723.856554
 20
5384.995316
 30
0.0
 10
1730.649072
 20
5398.994921
 30
0.0
 10
1737.922065
 20
5407.881538
 30
0.0
 10
1738.746946
 20
5420.488625
 30
0.0
 10
1740.082064
 20
5436.023193
 30
0.0
 10
1751.624035
 20
5445.215949
 30
0.0
 10
1763.633720
 20
5454.085556
 30
0.0
 10
1767.775139
 20
5468.918549
 30
0.0
 10
1773.955373
 20
5486.889494
 30
0.0
 10
1792.100652
 20
5492.755087
 30
0.0
 10
1807.550178
 20
5496.998550
 30
0.0
 10
1816.547344
 20
5509.650284
 30
0.0
 10
1822.072779
 20
5520.018709
 30
0.0
 10
1833.338369
 20
5523.180047
 30
0.0
 10
1846.734197
 20
5530.527449
 30
0.0
 10
1864.528686
 20
5539.445954
 30
0.0
 10
1885.252783
 20
5542.303275
 30
0.0
 10
1906.129948
 20
5543.774459
 30
0.0
 10
1927.045384
 20
5544.503671
 30
0.0
 10
1947.971447
 20
5544.729026
 30
0.0
 10
1963.918456
 20
5544.896979
 30
0.0
 10
1979.835701
 20
5545.800521
 30
0.0
 10
1992.517197
 20
5552.875798
 30
0.0
 10
2000.002788
 20
5560.975799
 30
0.0
 10
2008.087906
 20
5571.558948
 30
0.0
 10
2011.132318
 20
5585.271549
 30
0.0
 10
2014.180978
 20
5599.118083
 30
0.0
 10
2022.542475
 20
5609.569422
 30
0.0
 10
2030.310822
 20
5623.067298
 30
0.0
 10
2035.710821
 20
5636.565173
 30
0.0
 10
2041.110822
 20
5647.363047
 30
0.0
 10
2049.344759
 20
5658.163046
 30
0.0
 10
2060.818696
 20
5674.360922
 30
0.0
 10
2071.480510
 20
5690.558797
 30
0.0
 10
2078.904447
 20
5704.056673
 30
0.0
 10
2084.304446
 20
5717.554546
 30
0.0
 10
2089.704447
 20
5728.354549
 30
0.0
 10
2097.190038
 20
5739.152422
 30
0.0
 10
2105.275158
 20
5749.735572
 30
0.0
 10
2108.319566
 20
5763.450298
 30
0.0
 10
2111.368226
 20
5777.294707
 30
0.0
 10
2119.731849
 20
5787.746048
 30
0.0
 10
2126.664684
 20
5796.841009
 30
0.0
 10
2127.493818
 20
5809.343922
 30
0.0
 10
2128.344211
 20
5820.879515
 30
0.0
 10
2132.893820
 20
5830.941798
 30
0.0
 10
2138.293821
 20
5841.739671
 30
0.0
 10
2145.777286
 20
5852.537546
 30
0.0
 10
2154.111145
 20
5865.848335
 30
0.0
 10
2156.959963
 20
5882.235423
 30
0.0
 10
2159.808781
 20
5898.728810
 30
0.0
 10
2168.376498
 20
5911.931171
 30
0.0
 10
2176.093822
 20
5922.729047
 30
0.0
 10
2181.493823
 20
5933.529047
 30
0.0
 10
2186.043428
 20
5943.589205
 30
0.0
 10
2186.893822
 20
5955.124795
 30
0.0
 10
2187.722958
 20
5967.785034
 30
0.0
 10
2194.993822
 20
5976.722672
 30
0.0
 10
2203.093822
 20
5987.520545
 30
0.0
 10
2189.593823
 20
5998.320547
 30
0.0
 10
2176.093822
 20
5990.465035
 30
0.0
 10
2168.355238
 20
5982.460704
 30
0.0
 10
2157.193821
 20
5979.065505
 30
0.0
 10
2146.202483
 20
5975.695821
 30
0.0
 10
2138.293821
 20
5968.023144
 30
0.0
 10
2124.902244
 20
5960.524796
 30
0.0
 10
2113.853504
 20
5957.550545
 30
0.0
 10
2108.255786
 20
5947.573301
 30
0.0
 10
2097.827834
 20
5934.930070
 30
0.0
 10
2081.155864
 20
5931.043772
 30
0.0
 10
2067.532555
 20
5928.012117
 30
0.0
 10
2057.308697
 20
5919.699518
 30
0.0
 10
2043.810822
 20
5911.931171
 30
0.0
 10
2030.310822
 20
5920.029045
 30
0.0
 10
2022.212948
 20
5928.129046
 30
0.0
 10
2014.112947
 20
5944.326921
 30
0.0
 10
2022.212948
 20
5960.524796
 30
0.0
 10
2029.347751
 20
5968.097552
 30
0.0
 10
2030.310822
 20
5979.422671
 30
0.0
 10
2035.710821
 20
5998.320547
 30
0.0
 10
2041.110822
 20
6011.818421
 30
0.0
 10
2048.779248
 20
6025.316296
 30
0.0
 10
2057.485154
 20
6041.280313
 30
0.0
 10
2060.206412
 20
6060.412046
 30
0.0
 10
2062.934053
 20
6079.452361
 30
0.0
 10
2071.435864
 20
6095.507796
 30
0.0
 10
2078.904447
 20
6111.705671
 30
0.0
 10
2084.304446
 20
6127.903546
 30
0.0
 10
2089.704447
 20
6141.401422
 30
0.0
 10
2097.175157
 20
6154.901421
 30
0.0
 10
2105.674842
 20
6170.956855
 30
0.0
 10
2108.402479
 20
6189.997170
 30
0.0
 10
2111.125865
 20
6209.126780
 30
0.0
 10
2119.829644
 20
6225.090794
 30
0.0
 10
2127.493818
 20
6238.590796
 30
0.0
 10
2132.893820
 20
6252.088672
 30
0.0
 10
2138.293821
 20
6268.671350
 30
0.0
 10
2133.233977
 20
6288.483397
 30
0.0
 10
2117.716417
 20
6300.682294
 30
0.0
 10
2109.737597
 20
6311.480171
 30
0.0
 10
2103.468071
 20
6320.028754
 30
0.0
 10
2092.908305
 20
6322.280171
 30
0.0
 10
2078.904447
 20
6330.378046
 30
0.0
 10
2070.908620
 20
6338.478046
 30
0.0
 10
2059.643027
 20
6351.508203
 30
0.0
 10
2053.673265
 20
6361.838363
 30
0.0
 10
2043.340979
 20
6367.808125
 30
0.0
 10
2030.310822
 20
6379.075844
 30
0.0
 10
2022.314995
 20
6387.071671
 30
0.0
 10
2011.087672
 20
6399.948757
 30
0.0
 10
2002.169168
 20
6411.977579
 30
0.0
 10
1987.280899
 20
6416.114743
 30
0.0
 10
1972.092866
 20
6420.381595
 30
0.0
 10
1963.310424
 20
6432.935531
 30
0.0
 10
1951.919401
 20
6446.463171
 30
0.0
 10
1943.921448
 20
6454.461124
 30
0.0
 10
1930.423572
 20
6465.843644
 30
0.0
 10
1916.925696
 20
6476.745691
 30
0.0
 10
1908.440893
 20
6484.258919
 30
0.0
 10
1893.235855
 20
6491.300180
 30
0.0
 10
1884.529948
 20
6505.471993
 30
0.0
 10
1876.748845
 20
6511.256795
 30
0.0
 10
1864.190655
 20
6522.581915
 30
0.0
 10
1865.340812
 20
6541.303333
 30
0.0
 10
1868.821050
 20
6559.850420
 30
0.0
 10
1889.224121
 20
6559.850420
 30
0.0
 10
1909.631446
 20
6559.850420
 30
0.0
 10
1930.034517
 20
6559.850420
 30
0.0
 10
1950.441839
 20
6559.850420
 30
0.0
 10
1970.849166
 20
6559.850420
 30
0.0
 10
1991.252237
 20
6559.850420
 30
0.0
 10
2011.659562
 20
6559.850420
 30
0.0
 10
2032.387908
 20
6559.837664
 30
0.0
 10
2053.114132
 20
6559.788766
 30
0.0
 10
2073.842477
 20
6559.680341
 30
0.0
 10
2094.566572
 20
6559.459239
 30
0.0
 10
2115.288543
 20
6559.012782
 30
0.0
 10
2135.997756
 20
6557.971050
 30
0.0
 10
2154.493822
 20
6551.750419
 30
0.0
 10
2168.333978
 20
6544.641127
 30
0.0
 10
2185.363113
 20
6543.792859
 30
0.0
 10
2202.413508
 20
6543.652545
 30
0.0
 10
2218.379651
 20
6543.652545
 30
0.0
 10
2234.367053
 20
6543.652545
 30
0.0
 10
2250.333197
 20
6543.652545
 30
0.0
 10
2253.713510
 20
6560.524357
 30
0.0
 10
2256.052095
 20
6576.652074
 30
0.0
 10
2257.072567
 20
6592.920107
 30
0.0
 10
2265.172568
 20
6608.444045
 30
0.0
 10
2273.272569
 20
6619.241919
 30
0.0
 10
2278.672567
 20
6630.041922
 30
0.0
 10
2284.072569
 20
6643.539795
 30
0.0
 10
2291.492254
 20
6657.037671
 30
0.0
 10
2299.592254
 20
6669.019718
 30
0.0
 10
2302.462332
 20
6684.035546
 30
0.0
 10
2305.353670
 20
6699.291610
 30
0.0
 10
2313.963910
 20
6711.031295
 30
0.0
 10
2321.043436
 20
6720.058224
 30
0.0
 10
2321.872569
 20
6732.629171
 30
0.0
 10
2322.722966
 20
6744.164974
 30
0.0
 10
2327.272570
 20
6754.225769
 30
0.0
 10
2332.672571
 20
6765.024284
 30
0.0
 10
2340.389895
 20
6775.823008
 30
0.0
 10
2348.957612
 20
6789.024094
 30
0.0
 10
2351.806430
 20
6805.519394
 30
0.0
 10
2354.655248
 20
6821.905206
 30
0.0
 10
2362.989107
 20
6835.215570
 30
0.0
 10
2370.472572
 20
6846.014294
 30
0.0
 10
2375.872574
 20
6856.812806
 30
0.0
 10
2381.272572
 20
6870.311320
 30
0.0
 10
2389.372573
 20
6883.809621
 30
0.0
 10
2397.472574
 20
6891.908558
 30
0.0
 10
2408.272576
 20
6900.007496
 30
0.0
 10
2419.072576
 20
6891.908558
 30
0.0
 10
2424.472577
 20
6883.809621
 30
0.0
 10
2429.851315
 20
6867.611533
 30
0.0
 10
2437.483600
 20
6851.413658
 30
0.0
 10
2444.988325
 20
6838.003372
 30
0.0
 10
2447.348167
 20
6821.812513
 30
0.0
 10
2448.921397
 20
6805.519394
 30
0.0
 10
2450.473366
 20
6789.272621
 30
0.0
 10
2452.854468
 20
6773.128324
 30
0.0
 10
2460.189114
 20
6759.625133
 30
0.0
 10
2467.651319
 20
6743.427045
 30
0.0
 10
2473.051318
 20
6727.229170
 30
0.0
 10
2477.643446
 20
6715.772241
 30
0.0
 10
2478.451319
 20
6702.931294
 30
0.0
 10
2479.195413
 20
6689.120901
 30
0.0
 10
2486.189902
 20
6678.635544
 30
0.0
 10
2493.715887
 20
6666.215545
 30
0.0
 10
2496.118249
 20
6650.882945
 30
0.0
 10
2497.670217
 20
6635.439794
 30
0.0
 10
2499.243445
 20
6620.094438
 30
0.0
 10
2501.645810
 20
6604.861763
 30
0.0
 10
2508.852897
 20
6592.246170
 30
0.0
 10
2516.251323
 20
6576.048295
 30
0.0
 10
2521.651321
 20
6559.850420
 30
0.0
 10
2527.051323
 20
6546.352546
 30
0.0
 10
2532.876518
 20
6534.391757
 30
0.0
 10
2547.460771
 20
6532.956718
 30
0.0
 10
2562.151324
 20
6532.852545
 30
0.0
 10
2581.115104
 20
6532.310419
 30
0.0
 10
2597.251326
 20
6525.415852
 30
0.0
 10
2616.193845
 20
6519.497110
 30
0.0
 10
2636.837155
 20
6517.855851
 30
0.0
 10
2657.522982
 20
6516.784355
 30
0.0
 10
2678.230071
 20
6515.948844
 30
0.0
 10
2698.915898
 20
6515.236638
 30
0.0
 10
2719.622987
 20
6514.598844
 30
0.0
 10
2740.330074
 20
6514.005694
 30
0.0
 10
2761.037163
 20
6513.414671
 30
0.0
 10
2781.744249
 20
6512.776875
 30
0.0
 10
2802.451336
 20
6512.064671
 30
0.0
 10
2823.137165
 20
6511.231283
 30
0.0
 10
2843.822992
 20
6510.161913
 30
0.0
 10
2864.466302
 20
6508.520654
 30
0.0
 10
2883.408821
 20
6502.544511
 30
0.0
 10
2894.208821
 20
6495.058922
 30
0.0
 10
2903.584412
 20
6490.103252
 30
0.0
 10
2905.008824
 20
6478.861047
 30
0.0
 10
2896.908824
 20
6462.663172
 30
0.0
 10
2888.808823
 20
6454.563171
 30
0.0
 10
2880.326145
 20
6446.463171
 30
0.0
 10
2865.189137
 20
6439.492067
 30
0.0
 10
2856.408821
 20
6425.496711
 30
0.0
 10
2847.968663
 20
6419.305847
 30
0.0
 10
2837.508821
 20
6416.412381
 30
0.0
 10
2827.134015
 20
6413.606082
 30
0.0
 10
2818.608817
 20
6407.683089
 30
0.0
 10
2809.722203
 20
6393.947105
 30
0.0
 10
2794.691496
 20
6387.071671
 30
0.0
 10
2786.208818
 20
6379.035450
 30
0.0
 10
2777.449759
 20
6370.716474
 30
0.0
 10
2765.055272
 20
6367.616787
 30
0.0
 10
2749.833224
 20
6363.503008
 30
0.0
 10
2740.648972
 20
6351.355132
 30
0.0
 10
2735.036371
 20
6341.428911
 30
0.0
 10
2724.023773
 20
6338.478046
 30
0.0
 10
2710.630073
 20
6330.622534
 30
0.0
 10
2702.891490
 20
6322.618202
 30
0.0
 10
2691.730070
 20
6319.223006
 30
0.0
 10
2681.355267
 20
6316.418831
 30
0.0
 10
2672.830070
 20
6310.493714
 30
0.0
 10
2663.922195
 20
6296.759855
 30
0.0
 10
2648.912745
 20
6289.884421
 30
0.0
 10
2640.430067
 20
6282.369066
 30
0.0
 10
2626.930069
 20
6271.469145
 30
0.0
 10
2613.430067
 20
6260.084499
 30
0.0
 10
2605.330066
 20
6252.088672
 30
0.0
 10
2597.251326
 20
6238.590796
 30
0.0
 10
2605.330066
 20
6225.090794
 30
0.0
 10
2612.707232
 20
6214.784023
 30
0.0
 10
2613.430067
 20
6200.795047
 30
0.0
 10
2614.259200
 20
6187.956227
 30
0.0
 10
2618.830068
 20
6176.497172
 30
0.0
 10
2623.422192
 20
6165.040240
 30
0.0
 10
2624.230067
 20
6152.201422
 30
0.0
 10
2624.974161
 20
6138.454806
 30
0.0
 10
2631.841091
 20
6127.903546
 30
0.0
 10
2639.430855
 20
6112.634726
 30
0.0
 10
2641.726918
 20
6094.665906
 30
0.0
 10
2643.278888
 20
6076.609921
 30
0.0
 10
2644.809597
 20
6058.594330
 30
0.0
 10
2647.126919
 20
6040.665905
 30
0.0
 10
2654.567865
 20
6025.316296
 30
0.0
 10
2661.285976
 20
6014.703384
 30
0.0
 10
2662.030070
 20
6001.020547
 30
0.0
 10
2662.859203
 20
5988.179600
 30
0.0
 10
2667.430069
 20
5976.722672
 30
0.0
 10
2672.000937
 20
5965.265742
 30
0.0
 10
2672.830070
 20
5952.426922
 30
0.0
 10
2673.552904
 20
5938.437944
 30
0.0
 10
2680.930070
 20
5928.129046
 30
0.0
 10
2689.030071
 20
5914.631173
 30
0.0
 10
2680.930070
 20
5901.133297
 30
0.0
 10
2672.830070
 20
5890.333297
 30
0.0
 10
2665.410384
 20
5879.535420
 30
0.0
 10
2650.804871
 20
5880.904557
 30
0.0
 10
2636.539518
 20
5884.289123
 30
0.0
 10
2624.230067
 20
5891.394163
 30
0.0
 10
2616.236365
 20
5904.335028
 30
0.0
 10
2603.034004
 20
5911.931171
 30
0.0
 10
2597.251326
 20
5919.355109
 30
0.0
 10
2581.051324
 20
5930.019045
 30
0.0
 10
2564.851323
 20
5941.492985
 30
0.0
 10
2556.751323
 20
5949.726923
 30
0.0
 10
2548.651322
 20
5955.124795
 30
0.0
 10
2537.851322
 20
5960.524796
 30
0.0
 10
2527.051323
 20
5955.124795
 30
0.0
 10
2534.811166
 20
5949.726923
 30
0.0
 10
2543.187544
 20
5939.273458
 30
0.0
 10
2546.227701
 20
5925.429047
 30
0.0
 10
2549.267857
 20
5911.716447
 30
0.0
 10
2557.367858
 20
5901.133297
 30
0.0
 10
2564.851323
 20
5890.333297
 30
0.0
 10
2570.251325
 20
5879.535420
 30
0.0
 10
2575.651326
 20
5866.037547
 30
0.0
 10
2583.411166
 20
5852.537546
 30
0.0
 10
2591.766285
 20
5842.086207
 30
0.0
 10
2594.827704
 20
5828.241796
 30
0.0
 10
2597.867861
 20
5814.527073
 30
0.0
 10
2605.946601
 20
5803.943923
 30
0.0
 10
2613.430067
 20
5793.146047
 30
0.0
 10
2618.830068
 20
5782.348173
 30
0.0
 10
2624.230067
 20
5768.848171
 30
0.0
 10
2632.011170
 20
5755.350298
 30
0.0
 10
2640.366288
 20
5744.898959
 30
0.0
 10
2643.427708
 20
5731.054548
 30
0.0
 10
2646.467864
 20
5717.339822
 30
0.0
 10
2654.546605
 20
5706.756672
 30
0.0
 10
2662.030070
 20
5695.958798
 30
0.0
 10
2667.430069
 20
5685.158795
 30
0.0
 10
2672.830070
 20
5671.660922
 30
0.0
 10
2680.589913
 20
5658.163046
 30
0.0
 10
2688.966292
 20
5647.711709
 30
0.0
 10
2692.006448
 20
5633.865171
 30
0.0
 10
2695.046608
 20
5620.152573
 30
0.0
 10
2703.146608
 20
5609.569422
 30
0.0
 10
2710.630073
 20
5598.769422
 30
0.0
 10
2716.030072
 20
5587.971548
 30
0.0
 10
2721.430073
 20
5574.473672
 30
0.0
 10
2728.913539
 20
5560.975799
 30
0.0
 10
2736.588342
 20
5553.069263
 30
0.0
 10
2739.968656
 20
5542.077922
 30
0.0
 10
2743.370230
 20
5530.920757
 30
0.0
 10
2751.363931
 20
5523.180047
 30
0.0
 10
2759.230074
 20
5509.682174
 30
0.0
 10
2764.630075
 20
5496.182172
 30
0.0
 10
2770.008817
 20
5485.384298
 30
0.0
 10
2778.257636
 20
5474.586421
 30
0.0
 10
2789.716691
 20
5458.388549
 30
0.0
 10
2800.389132
 20
5442.190674
 30
0.0
 10
2807.808817
 20
5428.690673
 30
0.0
 10
2813.208819
 20
5415.192797
 30
0.0
 10
2818.608817
 20
5407.094922
 30
0.0
 10
2826.028503
 20
5398.994921
 30
0.0
 10
2836.700947
 20
5382.797049
 30
0.0
 10
2848.181262
 20
5366.599174
 30
0.0
 10
2856.408821
 20
5355.801297
 30
0.0
 10
2861.808819
 20
5345.001297
 30
0.0
 10
2867.208821
 20
5336.903423
 30
0.0
 10
2875.436380
 20
5328.803422
 30
0.0
 10
2886.916695
 20
5312.605547
 30
0.0
 10
2897.567878
 20
5296.407672
 30
0.0
 10
2905.008824
 20
5290.622871
 30
0.0
 10
2912.619849
 20
5277.392869
 30
0.0
 10
2925.609612
 20
5269.411923
 30
0.0
 10
2931.541109
 20
5260.890978
 30
0.0
 10
2934.347407
 20
5250.514048
 30
0.0
 10
2937.238745
 20
5240.052080
 30
0.0
 10
2943.425360
 20
5231.616175
 30
0.0
 10
2956.478905
 20
5223.937119
 30
0.0
 10
2964.387568
 20
5211.034518
 30
0.0
 10
2975.187568
 20
5203.055699
 30
0.0
 10
2985.987567
 20
5191.626408
 30
0.0
 10
2991.770245
 20
5183.022549
 30
0.0
 10
3005.950563
 20
5174.316643
 30
0.0
 10
3012.987568
 20
5159.111602
 30
0.0
 10
3020.492293
 20
5150.626799
 30
0.0
 10
3031.398595
 20
5137.126796
 30
0.0
 10
3042.793870
 20
5123.628923
 30
0.0
 10
3050.787572
 20
5115.394986
 30
0.0
 10
3066.987573
 20
5103.921047
 30
0.0
 10
3083.187574
 20
5093.259236
 30
0.0
 10
3088.970250
 20
5085.833172
 30
0.0
 10
3102.193874
 20
5078.226400
 30
0.0
 10
3110.166315
 20
5065.251518
 30
0.0
 10
3120.966315
 20
5057.272699
 30
0.0
 10
3131.766318
 20
5045.845534
 30
0.0
 10
3137.548993
 20
5037.239550
 30
0.0
 10
3150.793877
 20
5029.624273
 30
0.0
 10
3158.766318
 20
5016.630255
 30
0.0
 10
3167.291516
 20
5010.705136
 30
0.0
 10
3177.666319
 20
5007.900963
 30
0.0
 10
3188.126161
 20
5005.005374
 30
0.0
 10
3196.566319
 20
4998.814507
 30
0.0
 10
3204.432461
 20
4985.573875
 30
0.0
 10
3217.783645
 20
4977.848050
 30
0.0
 10
3223.566320
 20
4970.424112
 30
0.0
 10
3239.766321
 20
4959.760173
 30
0.0
 10
3255.966322
 20
4948.286236
 30
0.0
 10
3266.766325
 20
4940.052298
 30
0.0
 10
3277.566325
 20
4934.652297
 30
0.0
 10
3285.645066
 20
4929.254425
 30
0.0
 10
3293.745066
 20
4921.154424
 30
0.0
 10
3307.755301
 20
4913.056550
 30
0.0
 10
3318.321446
 20
4910.805133
 30
0.0
 10
3324.593097
 20
4902.256550
 30
0.0
 10
3334.882864
 20
4891.458674
 30
0.0
 10
3342.345069
 20
4877.960800
 30
0.0
 10
3347.745068
 20
4864.460798
 30
0.0
 10
3352.315936
 20
4853.299381
 30
0.0
 10
3353.145069
 20
4840.743316
 30
0.0
 10
3351.784440
 20
4823.988433
 30
0.0
 10
3340.367902
 20
4812.827016
 30
0.0
 10
3323.657664
 20
4810.722293
 30
0.0
 10
3306.819868
 20
4810.467174
 30
0.0
 10
3290.386009
 20
4809.871899
 30
0.0
 10
3277.566325
 20
4802.367174
 30
0.0
 10
3260.898608
 20
4796.371897
 30
0.0
 10
3242.083646
 20
4795.287645
 30
0.0
 10
3223.268682
 20
4794.798669
 30
0.0
 10
3204.432461
 20
4794.522291
 30
0.0
 10
3185.596241
 20
4794.394732
 30
0.0
 10
3166.760020
 20
4794.309693
 30
0.0
 10
3147.902536
 20
4794.288433
 30
0.0
 10
3129.066315
 20
4794.267174
 30
0.0
 10
3110.230095
 20
4794.288433
 30
0.0
 10
3091.393874
 20
4794.309693
 30
0.0
 10
3072.557653
 20
4794.394732
 30
0.0
 10
3053.721429
 20
4794.522291
 30
0.0
 10
3034.885208
 20
4794.798669
 30
0.0
 10
3016.070247
 20
4795.287645
 30
0.0
 10
2997.255286
 20
4796.371897
 30
0.0
 10
2980.587568
 20
4802.367174
 30
0.0
 10
2967.916701
 20
4809.446702
 30
0.0
 10
2951.993077
 20
4810.339615
 30
0.0
 10
2936.048194
 20
4810.509694
 30
0.0
 10
2916.000163
 20
4810.679773
 30
0.0
 10
2895.952131
 20
4811.232529
 30
0.0
 10
2875.925357
 20
4812.231741
 30
0.0
 10
2855.919845
 20
4813.911268
 30
0.0
 10
2836.084408
 20
4816.760086
 30
0.0
 10
2818.608817
 20
4824.753788
 30
0.0
 10
2805.108818
 20
4832.065048
 30
0.0
 10
2791.608816
 20
4837.465049
 30
0.0
 10
2775.408815
 20
4842.865051
 30
0.0
 10
2759.230074
 20
4850.962922
 30
0.0
 10
2748.430074
 20
4859.062923
 30
0.0
 10
2737.630075
 20
4850.962922
 30
0.0
 10
2729.530074
 20
4842.865051
 30
0.0
 10
2721.430073
 20
4829.367175
 30
0.0
 10
2728.828499
 20
4815.867173
 30
0.0
 10
2736.928500
 20
4803.876622
 30
0.0
 10
2739.819838
 20
4788.867172
 30
0.0
 10
2742.689915
 20
4773.623864
 30
0.0
 10
2751.300152
 20
4761.867171
 30
0.0
 10
2759.230074
 20
4748.367169
 30
0.0
 10
2764.630075
 20
4734.888430
 30
0.0
 10
2770.008817
 20
4724.088427
 30
0.0
 10
2778.108817
 20
4713.288427
 30
0.0
 10
2785.422201
 20
4704.082916
 30
0.0
 10
2786.208818
 20
4691.178192
 30
0.0
 10
2787.335589
 20
4676.338820
 30
0.0
 10
2797.008818
 20
4666.261655
 30
0.0
 10
2807.808817
 20
4650.550630
 30
0.0
 10
2813.208819
 20
4637.688423
 30
0.0
 10
2818.608817
 20
4626.888423
 30
0.0
 10
2826.028503
 20
4616.088424
 30
0.0
 10
2833.788346
 20
4606.819132
 30
0.0
 10
2836.892285
 20
4594.488421
 30
0.0
 10
2839.996221
 20
4581.881335
 30
0.0
 10
2848.372600
 20
4572.888419
 30
0.0
 10
2856.408821
 20
4562.109679
 30
0.0
 10
2861.808819
 20
4551.309679
 30
0.0
 10
2867.208821
 20
4538.426213
 30
0.0
 10
2878.008821
 20
4522.736450
 30
0.0
 10
2886.555278
 20
4516.464795
 30
0.0
 10
2888.808823
 20
4505.919914
 30
0.0
 10
2896.908824
 20
4491.909675
 30
0.0
 10
2905.008824
 20
4483.809675
 30
0.0
 10
2910.408823
 20
4475.709675
 30
0.0
 10
2915.808824
 20
4464.909675
 30
0.0
 10
2924.780478
 20
4454.832507
 30
0.0
 10
2940.087566
 20
4454.109672
 30
0.0
 10
2952.248195
 20
4454.109672
 30
0.0
 10
2964.387568
 20
4454.109672
 30
0.0
 10
2964.387568
 20
4439.270303
 30
0.0
 10
2964.387568
 20
4424.409672
 30
0.0
 10
2965.004103
 20
4408.060852
 30
0.0
 10
2971.892293
 20
4394.730928
 30
0.0
 10
2979.567094
 20
4386.822267
 30
0.0
 10
2982.926151
 20
4375.830928
 30
0.0
 10
2985.838748
 20
4365.371086
 30
0.0
 10
2992.025364
 20
4356.930928
 30
0.0
 10
3005.270248
 20
4349.043526
 30
0.0
 10
3012.987568
 20
4335.713602
 30
0.0
 10
3020.407254
 20
4329.930927
 30
0.0
 10
3031.079698
 20
4313.730926
 30
0.0
 10
3042.560012
 20
4297.530925
 30
0.0
 10
3050.787572
 20
4289.537223
 30
0.0
 10
3063.819854
 20
4278.269508
 30
0.0
 10
3074.152141
 20
4272.295490
 30
0.0
 10
3080.104895
 20
4261.963207
 30
0.0
 10
3091.372614
 20
4248.930921
 30
0.0
 10
3099.387575
 20
4238.130921
 30
0.0
 10
3104.787573
 20
4227.352179
 30
0.0
 10
3110.166315
 20
4219.252181
 30
0.0
 10
3118.181277
 20
4211.152181
 30
0.0
 10
3129.448992
 20
4198.119895
 30
0.0
 10
3135.401750
 20
4187.787612
 30
0.0
 10
3145.734033
 20
4181.813595
 30
0.0
 10
3158.766318
 20
4170.545878
 30
0.0
 10
3166.760020
 20
4162.552177
 30
0.0
 10
3178.027736
 20
4149.519891
 30
0.0
 10
3184.001753
 20
4139.187609
 30
0.0
 10
3194.334036
 20
4133.213592
 30
0.0
 10
3207.366319
 20
4121.945875
 30
0.0
 10
3215.360021
 20
4113.952174
 30
0.0
 10
3226.755298
 20
4100.452172
 30
0.0
 10
3232.112777
 20
4090.268707
 30
0.0
 10
3243.040339
 20
4086.952173
 30
0.0
 10
3255.966322
 20
4076.152173
 30
0.0
 10
3266.766325
 20
4065.352171
 30
0.0
 10
3277.566325
 20
4059.952172
 30
0.0
 10
3285.645066
 20
4054.573430
 30
0.0
 10
3293.745066
 20
4043.773430
 30
0.0
 10
3307.245065
 20
4032.973428
 30
0.0
 10
3320.745067
 20
4024.873427
 30
0.0
 10
3331.545066
 20
4016.773430
 30
0.0
 10
3342.345069
 20
4024.873427
 30
0.0
 10
3358.460028
 20
4031.719098
 30
0.0
 10
3377.381292
 20
4032.633271
 30
0.0
 10
3396.302552
 20
4032.909649
 30
0.0
 10
3415.245071
 20
4032.973428
 30
0.0
 10
3434.187592
 20
4032.909649
 30
0.0
 10
3453.108854
 20
4032.633271
 30
0.0
 10
3472.030115
 20
4031.719098
 30
0.0
 10
3488.123817
 20
4024.873427
 30
0.0
 10
3501.623816
 20
4016.773430
 30
0.0
 10
3515.123818
 20
4011.373428
 30
0.0
 10
3525.923818
 20
4005.973428
 30
0.0
 10
3536.723820
 20
3997.979726
 30
0.0
 10
3549.756103
 20
3986.712009
 30
0.0
 10
3560.088386
 20
3980.737993
 30
0.0
 10
3566.062403
 20
3970.405709
 30
0.0
 10
3577.330120
 20
3957.373424
 30
0.0
 10
3585.323821
 20
3949.273426
 30
0.0
 10
3590.723822
 20
3941.173425
 30
0.0
 10
3596.123823
 20
3930.373423
 30
0.0
 10
3603.500986
 20
3919.573423
 30
0.0
 10
3612.876580
 20
3904.585232
 30
0.0
 10
3615.427761
 20
3885.855311
 30
0.0
 10
3616.639571
 20
3866.976570
 30
0.0
 10
3617.256106
 20
3848.076570
 30
0.0
 10
3617.553744
 20
3829.155307
 30
0.0
 10
3617.660043
 20
3810.234047
 30
0.0
 10
3617.660043
 20
3793.034834
 30
0.0
 10
3617.681304
 20
3775.814360
 30
0.0
 10
3617.702563
 20
3758.615146
 30
0.0
 10
3617.723823
 20
3741.394674
 30
0.0
 10
3631.202565
 20
3741.394674
 30
0.0
 10
3644.702564
 20
3733.294673
 30
0.0
 10
3652.696266
 20
3725.194672
 30
0.0
 10
3664.091543
 20
3711.673410
 30
0.0
 10
3672.871859
 20
3699.130104
 30
0.0
 10
3688.072648
 20
3694.856874
 30
0.0
 10
3702.954536
 20
3690.711206
 30
0.0
 10
3711.883671
 20
3678.678133
 30
0.0
 10
3723.108869
 20
3665.815929
 30
0.0
 10
3731.102571
 20
3657.567109
 30
0.0
 10
3747.302572
 20
3646.108054
 30
0.0
 10
3763.502570
 20
3635.435611
 30
0.0
 10
3769.285249
 20
3628.015925
 30
0.0
 10
3782.508873
 20
3620.404901
 30
0.0
 10
3790.481314
 20
3607.415138
 30
0.0
 10
3799.006512
 20
3601.483641
 30
0.0
 10
3809.381314
 20
3598.677343
 30
0.0
 10
3819.841157
 20
3595.786005
 30
0.0
 10
3828.281315
 20
3589.599389
 30
0.0
 10
3836.168717
 20
3576.354506
 30
0.0
 10
3849.498640
 20
3568.615922
 30
0.0
 10
3855.281316
 20
3560.515922
 30
0.0
 10
3866.081319
 20
3552.415921
 30
0.0
 10
3876.881319
 20
3543.933243
 30
0.0
 10
3883.748249
 20
3528.945056
 30
0.0
 10
3897.460846
 20
3520.037181
 30
0.0
 10
3905.390767
 20
3507.451353
 30
0.0
 10
3905.114390
 20
3491.676548
 30
0.0
 10
3889.977381
 20
3482.237178
 30
0.0
 10
3876.881319
 20
3476.837177
 30
0.0
 10
3857.981318
 20
3471.437178
 30
0.0
 10
3847.032496
 20
3470.480485
 30
0.0
 10
3839.081315
 20
3464.145051
 30
0.0
 10
3821.520684
 20
3456.810405
 30
0.0
 10
3801.919109
 20
3454.152925
 30
0.0
 10
3782.189975
 20
3452.494658
 30
0.0
 10
3762.439578
 20
3451.367884
 30
0.0
 10
3742.646665
 20
3450.623789
 30
0.0
 10
3722.853752
 20
3450.156073
 30
0.0
 10
3703.060835
 20
3449.922215
 30
0.0
 10
3683.267922
 20
3449.900955
 30
0.0
 10
3663.475008
 20
3450.071033
 30
0.0
 10
3643.682092
 20
3450.411191
 30
0.0
 10
3623.910438
 20
3450.900167
 30
0.0
 10
3604.117524
 20
3451.559222
 30
0.0
 10
3584.345868
 20
3452.388359
 30
0.0
 10
3564.574215
 20
3453.366311
 30
0.0
 10
3547.566340
 20
3454.365524
 30
0.0
 10
3530.579725
 20
3455.641114
 30
0.0
 10
3513.656889
 20
3457.618278
 30
0.0
 10
3498.923817
 20
3464.166311
 30
0.0
 10
3481.341926
 20
3470.905682
 30
0.0
 10
3461.123816
 20
3471.437178
 30
0.0
 10
3441.671057
 20
3472.160012
 30
0.0
 10
3423.345072
 20
3476.837177
 30
0.0
 10
3411.886017
 20
3481.408044
 30
0.0
 10
3399.045071
 20
3482.237178
 30
0.0
 10
3385.056095
 20
3482.960012
 30
0.0
 10
3374.745069
 20
3490.337178
 30
0.0
 10
3359.289165
 20
3498.437179
 30
0.0
 10
3339.007273
 20
3499.627730
 30
0.0
 10
3318.810422
 20
3501.860013
 30
0.0
 10
3306.288373
 20
3503.582062
 30
0.0
 10
3293.745066
 20
3505.304109
 30
0.0
 10
3293.745066
 20
3492.782060
 30
0.0
 10
3293.745066
 20
3480.260013
 30
0.0
 10
3294.574200
 20
3467.078908
 30
0.0
 10
3299.145064
 20
3455.237177
 30
0.0
 10
3304.545066
 20
3444.437177
 30
0.0
 10
3312.645067
 20
3433.637175
 30
0.0
 10
3320.745067
 20
3419.626939
 30
0.0
 10
3322.998610
 20
3409.082055
 30
0.0
 10
3331.545066
 20
3402.810403
 30
0.0
 10
3342.345069
 20
3387.120638
 30
0.0
 10
3347.745068
 20
3374.258431
 30
0.0
 10
3353.145069
 20
3363.458431
 30
0.0
 10
3361.181290
 20
3352.658431
 30
0.0
 10
3369.557669
 20
3343.665518
 30
0.0
 10
3372.661605
 20
3331.058429
 30
0.0
 10
3375.765541
 20
3318.727721
 30
0.0
 10
3383.525384
 20
3309.458429
 30
0.0
 10
3390.945070
 20
3300.975752
 30
0.0
 10
3397.812000
 20
3285.966301
 30
0.0
 10
3411.545860
 20
3277.058427
 30
0.0
 10
3417.477354
 20
3268.533230
 30
0.0
 10
3420.283656
 20
3258.158427
 30
0.0
 10
3423.834049
 20
3239.258423
 30
0.0
 10
3442.606490
 20
3239.258423
 30
0.0
 10
3461.378934
 20
3239.258423
 30
0.0
 10
3480.704131
 20
3238.535589
 30
0.0
 10
3498.923817
 20
3233.858425
 30
0.0
 10
3517.823817
 20
3228.458424
 30
0.0
 10
3529.155316
 20
3227.501731
 30
0.0
 10
3536.723820
 20
3220.358423
 30
0.0
 10
3550.734055
 20
3212.258423
 30
0.0
 10
3561.278938
 20
3210.026140
 30
0.0
 10
3567.550592
 20
3201.479683
 30
0.0
 10
3583.240357
 20
3190.679683
 30
0.0
 10
3596.123823
 20
3185.279682
 30
0.0
 10
3603.607288
 20
3179.879680
 30
0.0
 10
3611.282089
 20
3171.971019
 30
0.0
 10
3614.662407
 20
3160.979680
 30
0.0
 10
3618.042720
 20
3149.818263
 30
0.0
 10
3626.057682
 20
3142.079679
 30
0.0
 10
3633.902565
 20
3128.579678
 30
0.0
 10
3639.302565
 20
3115.079679
 30
0.0
 10
3644.702564
 20
3104.279676
 30
0.0
 10
3652.802565
 20
3093.479677
 30
0.0
 10
3659.584456
 20
3080.192273
 30
0.0
 10
3660.562408
 20
3063.949752
 30
0.0
 10
3660.838786
 20
3047.664715
 30
0.0
 10
3660.902565
 20
3031.400934
 30
0.0
 10
3660.838786
 20
3015.115893
 30
0.0
 10
3660.562408
 20
2998.830853
 30
0.0
 10
3659.584456
 20
2982.588332
 30
0.0
 10
3652.802565
 20
2969.300928
 30
0.0
 10
3644.702564
 20
2953.100927
 30
0.0
 10
3639.302565
 20
2936.900926
 30
0.0
 10
3635.348233
 20
2926.228485
 30
0.0
 10
3646.934850
 20
2917.639509
 30
0.0
 10
3657.267133
 20
2911.665492
 30
0.0
 10
3663.241150
 20
2901.333208
 30
0.0
 10
3674.508866
 20
2888.300925
 30
0.0
 10
3682.502568
 20
2877.500923
 30
0.0
 10
3687.902569
 20
2866.700923
 30
0.0
 10
3693.302567
 20
2858.622183
 30
0.0
 10
3701.296269
 20
2850.522182
 30
0.0
 10
3712.563985
 20
2837.489899
 30
0.0
 10
3718.538002
 20
2827.157613
 30
0.0
 10
3728.870285
 20
2821.183599
 30
0.0
 10
3741.902571
 20
2809.915880
 30
0.0
 10
3749.896272
 20
2801.922178
 30
0.0
 10
3761.163988
 20
2788.889896
 30
0.0
 10
3767.138005
 20
2778.557613
 30
0.0
 10
3777.470289
 20
2772.583596
 30
0.0
 10
3790.481314
 20
2761.315879
 30
0.0
 10
3798.581315
 20
2753.322178
 30
0.0
 10
3806.681315
 20
2747.922177
 30
0.0
 10
3817.481315
 20
2742.522176
 30
0.0
 10
3828.281315
 20
2731.722176
 30
0.0
 10
3841.207301
 20
2720.922176
 30
0.0
 10
3852.134860
 20
2717.626899
 30
0.0
 10
3857.492342
 20
2707.422174
 30
0.0
 10
3868.887617
 20
2693.943434
 30
0.0
 10
3876.881319
 20
2685.928473
 30
0.0
 10
3890.381320
 20
2674.554456
 30
0.0
 10
3903.881319
 20
2663.648156
 30
0.0
 10
3912.363997
 20
2656.143431
 30
0.0
 10
3927.479746
 20
2649.170202
 30
0.0
 10
3936.281322
 20
2635.181227
 30
0.0
 10
3944.700220
 20
2628.973351
 30
0.0
 10
3955.181322
 20
2626.082013
 30
0.0
 10
3965.556125
 20
2623.275712
 30
0.0
 10
3974.060063
 20
2617.365478
 30
0.0
 10
3982.053764
 20
2604.354452
 30
0.0
 10
3995.277388
 20
2596.743428
 30
0.0
 10
4001.060066
 20
2588.133191
 30
0.0
 10
4011.860066
 20
2576.716656
 30
0.0
 10
4022.660066
 20
2566.426890
 30
0.0
 10
4036.053769
 20
2558.943427
 30
0.0
 10
4047.321485
 20
2555.796969
 30
0.0
 10
4052.849045
 20
2545.422166
 30
0.0
 10
4061.629361
 20
2532.857596
 30
0.0
 10
4076.830150
 20
2528.605629
 30
0.0
 10
4091.712038
 20
2524.459958
 30
0.0
 10
4100.619912
 20
2512.426888
 30
0.0
 10
4111.845112
 20
2499.564684
 30
0.0
 10
4119.860073
 20
2491.315865
 30
0.0
 10
4136.038814
 20
2479.856807
 30
0.0
 10
4152.238815
 20
2469.184366
 30
0.0
 10
4158.021491
 20
2461.764680
 30
0.0
 10
4171.245114
 20
2454.153656
 30
0.0
 10
4179.238816
 20
2441.185153
 30
0.0
 10
4190.378973
 20
2433.106412
 30
0.0
 10
4200.052202
 20
2422.476488
 30
0.0
 10
4199.818344
 20
2406.829245
 30
0.0
 10
4198.989210
 20
2395.157590
 30
0.0
 10
4198.138816
 20
2383.464677
 30
0.0
 10
4185.319132
 20
2382.656803
 30
0.0
 10
4172.499445
 20
2381.827669
 30
0.0
 10
4157.957711
 20
2380.105620
 30
0.0
 10
4146.838814
 20
2372.367036
 30
0.0
 10
4129.512041
 20
2365.074912
 30
0.0
 10
4109.060070
 20
2364.564676
 30
0.0
 10
4089.607314
 20
2363.863099
 30
0.0
 10
4071.260069
 20
2359.164675
 30
0.0
 10
4052.062431
 20
2354.997744
 30
0.0
 10
4031.971877
 20
2354.019792
 30
0.0
 10
4011.860066
 20
2353.785933
 30
0.0
 10
3991.046677
 20
2353.658375
 30
0.0
 10
3970.254552
 20
2352.893020
 30
0.0
 10
3952.481323
 20
2345.685933
 30
0.0
 10
3935.282110
 20
2338.053649
 30
0.0
 10
3914.681319
 20
2337.585933
 30
0.0
 10
3894.080532
 20
2338.053649
 30
0.0
 10
3876.881319
 20
2345.685933
 30
0.0
 10
3858.682893
 20
2352.574123
 30
0.0
 10
3837.763205
 20
2353.467036
 30
0.0
 10
3816.822260
 20
2353.722154
 30
0.0
 10
3795.881313
 20
2353.785933
 30
0.0
 10
3774.834069
 20
2353.722154
 30
0.0
 10
3753.786822
 20
2353.488296
 30
0.0
 10
3732.739578
 20
2352.616642
 30
0.0
 10
3714.902570
 20
2345.175697
 30
0.0
 10
3704.102567
 20
2333.737902
 30
0.0
 10
3693.302567
 20
2325.765460
 30
0.0
 10
3685.308866
 20
2312.796955
 30
0.0
 10
3672.085245
 20
2305.185930
 30
0.0
 10
3666.302567
 20
2296.575694
 30
0.0
 10
3655.502567
 20
2285.159159
 30
0.0
 10
3644.702564
 20
2274.848135
 30
0.0
 10
3639.302565
 20
2267.385930
 30
0.0
 10
3633.902565
 20
2253.885928
 30
0.0
 10
3639.302565
 20
2240.385928
 30
0.0
 10
3644.702564
 20
2229.585926
 30
0.0
 10
3652.186030
 20
2218.785926
 30
0.0
 10
3660.519888
 20
2205.477265
 30
0.0
 10
3663.368709
 20
2189.085926
 30
0.0
 10
3666.217527
 20
2172.609547
 30
0.0
 10
3674.785244
 20
2159.407183
 30
0.0
 10
3682.502568
 20
2148.607183
 30
0.0
 10
3687.902569
 20
2137.807183
 30
0.0
 10
3692.473434
 20
2127.751275
 30
0.0
 10
3693.302567
 20
2116.207181
 30
0.0
 10
3694.131701
 20
2103.536315
 30
0.0
 10
3701.402568
 20
2094.607179
 30
0.0
 10
3709.502569
 20
2083.807179
 30
0.0
 10
3701.402568
 20
2073.007179
 30
0.0
 10
3693.302567
 20
2067.607177
 30
0.0
 10
3677.102566
 20
2062.207179
 30
0.0
 10
3660.902565
 20
2067.607177
 30
0.0
 10
3647.402566
 20
2073.007179
 30
0.0
 10
3633.902565
 20
2080.788282
 30
0.0
 10
3623.463982
 20
2089.143400
 30
0.0
 10
3609.623823
 20
2092.183557
 30
0.0
 10
3595.889965
 20
2095.244976
 30
0.0
 10
3585.323821
 20
2103.323717
 30
0.0
 10
3574.523821
 20
2110.807179
 30
0.0
 10
3563.723821
 20
2116.207181
 30
0.0
 10
3550.223819
 20
2121.607182
 30
0.0
 10
3536.723820
 20
2129.026868
 30
0.0
 10
3525.647440
 20
2137.977262
 30
0.0
 10
3511.063189
 20
2141.123718
 30
0.0
 10
3496.287597
 20
2139.784348
 30
0.0
 10
3488.463974
 20
2125.348913
 30
0.0
 10
3493.523816
 20
2110.807179
 30
0.0
 10
3498.923817
 20
2100.007179
 30
0.0
 10
3506.407282
 20
2089.207180
 30
0.0
 10
3514.507283
 20
2078.619778
 30
0.0
 10
3517.547439
 20
2064.907178
 30
0.0
 10
3520.587598
 20
2051.067019
 30
0.0
 10
3528.963977
 20
2040.607176
 30
0.0
 10
3536.723820
 20
2032.507176
 30
0.0
 10
3542.123818
 20
2024.407175
 30
0.0
 10
3547.523820
 20
2010.928436
 30
0.0
 10
3555.283663
 20
1997.428434
 30
0.0
 10
3563.596262
 20
1987.202450
 30
0.0
 10
3566.636419
 20
1973.574889
 30
0.0
 10
3570.526972
 20
1956.907171
 30
0.0
 10
3583.155318
 20
1946.468589
 30
0.0
 10
3593.147443
 20
1940.877249
 30
0.0
 10
3596.123823
 20
1929.822131
 30
0.0
 10
3603.607288
 20
1916.428429
 30
0.0
 10
3611.282089
 20
1908.519767
 30
0.0
 10
3614.662407
 20
1897.528428
 30
0.0
 10
3618.042720
 20
1886.367011
 30
0.0
 10
3626.057682
 20
1878.628428
 30
0.0
 10
3633.902565
 20
1865.234725
 30
0.0
 10
3636.857682
 20
1854.222127
 30
0.0
 10
3646.786031
 20
1848.609528
 30
0.0
 10
3658.946660
 20
1839.425275
 30
0.0
 10
3663.049812
 20
1824.203226
 30
0.0
 10
3666.153748
 20
1811.808739
 30
0.0
 10
3674.466347
 20
1803.049683
 30
0.0
 10
3682.502568
 20
1794.567006
 30
0.0
 10
3689.390758
 20
1779.557555
 30
0.0
 10
3703.124615
 20
1770.649681
 30
0.0
 10
3709.034853
 20
1762.124484
 30
0.0
 10
3711.841151
 20
1751.749681
 30
0.0
 10
3714.732491
 20
1741.289838
 30
0.0
 10
3720.940363
 20
1732.849681
 30
0.0
 10
3734.929342
 20
1724.069365
 30
0.0
 10
3741.902571
 20
1708.932356
 30
0.0
 10
3749.407296
 20
1700.449678
 30
0.0
 10
3760.313595
 20
1686.949676
 30
0.0
 10
3771.687610
 20
1673.470937
 30
0.0
 10
3779.702572
 20
1665.370937
 30
0.0
 10
3785.102573
 20
1657.270936
 30
0.0
 10
3790.481314
 20
1646.470934
 30
0.0
 10
3798.496276
 20
1635.670934
 30
0.0
 10
3809.763992
 20
1622.638648
 30
0.0
 10
3815.716749
 20
1612.306365
 30
0.0
 10
3826.049032
 20
1606.332350
 30
0.0
 10
3839.081315
 20
1595.064632
 30
0.0
 10
3847.181316
 20
1587.070930
 30
0.0
 10
3855.281316
 20
1573.060695
 30
0.0
 10
3857.534862
 20
1562.515810
 30
0.0
 10
3866.081319
 20
1556.244159
 30
0.0
 10
3876.881319
 20
1548.250457
 30
0.0
 10
3884.875020
 20
1535.281951
 30
0.0
 10
3898.098641
 20
1527.670927
 30
0.0
 10
3903.881319
 20
1519.081950
 30
0.0
 10
3914.681319
 20
1507.644155
 30
0.0
 10
3925.481322
 20
1499.671714
 30
0.0
 10
3933.453763
 20
1486.703208
 30
0.0
 10
3946.677384
 20
1479.092184
 30
0.0
 10
3952.481323
 20
1470.481947
 30
0.0
 10
3963.260063
 20
1459.044152
 30
0.0
 10
3974.060063
 20
1451.071710
 30
0.0
 10
3982.053764
 20
1438.103207
 30
0.0
 10
3995.277388
 20
1430.492183
 30
0.0
 10
4001.060066
 20
1421.881946
 30
0.0
 10
4011.860066
 20
1410.465408
 30
0.0
 10
4022.660066
 20
1402.471707
 30
0.0
 10
4030.653767
 20
1389.503204
 30
0.0
 10
4043.877392
 20
1381.892180
 30
0.0
 10
4049.660067
 20
1373.303203
 30
0.0
 10
4060.460069
 20
1361.865408
 30
0.0
 10
4071.260069
 20
1353.892966
 30
0.0
 10
4079.041172
 20
1341.094539
 30
0.0
 10
4091.839597
 20
1333.313436
 30
0.0
 10
4099.812038
 20
1322.513436
 30
0.0
 10
4106.083693
 20
1313.966979
 30
0.0
 10
4116.649834
 20
1311.713436
 30
0.0
 10
4130.638813
 20
1303.613436
 30
0.0
 10
4138.653774
 20
1295.513436
 30
0.0
 10
4149.921490
 20
1282.481150
 30
0.0
 10
4155.874247
 20
1272.148866
 30
0.0
 10
4166.206530
 20
1266.174849
 30
0.0
 10
4179.238816
 20
1254.907133
 30
0.0
 10
4190.038816
 20
1246.913432
 30
0.0
 10
4200.838815
 20
1241.513430
 30
0.0
 10
4208.938816
 20
1236.113432
 30
0.0
 10
4217.038817
 20
1227.885873
 30
0.0
 10
4233.238818
 20
1216.405555
 30
0.0
 10
4249.438819
 20
1205.754374
 30
0.0
 10
4255.221497
 20
1198.313428
 30
0.0
 10
4268.551418
 20
1190.596105
 30
0.0
 10
4276.438820
 20
1177.351224
 30
0.0
 10
4284.857718
 20
1171.164609
 30
0.0
 10
4295.338823
 20
1168.273271
 30
0.0
 10
4305.713626
 20
1165.466970
 30
0.0
 10
4314.217564
 20
1159.535475
 30
0.0
 10
4323.125438
 20
1145.801616
 30
0.0
 10
4338.134888
 20
1138.934685
 30
0.0
 10
4346.617566
 20
1131.408700
 30
0.0
 10
4360.117565
 20
1120.502401
 30
0.0
 10
4373.617567
 20
1109.128386
 30
0.0
 10
4384.417567
 20
1101.134684
 30
0.0
 10
4395.217567
 20
1095.734683
 30
0.0
 10
4403.317567
 20
1090.334682
 30
0.0
 10
4411.417567
 20
1082.234681
 30
0.0
 10
4425.427806
 20
1074.134681
 30
0.0
 10
4435.972687
 20
1071.881138
 30
0.0
 10
4442.244342
 20
1063.334681
 30
0.0
 10
4457.934107
 20
1052.534681
 30
0.0
 10
4470.796311
 20
1047.134680
 30
0.0
 10
4478.896311
 20
1041.734681
 30
0.0
 10
4486.996312
 20
1034.314996
 30
0.0
 10
4503.196313
 20
1023.642552
 30
0.0
 10
4519.396314
 20
1012.183497
 30
0.0
 10
4530.196314
 20
1003.934678
 30
0.0
 10
4540.996316
 20
998.534676
 30
0.0
 10
4554.496316
 20
993.155937
 30
0.0
 10
4567.996318
 20
985.289796
 30
0.0
 10
4575.734901
 20
977.296094
 30
0.0
 10
4586.896318
 20
973.894520
 30
0.0
 10
4597.271121
 20
971.088219
 30
0.0
 10
4605.796318
 20
965.156722
 30
0.0
 10
4614.682933
 20
951.422864
 30
0.0
 10
4629.692383
 20
944.555935
 30
0.0
 10
4638.196321
 20
936.455934
 30
0.0
 10
4646.275061
 20
928.355933
 30
0.0
 10
4654.375062
 20
917.555933
 30
0.0
 10
4659.775063
 20
906.755934
 30
0.0
 10
4665.090022
 20
890.322074
 30
0.0
 10
4663.729393
 20
872.059866
 30
0.0
 10
4657.479001
 20
855.073251
 30
0.0
 10
4639.238052
 20
848.610261
 30
0.0
 10
4619.678998
 20
847.355930
 30
0.0
 10
4603.245138
 20
846.739392
 30
0.0
 10
4589.596317
 20
840.085063
 30
0.0
 10
4572.184506
 20
833.962228
 30
0.0
 10
4553.412064
 20
831.347268
 30
0.0
 10
4534.512063
 20
829.518919
 30
0.0
 10
4515.590803
 20
828.137030
 30
0.0
 10
4496.648281
 20
827.116557
 30
0.0
 10
4477.705761
 20
826.393723
 30
0.0
 10
4458.741981
 20
825.947267
 30
0.0
 10
4439.756941
 20
825.798448
 30
0.0
 10
4423.790798
 20
825.160653
 30
0.0
 10
4411.417567
 20
817.677188
 30
0.0
 10
4396.727018
 20
810.852777
 30
0.0
 10
4379.145127
 20
809.896085
 30
0.0
 10
4361.520714
 20
809.619707
 30
0.0
 10
4343.917564
 20
809.577187
 30
0.0
 10
4326.824649
 20
809.428368
 30
0.0
 10
4309.752995
 20
808.981911
 30
0.0
 10
4292.681341
 20
807.940180
 30
0.0
 10
4276.438820
 20
804.177185
 30
0.0
 10
4260.238819
 20
798.777187
 30
0.0
 10
4244.038817
 20
790.740966
 30
0.0
 10
4235.067164
 20
782.364588
 30
0.0
 10
4222.438818
 20
779.239389
 30
0.0
 10
4210.108107
 20
776.156713
 30
0.0
 10
4200.838815
 20
768.375609
 30
0.0
 10
4190.038816
 20
760.977183
 30
0.0
 10
4179.238816
 20
755.577185
 30
0.0
 10
4163.038815
 20
750.177183
 30
0.0
 10
4146.838814
 20
742.077183
 30
0.0
 10
4129.660860
 20
734.466158
 30
0.0
 10
4109.060070
 20
733.977183
 30
0.0
 10
4088.438023
 20
734.466158
 30
0.0
 10
4071.260069
 20
742.077183
 30
0.0
 10
4060.949046
 20
749.454349
 30
0.0
 10
4046.960068
 20
750.177183
 30
0.0
 10
4034.119123
 20
751.006317
 30
0.0
 10
4022.660066
 20
755.577185
 30
0.0
 10
4011.860066
 20
760.977183
 30
0.0
 10
4001.060066
 20
768.481908
 30
0.0
 10
3987.560064
 20
779.388207
 30
0.0
 10
3974.060063
 20
790.783485
 30
0.0
 10
3956.648251
 20
797.055140
 30
0.0
 10
3936.940376
 20
798.075612
 30
0.0
 10
3917.211243
 20
798.479549
 30
0.0
 10
3897.460846
 20
798.670888
 30
0.0
 10
3877.731712
 20
798.755927
 30
0.0
 10
3857.981318
 20
798.777187
 30
0.0
 10
3838.528559
 20
798.819707
 30
0.0
 10
3819.075803
 20
798.989786
 30
0.0
 10
3799.623047
 20
799.308683
 30
0.0
 10
3780.170288
 20
799.861438
 30
0.0
 10
3760.738792
 20
800.839391
 30
0.0
 10
3741.902571
 20
804.177185
 30
0.0
 10
3726.340365
 20
807.940180
 30
0.0
 10
3709.949025
 20
808.960652
 30
0.0
 10
3693.536426
 20
809.428368
 30
0.0
 10
3677.102566
 20
809.577187
 30
0.0
 10
3660.158471
 20
809.619707
 30
0.0
 10
3643.214375
 20
809.917344
 30
0.0
 10
3626.312800
 20
810.874037
 30
0.0
 10
3612.323824
 20
817.677188
 30
0.0
 10
3599.674216
 20
825.160653
 30
0.0
 10
3583.452955
 20
825.755928
 30
0.0
 10
3562.618310
 20
825.947267
 30
0.0
 10
3541.762402
 20
826.521282
 30
0.0
 10
3520.927756
 20
827.456715
 30
0.0
 10
3500.135628
 20
828.817345
 30
0.0
 10
3479.364761
 20
830.709473
 30
0.0
 10
3458.700192
 20
833.473251
 30
0.0
 10
3439.545074
 20
840.085063
 30
0.0
 10
3424.705702
 20
846.781912
 30
0.0
 10
3407.145071
 20
847.355930
 30
0.0
 10
3390.349794
 20
848.142544
 30
0.0
 10
3374.745069
 20
852.755929
 30
0.0
 10
3357.333257
 20
858.028371
 30
0.0
 10
3338.305697
 20
858.070891
 30
0.0
 10
3319.363178
 20
856.242545
 30
0.0
 10
3301.462390
 20
850.438606
 30
0.0
 10
3293.745066
 20
837.618919
 30
0.0
 10
3281.903331
 20
830.454355
 30
0.0
 10
3267.637978
 20
828.009470
 30
0.0
 10
3253.308843
 20
829.200022
 30
0.0
 10
3246.208054
 20
841.360654
 30
0.0
 10
3245.166322
 20
856.029946
 30
0.0
 10
3244.400969
 20
871.081913
 30
0.0
 10
3234.366322
 20
879.755930
 30
0.0
 10
3223.566320
 20
887.855930
 30
0.0
 10
3213.255296
 20
895.233097
 30
0.0
 10
3199.266321
 20
895.955931
 30
0.0
 10
3186.425374
 20
896.785065
 30
0.0
 10
3174.966320
 20
901.355932
 30
0.0
 10
3163.507262
 20
905.926797
 30
0.0
 10
3150.666318
 20
906.755934
 30
0.0
 10
3136.911198
 20
907.500028
 30
0.0
 10
3126.366316
 20
914.366955
 30
0.0
 10
3112.972614
 20
921.871680
 30
0.0
 10
3096.772612
 20
924.252785
 30
0.0
 10
3080.487572
 20
925.804753
 30
0.0
 10
3064.223794
 20
927.377981
 30
0.0
 10
3048.087573
 20
929.737823
 30
0.0
 10
3034.587571
 20
937.093729
 30
0.0
 10
3018.387570
 20
944.555935
 30
0.0
 10
3002.187568
 20
949.955936
 30
0.0
 10
2990.728514
 20
954.526801
 30
0.0
 10
2977.887567
 20
955.355934
 30
0.0
 10
2964.260009
 20
956.100029
 30
0.0
 10
2953.587565
 20
962.690581
 30
0.0
 10
2936.430871
 20
971.364597
 30
0.0
 10
2916.659218
 20
974.638614
 30
0.0
 10
2896.696225
 20
976.339402
 30
0.0
 10
2876.648191
 20
976.892157
 30
0.0
 10
2864.657640
 20
977.827590
 30
0.0
 10
2856.408821
 20
985.055937
 30
0.0
 10
2841.973386
 20
992.603182
 30
0.0
 10
2824.008819
 20
993.155937
 30
0.0
 10
2807.234802
 20
993.921292
 30
0.0
 10
2791.608816
 20
998.534676
 30
0.0
 10
2774.643461
 20
1003.211843
 30
0.0
 10
2756.530075
 20
1003.934678
 30
0.0
 10
2737.247397
 20
1004.444914
 30
0.0
 10
2721.430073
 20
1012.034679
 30
0.0
 10
2711.119050
 20
1019.411844
 30
0.0
 10
2697.130072
 20
1020.134679
 30
0.0
 10
2684.969442
 20
1020.134679
 30
0.0
 10
2672.830070
 20
1020.134679
 30
0.0
 10
2672.830070
 20
1007.995309
 30
0.0
 10
2672.830070
 20
995.834677
 30
0.0
 10
2673.552904
 20
981.866959
 30
0.0
 10
2680.930070
 20
971.555935
 30
0.0
 10
2688.158417
 20
963.285856
 30
0.0
 10
2689.072591
 20
951.295305
 30
0.0
 10
2689.455268
 20
932.118927
 30
0.0
 10
2690.560779
 20
912.985065
 30
0.0
 10
2692.495424
 20
893.893727
 30
0.0
 10
2695.641883
 20
874.993726
 30
0.0
 10
2703.316686
 20
858.155930
 30
0.0
 10
2709.885977
 20
847.483489
 30
0.0
 10
2710.630073
 20
833.855929
 30
0.0
 10
2711.437947
 20
821.036242
 30
0.0
 10
2716.030072
 20
809.577187
 30
0.0
 10
2720.622200
 20
795.333090
 30
0.0
 10
2721.430073
 20
779.877186
 30
0.0
 10
2722.046608
 20
763.570887
 30
0.0
 10
2728.828499
 20
750.177183
 30
0.0
 10
2736.333224
 20
732.021278
 30
0.0
 10
2738.565507
 20
711.441747
 30
0.0
 10
2740.074955
 20
690.777180
 30
0.0
 10
2741.584404
 20
670.070091
 30
0.0
 10
2743.816689
 20
649.405524
 30
0.0
 10
2751.576530
 20
631.398437
 30
0.0
 10
2758.485980
 20
620.874815
 30
0.0
 10
2759.230074
 20
607.098436
 30
0.0
 10
2760.037948
 20
594.257488
 30
0.0
 10
2764.630075
 20
582.798434
 30
0.0
 10
2770.008817
 20
574.698433
 30
0.0
 10
2780.319841
 20
567.321267
 30
0.0
 10
2794.308816
 20
566.598433
 30
0.0
 10
2807.149762
 20
565.769299
 30
0.0
 10
2818.608817
 20
561.198434
 30
0.0
 10
2832.321417
 20
557.137803
 30
0.0
 10
2847.054490
 20
556.074811
 30
0.0
 10
2861.808819
 20
555.798433
 30
0.0
 10
2877.115908
 20
555.628354
 30
0.0
 10
2892.380476
 20
554.714181
 30
0.0
 10
2905.008824
 20
548.357487
 30
0.0
 10
2922.888352
 20
541.405518
 30
0.0
 10
2942.978904
 20
539.407093
 30
0.0
 10
2963.133237
 20
538.067723
 30
0.0
 10
2983.287568
 20
536.983472
 30
0.0
 10
3003.484419
 20
535.920480
 30
0.0
 10
3023.638752
 20
534.581108
 30
0.0
 10
3043.750563
 20
532.582683
 30
0.0
 10
3061.587571
 20
525.545674
 30
0.0
 10
3077.660013
 20
518.551188
 30
0.0
 10
3096.687573
 20
517.998429
 30
0.0
 10
3114.800962
 20
517.254335
 30
0.0
 10
3131.766318
 20
512.598431
 30
0.0
 10
3147.392300
 20
507.985043
 30
0.0
 10
3164.166317
 20
507.198429
 30
0.0
 10
3181.854507
 20
506.624414
 30
0.0
 10
3196.566319
 20
499.672445
 30
0.0
 10
3210.959234
 20
492.210239
 30
0.0
 10
3228.009629
 20
489.871657
 30
0.0
 10
3245.166322
 20
488.298429
 30
0.0
 10
3262.301757
 20
486.746461
 30
0.0
 10
3279.373411
 20
484.407876
 30
0.0
 10
3293.745066
 20
476.945673
 30
0.0
 10
3307.096246
 20
470.036224
 30
0.0
 10
3323.445066
 20
469.419689
 30
0.0
 10
3338.900973
 20
468.611815
 30
0.0
 10
3353.145069
 20
464.019687
 30
0.0
 10
3364.604124
 20
459.427562
 30
0.0
 10
3377.445071
 20
458.619686
 30
0.0
 10
3391.434046
 20
457.896851
 30
0.0
 10
3401.745072
 20
450.519685
 30
0.0
 10
3411.673419
 20
443.163782
 30
0.0
 10
3425.279718
 20
442.419684
 30
0.0
 10
3444.583658
 20
441.930709
 30
0.0
 10
3463.802555
 20
440.336221
 30
0.0
 10
3482.830115
 20
437.125986
 30
0.0
 10
3498.923817
 20
428.175592
 30
0.0
 10
3509.596258
 20
421.563779
 30
0.0
 10
3523.223818
 20
420.819685
 30
0.0
 10
3536.064763
 20
419.990551
 30
0.0
 10
3547.523820
 20
415.419684
 30
0.0
 10
3558.982875
 20
410.848819
 30
0.0
 10
3571.823822
 20
410.019685
 30
0.0
 10
3585.621459
 20
409.296851
 30
0.0
 10
3596.123823
 20
402.281102
 30
0.0
 10
3608.539571
 20
394.755117
 30
0.0
 10
3623.867918
 20
392.352755
 30
0.0
 10
3639.302565
 20
390.800785
 30
0.0
 10
3654.652174
 20
389.227557
 30
0.0
 10
3669.895479
 20
386.825195
 30
0.0
 10
3682.502568
 20
379.618108
 30
0.0
 10
3698.702569
 20
372.219682
 30
0.0
 10
3714.902570
 20
366.819683
 30
0.0
 10
3724.958475
 20
362.270076
 30
0.0
 10
3736.502570
 20
361.419682
 30
0.0
 10
3748.960839
 20
360.590549
 30
0.0
 10
3758.102572
 20
353.744878
 30
0.0
 10
3774.068715
 20
345.049602
 30
0.0
 10
3793.181314
 20
342.328343
 30
0.0
 10
3812.230133
 20
339.607081
 30
0.0
 10
3828.281315
 20
331.103144
 30
0.0
 10
3841.781317
 20
323.619678
 30
0.0
 10
3855.281316
 20
318.219679
 30
0.0
 10
3866.081319
 20
312.840938
 30
0.0
 10
3876.881319
 20
305.336213
 30
0.0
 10
3887.468720
 20
297.257473
 30
0.0
 10
3901.181320
 20
294.217316
 30
0.0
 10
3914.213603
 20
291.411017
 30
0.0
 10
3925.481322
 20
285.118103
 30
0.0
 10
3933.368724
 20
271.936999
 30
0.0
 10
3946.677384
 20
264.240935
 30
0.0
 10
3952.481323
 20
255.630699
 30
0.0
 10
3963.260063
 20
244.214164
 30
0.0
 10
3974.060063
 20
233.903139
 30
0.0
 10
3987.708884
 20
226.440934
 30
0.0
 10
3999.890775
 20
222.486602
 30
0.0
 10
4004.567939
 20
210.240933
 30
0.0
 10
4015.240380
 20
194.040932
 30
0.0
 10
4022.660066
 20
188.258253
 30
0.0
 10
4030.228571
 20
175.077152
 30
0.0
 10
4043.112037
 20
167.040931
 30
0.0
 10
4049.808886
 20
149.310221
 30
0.0
 10
4052.360069
 20
129.899982
 30
0.0
 10
4053.869517
 20
110.362187
 30
0.0
 10
4054.719911
 20
90.803132
 30
0.0
 10
4055.017549
 20
71.201554
 30
0.0
 10
4055.038808
 20
51.642499
 30
0.0
 10
4055.060068
 20
32.062184
 30
0.0
 10
4037.520697
 20
32.062184
 30
0.0
 10
4019.960067
 20
32.062184
 30
0.0
 10
4000.677389
 20
32.572420
 30
0.0
 10
3984.860065
 20
40.162184
 30
0.0
 10
3992.960066
 20
48.262184
 30
0.0
 10
4000.422271
 20
59.955097
 30
0.0
 10
4001.060066
 20
75.262186
 30
0.0
 10
4000.422271
 20
90.569273
 30
0.0
 10
3992.960066
 20
102.262186
 30
0.0
 10
3984.860065
 20
115.762189
 30
0.0
 10
3979.460064
 20
129.262187
 30
0.0
 10
3974.060063
 20
140.062190
 30
0.0
 10
3966.555341
 20
150.840930
 30
0.0
 10
3955.649039
 20
164.340929
 30
0.0
 10
3944.275023
 20
177.840931
 30
0.0
 10
3936.281322
 20
186.089751
 30
0.0
 10
3920.081321
 20
197.548805
 30
0.0
 10
3903.881319
 20
208.221248
 30
0.0
 10
3895.781319
 20
215.640935
 30
0.0
 10
3887.681319
 20
221.040933
 30
0.0
 10
3874.181319
 20
226.440934
 30
0.0
 10
3860.681317
 20
233.860620
 30
0.0
 10
3844.481317
 20
244.533061
 30
0.0
 10
3828.281315
 20
255.992115
 30
0.0
 10
3820.776590
 20
263.262982
 30
0.0
 10
3809.381314
 20
264.240935
 30
0.0
 10
3790.502574
 20
269.640936
 30
0.0
 10
3777.002572
 20
275.040938
 30
0.0
 10
3763.502570
 20
282.694481
 30
0.0
 10
3747.536431
 20
291.411017
 30
0.0
 10
3728.402569
 20
294.132277
 30
0.0
 10
3709.353749
 20
296.853535
 30
0.0
 10
3693.302567
 20
305.357473
 30
0.0
 10
3682.693906
 20
312.096844
 30
0.0
 10
3669.002566
 20
312.840938
 30
0.0
 10
3656.161622
 20
313.648813
 30
0.0
 10
3644.702564
 20
318.219679
 30
0.0
 10
3630.479731
 20
322.833065
 30
0.0
 10
3615.023823
 20
323.619678
 30
0.0
 10
3598.717524
 20
324.257473
 30
0.0
 10
3585.323821
 20
331.039364
 30
0.0
 10
3567.167915
 20
338.544090
 30
0.0
 10
3546.588387
 20
340.776372
 30
0.0
 10
3525.923818
 20
342.285823
 30
0.0
 10
3505.195471
 20
343.795272
 30
0.0
 10
3484.552161
 20
346.006295
 30
0.0
 10
3466.523814
 20
353.787398
 30
0.0
 10
3456.000193
 20
360.696848
 30
0.0
 10
3442.245073
 20
361.419682
 30
0.0
 10
3429.404129
 20
362.248815
 30
0.0
 10
3417.945071
 20
366.819683
 30
0.0
 10
3406.486016
 20
371.411808
 30
0.0
 10
3393.645072
 20
372.219682
 30
0.0
 10
3379.932472
 20
372.963776
 30
0.0
 10
3369.345070
 20
379.745667
 30
0.0
 10
3354.952156
 20
387.229132
 30
0.0
 10
3337.901761
 20
389.567714
 30
0.0
 10
3320.745067
 20
391.119682
 30
0.0
 10
3303.609633
 20
392.671653
 30
0.0
 10
3286.537979
 20
395.010235
 30
0.0
 10
3272.166323
 20
402.493701
 30
0.0
 10
3261.578922
 20
409.275591
 30
0.0
 10
3247.866322
 20
410.019685
 30
0.0
 10
3235.025377
 20
410.848819
 30
0.0
 10
3223.566320
 20
415.419684
 30
0.0
 10
3212.107265
 20
419.990551
 30
0.0
 10
3199.266321
 20
420.819685
 30
0.0
 10
3185.553721
 20
421.563779
 30
0.0
 10
3174.966320
 20
428.345670
 30
0.0
 10
3160.594665
 20
435.807875
 30
0.0
 10
3143.523010
 20
438.167717
 30
0.0
 10
3126.366316
 20
439.719685
 30
0.0
 10
3109.230883
 20
441.271654
 30
0.0
 10
3092.180488
 20
443.610239
 30
0.0
 10
3077.787573
 20
451.093703
 30
0.0
 10
3067.200171
 20
457.875592
 30
0.0
 10
3053.487571
 20
458.619686
 30
0.0
 10
3040.646627
 20
459.427562
 30
0.0
 10
3029.187569
 20
464.019687
 30
0.0
 10
3017.728514
 20
468.590555
 30
0.0
 10
3004.887568
 20
469.419689
 30
0.0
 10
2991.174970
 20
470.142523
 30
0.0
 10
2980.587568
 20
476.945673
 30
0.0
 10
2966.215913
 20
484.407876
 30
0.0
 10
2949.144259
 20
486.746461
 30
0.0
 10
2932.008825
 20
488.298429
 30
0.0
 10
2914.852131
 20
489.850397
 30
0.0
 10
2897.801737
 20
492.210239
 30
0.0
 10
2883.408821
 20
499.672445
 30
0.0
 10
2872.821420
 20
506.475595
 30
0.0
 10
2859.108820
 20
507.198429
 30
0.0
 10
2846.267876
 20
508.027563
 30
0.0
 10
2834.808819
 20
512.598431
 30
0.0
 10
2819.204093
 20
517.233075
 30
0.0
 10
2802.408816
 20
517.998429
 30
0.0
 10
2781.722990
 20
517.530713
 30
0.0
 10
2770.030077
 20
504.498430
 30
0.0
 10
2777.364720
 20
490.998429
 30
0.0
 10
2783.827713
 20
477.051972
 30
0.0
 10
2785.592280
 20
460.830711
 30
0.0
 10
2786.676534
 20
444.545671
 30
0.0
 10
2787.484408
 20
428.239371
 30
0.0
 10
2788.164723
 20
410.147244
 30
0.0
 10
2788.589920
 20
392.055118
 30
0.0
 10
2788.696219
 20
373.941728
 30
0.0
 10
2787.739526
 20
355.892122
 30
0.0
 10
2776.450547
 20
346.240153
 30
0.0
 10
2761.441100
 20
342.732280
 30
0.0
 10
2747.834799
 20
339.713380
 30
0.0
 10
2737.630075
 20
331.400781
 30
0.0
 10
2724.130072
 20
323.619678
 30
0.0
 10
2710.630073
 20
318.219679
 30
0.0
 10
2691.730070
 20
312.840938
 30
0.0
 10
2680.759992
 20
311.862986
 30
0.0
 10
2672.830070
 20
305.463772
 30
0.0
 10
2658.607233
 20
297.087394
 30
0.0
 10
2641.684398
 20
293.664560
 30
0.0
 10
2624.527704
 20
291.836214
 30
0.0
 10
2607.285971
 20
291.240939
 30
0.0
 10
2591.851324
 20
283.140938
 30
0.0
 10
2581.540301
 20
275.763772
 30
0.0
 10
2567.551326
 20
275.040938
 30
0.0
 10
2554.710378
 20
274.211804
 30
0.0
 10
2543.251323
 20
269.640936
 30
0.0
 10
2523.777305
 20
266.622039
 30
0.0
 10
2503.814312
 20
265.686606
 30
0.0
 10
2483.851321
 20
265.133848
 30
0.0
 10
2463.867065
 20
264.751171
 30
0.0
 10
2443.904074
 20
264.496053
 30
0.0
 10
2423.919821
 20
264.347234
 30
0.0
 10
2403.956826
 20
264.262195
 30
0.0
 10
2383.972574
 20
264.240935
 30
0.0
 10
2363.988319
 20
264.262195
 30
0.0
 10
2344.004067
 20
264.347234
 30
0.0
 10
2324.041075
 20
264.496053
 30
0.0
 10
2304.056820
 20
264.751171
 30
0.0
 10
2284.093828
 20
265.133848
 30
0.0
 10
2264.130836
 20
265.686606
 30
0.0
 10
2244.167841
 20
266.622039
 30
0.0
 10
2224.693825
 20
269.640936
 30
0.0
 10
2209.089099
 20
274.254324
 30
0.0
 10
2192.293822
 20
275.040938
 30
0.0
 10
2174.329255
 20
275.572433
 30
0.0
 10
2159.893820
 20
283.140938
 30
0.0
 10
2144.459173
 20
291.240939
 30
0.0
 10
2127.217440
 20
291.836214
 30
0.0
 10
2110.045865
 20
293.664560
 30
0.0
 10
2093.142163
 20
297.087394
 30
0.0
 10
2078.906573
 20
305.463772
 30
0.0
 10
2070.985156
 20
311.862986
 30
0.0
 10
2060.008696
 20
312.840938
 30
0.0
 10
2041.110822
 20
318.219679
 30
0.0
 10
2024.912947
 20
323.619678
 30
0.0
 10
2010.622082
 20
327.382672
 30
0.0
 10
2008.715072
 20
342.519682
 30
0.0
 10
2007.752001
 20
353.851177
 30
0.0
 10
2000.615071
 20
361.419682
 30
0.0
 10
1994.030900
 20
377.279526
 30
0.0
 10
1993.035936
 20
395.775589
 30
0.0
 10
1992.678771
 20
414.271652
 30
0.0
 10
1992.546960
 20
432.788976
 30
0.0
 10
1992.517197
 20
451.285042
 30
0.0
 10
1992.517197
 20
469.270869
 30
0.0
 10
1992.517197
 20
487.235437
 30
0.0
 10
1992.517197
 20
505.221265
 30
0.0
 10
1992.517197
 20
523.185832
 30
0.0
 10
1992.517197
 20
541.171659
 30
0.0
 10
1974.293259
 20
539.449613
 30
0.0
 10
1956.071447
 20
537.727566
 30
0.0
 10
1939.892706
 20
536.303157
 30
0.0
 10
1923.694831
 20
535.070083
 30
0.0
 10
1907.477822
 20
534.240950
 30
0.0
 10
1895.327822
 20
526.098430
 30
0.0
 10
1882.265773
 20
518.593708
 30
0.0
 10
1865.632072
 20
517.998429
 30
0.0
 10
1850.174038
 20
517.211815
 30
0.0
 10
1835.936324
 20
512.598431
 30
0.0
 10
1817.038449
 20
507.198429
 30
0.0
 10
1805.713329
 20
506.241737
 30
0.0
 10
1798.140572
 20
499.098428
 30
0.0
 10
1782.697421
 20
490.998429
 30
0.0
 10
1765.451436
 20
490.403153
 30
0.0
 10
1748.290490
 20
488.596067
 30
0.0
 10
1731.386788
 20
485.173233
 30
0.0
 10
1717.151199
 20
476.775595
 30
0.0
 10
1706.491511
 20
470.163782
 30
0.0
 10
1692.853323
 20
469.419689
 30
0.0
 10
1680.014502
 20
468.590555
 30
0.0
 10
1668.557573
 20
464.019687
 30
0.0
 10
1658.495290
 20
459.448823
 30
0.0
 10
1646.959697
 20
458.619686
 30
0.0
 10
1634.301588
 20
457.790552
 30
0.0
 10
1625.361823
 20
450.519685
 30
0.0
 10
1609.918672
 20
442.419684
 30
0.0
 10
1592.672687
 20
441.824410
 30
0.0
 10
1575.511741
 20
439.996063
 30
0.0
 10
1558.608040
 20
436.573230
 30
0.0
 10
1544.372447
 20
428.175592
 30
0.0
 10
1536.453155
 20
421.776377
 30
0.0
 10
1525.474573
 20
420.819685
 30
0.0
 10
1506.576699
 20
415.419684
 30
0.0
 10
1490.378824
 20
410.019685
 30
0.0
 10
1474.180949
 20
402.621259
 30
0.0
 10
1456.720239
 20
394.138581
 30
0.0
 10
1436.385197
 20
391.502359
 30
0.0
 10
1415.882205
 20
388.844880
 30
0.0
 10
1398.591574
 20
380.000785
 30
0.0
 10
1390.861494
 20
373.176375
 30
0.0
 10
1379.693700
 20
372.219682
 30
0.0
 10
1360.795822
 20
366.819683
 30
0.0
 10
1347.297949
 20
361.419682
 30
0.0
 10
1333.797948
 20
353.744878
 30
0.0
 10
1317.833931
 20
345.049602
 30
0.0
 10
1298.702198
 20
342.328343
 30
0.0
 10
1279.664009
 20
339.607081
 30
0.0
 10
1263.608575
 20
331.103144
 30
0.0
 10
1247.408573
 20
323.619678
 30
0.0
 10
1231.210698
 20
318.219679
 30
0.0
 10
1217.712822
 20
312.840938
 30
0.0
 10
1204.214949
 20
305.399993
 30
0.0
 10
1190.334397
 20
295.641725
 30
0.0
 10
1172.797151
 20
292.218892
 30
0.0
 10
1154.945261
 20
291.240939
 30
0.0
 10
1139.423449
 20
283.140938
 30
0.0
 10
1128.623449
 20
275.040938
 30
0.0
 10
1117.825575
 20
269.640936
 30
0.0
 10
1101.627700
 20
264.240935
 30
0.0
 10
1085.429825
 20
256.757470
 30
0.0
 10
1074.846676
 20
248.657469
 30
0.0
 10
1061.131949
 20
245.617313
 30
0.0
 10
1047.287538
 20
242.577156
 30
0.0
 10
1036.836200
 20
234.200778
 30
0.0
 10
1023.338324
 20
226.440934
 30
0.0
 10
1009.838324
 20
221.040933
 30
0.0
 10
990.942576
 20
215.640935
 30
0.0
 10
979.906590
 20
214.684239
 30
0.0
 10
972.044699
 20
208.157469
 30
0.0
 10
961.461549
 20
200.078729
 30
0.0
 10
947.746824
 20
197.017309
 30
0.0
 10
933.902415
 20
193.977153
 30
0.0
 10
923.451076
 20
185.622034
 30
0.0
 10
909.951075
 20
177.840931
 30
0.0
 10
896.453199
 20
172.440930
 30
0.0
 10
885.655325
 20
167.040931
 30
0.0
 10
874.855325
 20
159.557466
 30
0.0
 10
864.272175
 20
151.478725
 30
0.0
 10
850.559575
 20
148.438569
 30
0.0
 10
836.713038
 20
145.377149
 30
0.0
 10
826.261699
 20
137.022031
 30
0.0
 10
812.763823
 20
129.262187
 30
0.0
 10
799.265950
 20
123.862189
 30
0.0
 10
788.465951
 20
118.462188
 30
0.0
 10
777.668074
 20
110.213368
 30
0.0
 10
761.470199
 20
98.754314
 30
0.0
 10
745.272324
 20
88.081870
 30
0.0
 10
739.487523
 20
80.662187
 30
0.0
 10
725.317836
 20
71.945651
 30
0.0
 10
718.276575
 20
56.744862
 30
0.0
 10
710.176574
 20
48.262184
 30
0.0
 10
702.078700
 20
40.162184
 30
0.0
 10
690.791850
 20
33.167695
 30
0.0
 10
676.205470
 20
32.232262
 30
0.0
 10
661.582949
 20
32.062184
 30
0.0
 10
641.335075
 20
32.062184
 30
0.0
 10
621.087201
 20
32.062184
 30
0.0
 10
621.087201
 20
50.962183
 30
0.0
  0
ENDSEC
  0
SECTION
  2
OBJECTS
  0
DICTIONARY
  5
C
330
0
100
AcDbDictionary
  3
ACAD_GROUP
350
D
  3
ACAD_MLINESTYLE
350
17
  0
DICTIONARY
  5
D
330
C
100
AcDbDictionary
  0
DICTIONARY
  5
1A
330
C
100
AcDbDictionary
  0
DICTIONARY
  5
17
330
C
100
AcDbDictionary
  3
STANDARD
350
18
  0
DICTIONARY
  5
19
330
C
100
AcDbDictionary
  0
ENDSEC
  0
EOF
