  0
SECTION
  2
HEADER
  9
$ACADVER
  1
AC1014
  9
$HANDSEED
  5
FFFF
  9
$MEASUREMENT
 70
     1
  0
ENDSEC
  0
SECTION
  2
TABLES
  0
TABLE
  2
VPORT
  5
8
330
0
100
AcDbSymbolTable
 70
     4
  0
VPORT
  5
2E
330
8
100
AcDbSymbolTableRecord
100
AcDbViewportTableRecord
  2
*ACTIVE
 70
     0
 10
0.0
 20
0.0
 11
1.0
 21
1.0
 12
210.0
 22
148.5
 13
0.0
 23
0.0
 14
10.0
 24
10.0
 15
10.0
 25
10.0
 16
0.0
 26
0.0
 36
1.0
 17
0.0
 27
0.0
 37
0.0
 40
341.0
 41
1.24
 42
50.0
 43
0.0
 44
0.0
 50
0.0
 51
0.0
 71
     0
 72
   100
 73
     1
 74
     3
 75
     0
 76
     0
 77
     0
 78
     0
  0
ENDTAB
  0
TABLE
  2
LTYPE
  5
5
330
0
100
AcDbSymbolTable
 70
     1
  0
LTYPE
  5
14
330
5
100
AcDbSymbolTableRecord
100
AcDbLinetypeTableRecord
  2
BYBLOCK
 70
     0
  3

 72
    65
 73
     0
 40
0.0
  0
LTYPE
  5
15
330
5
100
AcDbSymbolTableRecord
100
AcDbLinetypeTableRecord
  2
BYLAYER
 70
     0
  3

 72
    65
 73
     0
 40
0.0
  0
LTYPE
  5
16
330
5
100
AcDbSymbolTableRecord
100
AcDbLinetypeTableRecord
  2
CONTINUOUS
 70
     0
  3
Solid line
 72
    65
 73
     0
 40
0.0
  0
ENDTAB
  0
TABLE
  2
LAYER
  5
2
100
AcDbSymbolTable
 70
2
  0
LAYER
  5
50
100
AcDbSymbolTableRecord
100
AcDbLayerTableRecord
  2
0
 70
0
  6
CONTINUOUS
  0
LAYER
  5
51
100
AcDbSymbolTableRecord
100
AcDbLayerTableRecord
  2
Layer_1
 70
0
  6
CONTINUOUS
  0
ENDTAB
  0
TABLE
  2
STYLE
  5
3
330
0
100
AcDbSymbolTable
 70
     1
  0
STYLE
  5
11
330
3
100
AcDbSymbolTableRecord
100
AcDbTextStyleTableRecord
  2
STANDARD
 70
     0
 40
0.0
 41
1.0
 50
0.0
 71
     0
 42
2.5
  3
txt
  4

  0
ENDTAB
  0
TABLE
  2
VIEW
  5
6
330
0
100
AcDbSymbolTable
 70
     0
  0
ENDTAB
  0
TABLE
  2
UCS
  5
7
330
0
100
AcDbSymbolTable
 70
     0
  0
ENDTAB
  0
TABLE
  2
APPID
  5
9
330
0
100
AcDbSymbolTable
 70
     2
  0
APPID
  5
12
330
9
100
AcDbSymbolTableRecord
100
AcDbRegAppTableRecord
  2
ACAD
 70
     0
  0
ENDTAB
  0
TABLE
  2
DIMSTYLE
  5
A
330
0
100
AcDbSymbolTable
 70
     1
  0
DIMSTYLE
105
27
330
A
100
AcDbSymbolTableRecord
100
AcDbDimStyleTableRecord
  2
ISO-25
 70
     0
  3

  4

  5

  6

  7

 40
1.0
 41
2.5
 42
0.625
 43
3.75
 44
1.25
 45
0.0
 46
0.0
 47
0.0
 48
0.0
140
2.5
141
2.5
142
0.0
143
0.03937007874016
144
1.0
145
0.0
146
1.0
147
0.625
 71
     0
 72
     0
 73
     0
 74
     0
 75
     0
 76
     0
 77
     1
 78
     8
170
     0
171
     3
172
     1
173
     0
174
     0
175
     0
176
     0
177
     0
178
     0
270
     2
271
     2
272
     2
273
     2
274
     3
340
11
275
     0
280
     0
281
     0
282
     0
283
     0
284
     8
285
     0
286
     0
287
     3
288
     0
  0
ENDTAB
  0
TABLE
  2
BLOCK_RECORD
  5
1
330
0
100
AcDbSymbolTable
 70
     1
  0
BLOCK_RECORD
  5
1F
330
1
100
AcDbSymbolTableRecord
100
AcDbBlockTableRecord
  2
*MODEL_SPACE
  0
BLOCK_RECORD
  5
1B
330
1
100
AcDbSymbolTableRecord
100
AcDbBlockTableRecord
  2
*PAPER_SPACE
  0
ENDTAB
  0
ENDSEC
  0
SECTION
  2
BLOCKS
  0
BLOCK
  5
20
330
1F
100
AcDbEntity
  8
0
100
AcDbBlockBegin
  2
*MODEL_SPACE
 70
     0
 10
0.0
 20
0.0
 30
0.0
  3
*MODEL_SPACE
  1

  0
ENDBLK
  5
21
330
1F
100
AcDbEntity
  8
0
100
AcDbBlockEnd
  0
BLOCK
  5
1C
330
1B
100
AcDbEntity
 67
     1
  8
0
100
AcDbBlockBegin
  2
*PAPER_SPACE
  1

  0
ENDBLK
  5
1D
330
1B
100
AcDbEntity
 67
     1
  8
0
100
AcDbBlockEnd
  0
ENDSEC
  0
SECTION
  2
ENTITIES
  0
LWPOLYLINE
  5
100
100
AcDbEntity
  8
Layer_1
 62
7
100
AcDbPolyline
 90
145
 70
1
 10
955.896435
 20
-2219.788346
 30
0.0
 10
973.329506
 20
-2219.022992
 30
0.0
 10
990.762661
 20
-2218.108819
 30
0.0
 10
1008.174444
 20
-2216.960787
 30
0.0
 10
1025.543764
 20
-2215.153701
 30
0.0
 10
1040.935861
 20
-2209.009606
 30
0.0
 10
1057.157178
 20
-2202.312756
 30
0.0
 10
1076.035861
 20
-2201.760000
 30
0.0
 10
1094.149276
 20
-2201.015906
 30
0.0
 10
1111.135861
 20
-2196.360000
 30
0.0
 10
1124.635861
 20
-2190.960000
 30
0.0
 10
1137.646942
 20
-2179.245827
 30
0.0
 10
1138.135946
 20
-2158.560000
 30
0.0
 10
1137.583106
 20
-2140.595433
 30
0.0
 10
1130.035946
 20
-2126.160000
 30
0.0
 10
1121.935861
 20
-2109.960000
 30
0.0
 10
1116.535861
 20
-2093.760000
 30
0.0
 10
1111.943764
 20
-2082.300945
 30
0.0
 10
1111.135861
 20
-2069.481260
 30
0.0
 10
1110.391795
 20
-2055.747402
 30
0.0
 10
1103.609906
 20
-2045.181260
 30
0.0
 10
1096.126413
 20
-2030.788346
 30
0.0
 10
1093.787830
 20
-2013.737953
 30
0.0
 10
1092.235861
 20
-1996.581260
 30
0.0
 10
1090.683893
 20
-1979.424680
 30
0.0
 10
1088.345310
 20
-1962.374287
 30
0.0
 10
1080.861902
 20
-1947.981373
 30
0.0
 10
1073.909906
 20
-1933.269562
 30
0.0
 10
1073.335861
 20
-1915.581373
 30
0.0
 10
1072.570564
 20
-1898.807357
 30
0.0
 10
1067.935861
 20
-1883.202633
 30
0.0
 10
1063.343764
 20
-1870.340428
 30
0.0
 10
1062.535861
 20
-1856.202633
 30
0.0
 10
1061.855546
 20
-1841.256964
 30
0.0
 10
1055.222476
 20
-1829.202633
 30
0.0
 10
1047.292583
 20
-1811.365625
 30
0.0
 10
1044.188617
 20
-1791.360113
 30
0.0
 10
1042.360271
 20
-1771.163263
 30
0.0
 10
1041.339827
 20
-1750.923893
 30
0.0
 10
1040.978381
 20
-1730.663263
 30
0.0
 10
1040.276835
 20
-1716.015231
 30
0.0
 10
1032.835861
 20
-1705.023893
 30
0.0
 10
1025.246098
 20
-1689.206570
 30
0.0
 10
1024.735861
 20
-1669.923893
 30
0.0
 10
1023.991795
 20
-1651.789247
 30
0.0
 10
1019.335861
 20
-1634.823893
 30
0.0
 10
1014.658724
 20
-1616.476649
 30
0.0
 10
1013.935861
 20
-1597.023893
 30
0.0
 10
1013.468173
 20
-1576.422822
 30
0.0
 10
1005.835861
 20
-1559.245153
 30
0.0
 10
998.713786
 20
-1551.655106
 30
0.0
 10
997.735861
 20
-1540.345153
 30
0.0
 10
997.735861
 20
-1521.445153
 30
0.0
 10
980.642920
 20
-1521.445153
 30
0.0
 10
963.550035
 20
-1521.445153
 30
0.0
 10
946.457093
 20
-1521.445153
 30
0.0
 10
929.024022
 20
-1521.167357
 30
0.0
 10
911.612239
 20
-1520.167861
 30
0.0
 10
895.157093
 20
-1516.043735
 30
0.0
 10
883.697981
 20
-1511.451326
 30
0.0
 10
870.857093
 20
-1510.643735
 30
0.0
 10
857.144466
 20
-1509.899357
 30
0.0
 10
846.557093
 20
-1503.096208
 30
0.0
 10
828.698769
 20
-1494.996208
 30
0.0
 10
808.395676
 20
-1492.189909
 30
0.0
 10
787.964910
 20
-1490.722980
 30
0.0
 10
767.491710
 20
-1490.063924
 30
0.0
 10
746.997222
 20
-1490.035578
 30
0.0
 10
726.523937
 20
-1490.588334
 30
0.0
 10
706.050737
 20
-1491.736365
 30
0.0
 10
687.171969
 20
-1493.267074
 30
0.0
 10
668.378239
 20
-1495.563137
 30
0.0
 10
652.199556
 20
-1503.110381
 30
0.0
 10
637.466457
 20
-1510.062350
 30
0.0
 10
619.799556
 20
-1510.636365
 30
0.0
 10
603.004280
 20
-1511.401720
 30
0.0
 10
587.399471
 20
-1516.036365
 30
0.0
 10
573.155405
 20
-1520.628491
 30
0.0
 10
557.699471
 20
-1521.436365
 30
0.0
 10
541.074302
 20
-1522.031641
 30
0.0
 10
527.999471
 20
-1529.536365
 30
0.0
 10
520.528791
 20
-1537.636365
 30
0.0
 10
515.024617
 20
-1555.111956
 30
0.0
 10
513.483307
 20
-1574.139515
 30
0.0
 10
512.486164
 20
-1593.209594
 30
0.0
 10
511.720781
 20
-1612.279956
 30
0.0
 10
511.080888
 20
-1631.350035
 30
0.0
 10
510.517502
 20
-1650.441373
 30
0.0
 10
510.002986
 20
-1669.532712
 30
0.0
 10
509.522542
 20
-1688.623767
 30
0.0
 10
509.065483
 20
-1707.715389
 30
0.0
 10
508.608369
 20
-1726.785468
 30
0.0
 10
508.127924
 20
-1745.876806
 30
0.0
 10
507.611310
 20
-1764.968145
 30
0.0
 10
507.045742
 20
-1784.038224
 30
0.0
 10
506.405849
 20
-1803.129562
 30
0.0
 10
505.638369
 20
-1822.199641
 30
0.0
 10
504.641310
 20
-1841.269720
 30
0.0
 10
503.102098
 20
-1860.297279
 30
0.0
 10
497.644639
 20
-1877.794129
 30
0.0
 10
491.236951
 20
-1892.272082
 30
0.0
 10
490.369578
 20
-1909.301216
 30
0.0
 10
490.210271
 20
-1926.372869
 30
0.0
 10
489.940129
 20
-1942.913027
 30
0.0
 10
488.923880
 20
-1959.431924
 30
0.0
 10
484.810129
 20
-1974.972869
 30
0.0
 10
480.109578
 20
-1994.680630
 30
0.0
 10
479.412227
 20
-2015.472756
 30
0.0
 10
479.227408
 20
-2029.844409
 30
0.0
 10
478.264337
 20
-2044.173543
 30
0.0
 10
472.120271
 20
-2055.972756
 30
0.0
 10
465.306435
 20
-2074.001102
 30
0.0
 10
462.344995
 20
-2093.623937
 30
0.0
 10
460.331688
 20
-2113.374331
 30
0.0
 10
458.947644
 20
-2133.188504
 30
0.0
 10
458.105754
 20
-2153.023937
 30
0.0
 10
457.814466
 20
-2172.880630
 30
0.0
 10
457.814466
 20
-2190.951496
 30
0.0
 10
475.362369
 20
-2190.951496
 30
0.0
 10
492.910271
 20
-2190.951496
 30
0.0
 10
511.032132
 20
-2191.695591
 30
0.0
 10
527.999613
 20
-2196.351496
 30
0.0
 10
543.561817
 20
-2200.454646
 30
0.0
 10
560.059483
 20
-2201.475118
 30
0.0
 10
576.599613
 20
-2201.752913
 30
0.0
 10
593.820142
 20
-2201.900315
 30
0.0
 10
611.019354
 20
-2202.729449
 30
0.0
 10
625.199698
 20
-2209.681417
 30
0.0
 10
639.635074
 20
-2216.612126
 30
0.0
 10
656.834315
 20
-2218.057795
 30
0.0
 10
674.076047
 20
-2218.801890
 30
0.0
 10
691.339039
 20
-2219.312126
 30
0.0
 10
711.684737
 20
-2219.822362
 30
0.0
 10
732.030435
 20
-2220.332598
 30
0.0
 10
752.376047
 20
-2220.800315
 30
0.0
 10
772.742976
 20
-2221.246772
 30
0.0
 10
793.088674
 20
-2221.629449
 30
0.0
 10
813.455603
 20
-2221.948346
 30
0.0
 10
833.801301
 20
-2222.160945
 30
0.0
 10
854.168230
 20
-2222.245984
 30
0.0
 10
874.513928
 20
-2222.118425
 30
0.0
 10
894.859569
 20
-2221.799528
 30
0.0
 10
915.226554
 20
-2221.268031
 30
0.0
 10
935.572195
 20
-2220.587717
 30
0.0
 10
955.896576
 20
-2219.779843
 30
0.0
  0
LWPOLYLINE
  5
101
100
AcDbEntity
  8
Layer_1
 62
7
100
AcDbPolyline
 90
66
 70
1
 10
2568.944948
 20
-1759.002633
 30
0.0
 10
2581.828413
 20
-1753.602633
 30
0.0
 10
2597.518176
 20
-1742.802633
 30
0.0
 10
2608.934712
 20
-1732.023893
 30
0.0
 10
2617.544948
 20
-1726.219956
 30
0.0
 10
2625.241011
 20
-1712.911294
 30
0.0
 10
2638.422113
 20
-1705.023893
 30
0.0
 10
2644.715310
 20
-1693.756176
 30
0.0
 10
2647.521326
 20
-1680.723893
 30
0.0
 10
2650.561767
 20
-1667.011294
 30
0.0
 10
2658.661767
 20
-1656.423893
 30
0.0
 10
2665.039436
 20
-1643.838066
 30
0.0
 10
2665.975153
 20
-1628.552239
 30
0.0
 10
2666.145231
 20
-1613.223893
 30
0.0
 10
2665.994995
 20
-1597.725468
 30
0.0
 10
2665.080822
 20
-1582.248302
 30
0.0
 10
2658.043814
 20
-1570.023893
 30
0.0
 10
2649.858775
 20
-1557.884239
 30
0.0
 10
2647.414176
 20
-1537.240932
 30
0.0
 10
2635.806019
 20
-1521.445153
 30
0.0
 10
2628.343814
 20
-1507.945153
 30
0.0
 10
2625.473735
 20
-1496.974791
 30
0.0
 10
2614.333578
 20
-1494.445153
 30
0.0
 10
2603.788696
 20
-1492.191326
 30
0.0
 10
2597.517043
 20
-1483.645153
 30
0.0
 10
2587.227279
 20
-1472.845153
 30
0.0
 10
2579.743814
 20
-1467.445153
 30
0.0
 10
2563.543814
 20
-1462.044869
 30
0.0
 10
2547.343814
 20
-1453.944869
 30
0.0
 10
2530.165861
 20
-1446.333846
 30
0.0
 10
2509.565074
 20
-1445.844869
 30
0.0
 10
2488.943027
 20
-1446.333846
 30
0.0
 10
2471.765074
 20
-1453.944869
 30
0.0
 10
2464.196570
 20
-1461.088176
 30
0.0
 10
2452.865074
 20
-1462.044869
 30
0.0
 10
2433.965074
 20
-1467.445153
 30
0.0
 10
2420.465074
 20
-1472.845153
 30
0.0
 10
2406.965074
 20
-1481.455106
 30
0.0
 10
2396.165074
 20
-1492.871641
 30
0.0
 10
2385.365074
 20
-1500.865342
 30
0.0
 10
2377.605231
 20
-1513.642507
 30
0.0
 10
2364.828066
 20
-1521.445153
 30
0.0
 10
2357.110743
 20
-1535.922822
 30
0.0
 10
2354.793420
 20
-1553.122035
 30
0.0
 10
2353.666649
 20
-1570.427546
 30
0.0
 10
2353.135153
 20
-1587.775861
 30
0.0
 10
2352.984917
 20
-1605.123893
 30
0.0
 10
2353.112476
 20
-1622.769279
 30
0.0
 10
2353.643972
 20
-1640.415231
 30
0.0
 10
2354.834523
 20
-1658.018381
 30
0.0
 10
2357.534523
 20
-1675.451452
 30
0.0
 10
2367.143972
 20
-1688.823893
 30
0.0
 10
2374.563657
 20
-1702.323893
 30
0.0
 10
2379.963657
 20
-1715.823893
 30
0.0
 10
2385.363657
 20
-1723.307357
 30
0.0
 10
2393.272318
 20
-1730.982161
 30
0.0
 10
2404.263657
 20
-1734.362476
 30
0.0
 10
2415.425074
 20
-1737.742791
 30
0.0
 10
2423.163657
 20
-1745.757751
 30
0.0
 10
2436.663657
 20
-1753.602633
 30
0.0
 10
2450.163657
 20
-1759.002633
 30
0.0
 10
2469.361294
 20
-1763.190822
 30
0.0
 10
2489.451846
 20
-1764.168775
 30
0.0
 10
2509.563657
 20
-1764.401216
 30
0.0
 10
2529.654208
 20
-1764.168775
 30
0.0
 10
2549.744759
 20
-1763.190822
 30
0.0
  0
LWPOLYLINE
  5
102
100
AcDbEntity
  8
Layer_1
 62
7
100
AcDbPolyline
 90
1976
 70
1
 10
-686.843603
 20
-1675.323893
 30
0.0
 10
-694.839430
 20
-1667.223893
 30
0.0
 10
-706.224047
 20
-1653.723893
 30
0.0
 10
-717.126123
 20
-1640.223893
 30
0.0
 10
-724.639323
 20
-1629.423893
 30
0.0
 10
-730.037225
 20
-1618.623893
 30
0.0
 10
-735.437225
 20
-1602.423893
 30
0.0
 10
-743.537225
 20
-1586.223893
 30
0.0
 10
-750.735808
 20
-1569.386098
 30
0.0
 10
-751.507540
 20
-1549.465342
 30
0.0
 10
-751.635099
 20
-1529.545153
 30
0.0
 10
-751.507540
 20
-1509.603137
 30
0.0
 10
-750.735808
 20
-1489.703924
 30
0.0
 10
-743.537225
 20
-1472.845153
 30
0.0
 10
-735.437225
 20
-1456.644869
 30
0.0
 10
-730.037225
 20
-1440.444869
 30
0.0
 10
-724.639323
 20
-1426.944869
 30
0.0
 10
-717.168643
 20
-1413.444869
 30
0.0
 10
-706.876696
 20
-1402.644869
 30
0.0
 10
-695.447461
 20
-1391.866129
 30
0.0
 10
-686.843603
 20
-1386.062192
 30
0.0
 10
-679.234706
 20
-1372.838570
 30
0.0
 10
-666.261865
 20
-1364.866129
 30
0.0
 10
-658.283074
 20
-1354.066129
 30
0.0
 10
-652.013518
 20
-1345.519672
 30
0.0
 10
-641.453839
 20
-1343.266129
 30
0.0
 10
-627.449924
 20
-1335.166129
 30
0.0
 10
-619.877169
 20
-1328.022822
 30
0.0
 10
-608.554205
 20
-1327.066129
 30
0.0
 10
-589.656302
 20
-1321.666129
 30
0.0
 10
-572.282787
 20
-1317.520460
 30
0.0
 10
-553.986539
 20
-1316.521247
 30
0.0
 10
-535.662680
 20
-1316.266129
 30
0.0
 10
-517.338822
 20
-1316.521247
 30
0.0
 10
-499.044671
 20
-1317.520460
 30
0.0
 10
-481.669058
 20
-1321.666129
 30
0.0
 10
-462.771156
 20
-1327.066129
 30
0.0
 10
-451.380161
 20
-1328.022822
 30
0.0
 10
-443.873254
 20
-1335.293688
 30
0.0
 10
-427.675436
 20
-1346.774003
 30
0.0
 10
-411.477534
 20
-1357.425184
 30
0.0
 10
-405.692702
 20
-1364.866129
 30
0.0
 10
-392.471178
 20
-1372.477153
 30
0.0
 10
-384.481729
 20
-1385.445657
 30
0.0
 10
-373.681729
 20
-1393.418098
 30
0.0
 10
-365.135329
 20
-1399.689751
 30
0.0
 10
-362.883912
 20
-1410.255893
 30
0.0
 10
-354.783912
 20
-1424.244869
 30
0.0
 10
-346.686009
 20
-1435.044869
 30
0.0
 10
-341.286009
 20
-1445.844869
 30
0.0
 10
-336.727871
 20
-1455.900775
 30
0.0
 10
-335.888107
 20
-1467.445153
 30
0.0
 10
-335.065351
 20
-1480.115735
 30
0.0
 10
-327.788107
 20
-1489.045153
 30
0.0
 10
-320.198343
 20
-1504.862192
 30
0.0
 10
-319.690290
 20
-1524.145153
 30
0.0
 10
-320.198343
 20
-1543.427546
 30
0.0
 10
-327.788107
 20
-1559.245153
 30
0.0
 10
-335.165244
 20
-1569.534917
 30
0.0
 10
-335.888107
 20
-1583.523893
 30
0.0
 10
-336.708765
 20
-1596.364554
 30
0.0
 10
-341.286009
 20
-1607.823893
 30
0.0
 10
-346.686009
 20
-1620.940932
 30
0.0
 10
-356.133912
 20
-1636.949877
 30
0.0
 10
-343.286561
 20
-1638.182948
 30
0.0
 10
-327.788107
 20
-1637.396334
 30
0.0
 10
-306.655795
 20
-1636.205783
 30
0.0
 10
-285.506561
 20
-1635.312586
 30
0.0
 10
-264.346591
 20
-1634.866413
 30
0.0
 10
-249.700742
 20
-1634.143578
 30
0.0
 10
-238.698774
 20
-1626.723893
 30
0.0
 10
-222.883520
 20
-1619.134129
 30
0.0
 10
-203.602969
 20
-1618.623893
 30
0.0
 10
-185.481079
 20
-1617.879515
 30
0.0
 10
-168.507249
 20
-1613.223893
 30
0.0
 10
-152.900342
 20
-1608.588964
 30
0.0
 10
-136.111445
 20
-1607.823893
 30
0.0
 10
-118.155382
 20
-1607.271137
 30
0.0
 10
-103.715725
 20
-1599.723893
 30
0.0
 10
-93.819240
 20
-1592.367987
 30
0.0
 10
-80.234201
 20
-1591.623893
 30
0.0
 10
-62.125067
 20
-1591.368775
 30
0.0
 10
-44.032884
 20
-1590.624680
 30
0.0
 10
-25.968397
 20
-1589.327546
 30
0.0
 10
-7.965619
 20
-1587.392901
 30
0.0
 10
9.894803
 20
-1584.416523
 30
0.0
 10
25.867323
 20
-1577.336995
 30
0.0
 10
40.679084
 20
-1570.619169
 30
0.0
 10
58.263129
 20
-1570.023893
 30
0.0
 10
75.052026
 20
-1569.258539
 30
0.0
 10
90.658848
 20
-1564.623893
 30
0.0
 10
104.896565
 20
-1560.031483
 30
0.0
 10
120.356751
 20
-1559.223609
 30
0.0
 10
136.620502
 20
-1558.607074
 30
0.0
 10
150.052499
 20
-1551.910507
 30
0.0
 10
166.873258
 20
-1544.235704
 30
0.0
 10
185.790294
 20
-1541.110507
 30
0.0
 10
204.868848
 20
-1539.175578
 30
0.0
 10
224.015547
 20
-1538.070066
 30
0.0
 10
243.189799
 20
-1537.666129
 30
0.0
 10
255.180351
 20
-1536.751956
 30
0.0
 10
263.437645
 20
-1529.545153
 30
0.0
 10
273.746543
 20
-1522.167987
 30
0.0
 10
287.735556
 20
-1521.445153
 30
0.0
 10
300.574346
 20
-1520.616019
 30
0.0
 10
312.031276
 20
-1516.045153
 30
0.0
 10
323.490359
 20
-1511.452743
 30
0.0
 10
336.329178
 20
-1510.645153
 30
0.0
 10
350.043902
 20
-1509.900775
 30
0.0
 10
360.624983
 20
-1503.118885
 30
0.0
 10
375.011461
 20
-1495.635704
 30
0.0
 10
392.066164
 20
-1493.297121
 30
0.0
 10
409.220702
 20
-1491.745153
 30
0.0
 10
426.368920
 20
-1490.192901
 30
0.0
 10
443.423537
 20
-1487.833058
 30
0.0
 10
457.814324
 20
-1480.370854
 30
0.0
 10
469.772986
 20
-1473.503924
 30
0.0
 10
484.810129
 20
-1472.845153
 30
0.0
 10
498.956400
 20
-1472.036995
 30
0.0
 10
511.808031
 20
-1467.445153
 30
0.0
 10
526.439027
 20
-1463.362980
 30
0.0
 10
542.052227
 20
-1462.321247
 30
0.0
 10
557.699471
 20
-1462.046287
 30
0.0
 10
574.090866
 20
-1461.896050
 30
0.0
 10
590.460888
 20
-1461.024397
 30
0.0
 10
603.599556
 20
-1453.944869
 30
0.0
 10
621.309005
 20
-1447.907074
 30
0.0
 10
641.123178
 20
-1446.844082
 30
0.0
 10
660.958583
 20
-1446.355106
 30
0.0
 10
680.794044
 20
-1446.099987
 30
0.0
 10
700.650737
 20
-1445.972428
 30
0.0
 10
720.486142
 20
-1445.887389
 30
0.0
 10
740.342835
 20
-1445.859043
 30
0.0
 10
760.178324
 20
-1445.830696
 30
0.0
 10
780.013729
 20
-1445.859043
 30
0.0
 10
799.870422
 20
-1445.887389
 30
0.0
 10
819.705883
 20
-1445.972428
 30
0.0
 10
839.562605
 20
-1446.099987
 30
0.0
 10
859.397981
 20
-1446.355106
 30
0.0
 10
879.233471
 20
-1446.844082
 30
0.0
 10
899.047644
 20
-1447.907074
 30
0.0
 10
916.757093
 20
-1453.944869
 30
0.0
 10
933.956306
 20
-1461.555893
 30
0.0
 10
954.557093
 20
-1462.044869
 30
0.0
 10
974.009849
 20
-1462.767704
 30
0.0
 10
992.357093
 20
-1467.445153
 30
0.0
 10
1005.198066
 20
-1472.036995
 30
0.0
 10
1019.335861
 20
-1472.845153
 30
0.0
 10
1034.643005
 20
-1473.482948
 30
0.0
 10
1046.335861
 20
-1480.945153
 30
0.0
 10
1056.264208
 20
-1488.300775
 30
0.0
 10
1069.891795
 20
-1489.045153
 30
0.0
 10
1089.174444
 20
-1489.533846
 30
0.0
 10
1108.414630
 20
-1491.107074
 30
0.0
 10
1127.420929
 20
-1494.338570
 30
0.0
 10
1143.535946
 20
-1503.267704
 30
0.0
 10
1154.187071
 20
-1509.900775
 30
0.0
 10
1167.835946
 20
-1510.645153
 30
0.0
 10
1180.655631
 20
-1511.452743
 30
0.0
 10
1192.114630
 20
-1516.045153
 30
0.0
 10
1202.191880
 20
-1520.594476
 30
0.0
 10
1213.714630
 20
-1521.445153
 30
0.0
 10
1226.130435
 20
-1522.274003
 30
0.0
 10
1235.314715
 20
-1529.034917
 30
0.0
 10
1250.579254
 20
-1536.624680
 30
0.0
 10
1268.565080
 20
-1538.941720
 30
0.0
 10
1286.614715
 20
-1540.472712
 30
0.0
 10
1304.621773
 20
-1542.024680
 30
0.0
 10
1322.543849
 20
-1544.320743
 30
0.0
 10
1337.914715
 20
-1551.782948
 30
0.0
 10
1348.523405
 20
-1558.501058
 30
0.0
 10
1362.193483
 20
-1559.223609
 30
0.0
 10
1375.034400
 20
-1560.053027
 30
0.0
 10
1386.493483
 20
-1564.623893
 30
0.0
 10
1402.098208
 20
-1569.258539
 30
0.0
 10
1418.893483
 20
-1570.023893
 30
0.0
 10
1436.602932
 20
-1570.597625
 30
0.0
 10
1451.293483
 20
-1577.592397
 30
0.0
 10
1464.921043
 20
-1584.480586
 30
0.0
 10
1481.014743
 20
-1586.564050
 30
0.0
 10
1497.193483
 20
-1587.945657
 30
0.0
 10
1513.372224
 20
-1589.051169
 30
0.0
 10
1529.550964
 20
-1590.135704
 30
0.0
 10
1545.708444
 20
-1591.517310
 30
0.0
 10
1561.759625
 20
-1593.622035
 30
0.0
 10
1575.472224
 20
-1600.382948
 30
0.0
 10
1587.462775
 20
-1607.164554
 30
0.0
 10
1602.472224
 20
-1607.823893
 30
0.0
 10
1616.610019
 20
-1608.631483
 30
0.0
 10
1629.472224
 20
-1613.223893
 30
0.0
 10
1642.972224
 20
-1618.623893
 30
0.0
 10
1656.472224
 20
-1613.223893
 30
0.0
 10
1664.572224
 20
-1607.823893
 30
0.0
 10
1671.949389
 20
-1597.512586
 30
0.0
 10
1672.672224
 20
-1583.523893
 30
0.0
 10
1671.949389
 20
-1569.534917
 30
0.0
 10
1664.572224
 20
-1559.223609
 30
0.0
 10
1656.472224
 20
-1550.996334
 30
0.0
 10
1640.272224
 20
-1539.516019
 30
0.0
 10
1624.072224
 20
-1528.864554
 30
0.0
 10
1615.972224
 20
-1521.445153
 30
0.0
 10
1607.872224
 20
-1516.045153
 30
0.0
 10
1595.010019
 20
-1510.645153
 30
0.0
 10
1579.298995
 20
-1499.845153
 30
0.0
 10
1573.048602
 20
-1491.298413
 30
0.0
 10
1562.482460
 20
-1489.045153
 30
0.0
 10
1548.472224
 20
-1480.945153
 30
0.0
 10
1540.372224
 20
-1472.845153
 30
0.0
 10
1532.272224
 20
-1456.644869
 30
0.0
 10
1537.247027
 20
-1441.826759
 30
0.0
 10
1553.872224
 20
-1440.444869
 30
0.0
 10
1566.543090
 20
-1439.615735
 30
0.0
 10
1575.472224
 20
-1432.344869
 30
0.0
 10
1589.546239
 20
-1425.222822
 30
0.0
 10
1606.787972
 20
-1424.393688
 30
0.0
 10
1624.072224
 20
-1424.243452
 30
0.0
 10
1640.612381
 20
-1423.988334
 30
0.0
 10
1657.110019
 20
-1422.967861
 30
0.0
 10
1672.672224
 20
-1418.843452
 30
0.0
 10
1688.850964
 20
-1413.443452
 30
0.0
 10
1700.097420
 20
-1412.019043
 30
0.0
 10
1705.050964
 20
-1402.643452
 30
0.0
 10
1712.576948
 20
-1391.843452
 30
0.0
 10
1720.060413
 20
-1377.471798
 30
0.0
 10
1722.398995
 20
-1360.421405
 30
0.0
 10
1723.950964
 20
-1343.264712
 30
0.0
 10
1725.502932
 20
-1326.108019
 30
0.0
 10
1727.862775
 20
-1309.057625
 30
0.0
 10
1735.324980
 20
-1294.664712
 30
0.0
 10
1742.021830
 20
-1285.459200
 30
0.0
 10
1742.850964
 20
-1273.064712
 30
0.0
 10
1742.850964
 20
-1262.264712
 30
0.0
 10
1742.850964
 20
-1251.464712
 30
0.0
 10
1755.011594
 20
-1251.464712
 30
0.0
 10
1767.151247
 20
-1251.464712
 30
0.0
 10
1783.839940
 20
-1252.293846
 30
0.0
 10
1791.451247
 20
-1264.964712
 30
0.0
 10
1796.851247
 20
-1278.464712
 30
0.0
 10
1802.251247
 20
-1289.264712
 30
0.0
 10
1810.074869
 20
-1300.064712
 30
0.0
 10
1818.833641
 20
-1314.585184
 30
0.0
 10
1821.576161
 20
-1332.464712
 30
0.0
 10
1824.318680
 20
-1350.131641
 30
0.0
 10
1832.631562
 20
-1364.864712
 30
0.0
 10
1840.051247
 20
-1378.258413
 30
0.0
 10
1849.086397
 20
-1392.927704
 30
0.0
 10
1867.221326
 20
-1396.478098
 30
0.0
 10
1885.738365
 20
-1397.137153
 30
0.0
 10
1904.277231
 20
-1396.924554
 30
0.0
 10
1922.794554
 20
-1396.329279
 30
0.0
 10
1941.332854
 20
-1395.563924
 30
0.0
 10
1961.189830
 20
-1394.692271
 30
0.0
 10
1981.067783
 20
-1393.990696
 30
0.0
 10
2000.945735
 20
-1394.033216
 30
0.0
 10
2016.720539
 20
-1402.856050
 30
0.0
 10
2026.946523
 20
-1413.443452
 30
0.0
 10
2034.408728
 20
-1418.843452
 30
0.0
 10
2026.308728
 20
-1424.243452
 30
0.0
 10
2018.208728
 20
-1432.853688
 30
0.0
 10
2007.429987
 20
-1444.291483
 30
0.0
 10
1996.629987
 20
-1452.263924
 30
0.0
 10
1988.636287
 20
-1465.232428
 30
0.0
 10
1975.412665
 20
-1472.843452
 30
0.0
 10
1969.629987
 20
-1481.453688
 30
0.0
 10
1958.829987
 20
-1492.870224
 30
0.0
 10
1948.029987
 20
-1500.863924
 30
0.0
 10
1940.227625
 20
-1513.641090
 30
0.0
 10
1927.450460
 20
-1521.443452
 30
0.0
 10
1919.244161
 20
-1534.050539
 30
0.0
 10
1917.841011
 20
-1549.995420
 30
0.0
 10
1919.180381
 20
-1565.982822
 30
0.0
 10
1922.220539
 20
-1577.633216
 30
0.0
 10
1929.810302
 20
-1586.222192
 30
0.0
 10
1937.229987
 20
-1602.422192
 30
0.0
 10
1942.629987
 20
-1618.622192
 30
0.0
 10
1948.029987
 20
-1629.422192
 30
0.0
 10
1956.129987
 20
-1640.222192
 30
0.0
 10
1964.229987
 20
-1648.322192
 30
0.0
 10
1980.047310
 20
-1655.911956
 30
0.0
 10
1999.329987
 20
-1656.422192
 30
0.0
 10
2017.443373
 20
-1657.166287
 30
0.0
 10
2034.408728
 20
-1661.822192
 30
0.0
 10
2053.308728
 20
-1665.372869
 30
0.0
 10
2072.867783
 20
-1666.371798
 30
0.0
 10
2092.448098
 20
-1666.882318
 30
0.0
 10
2112.028413
 20
-1667.137436
 30
0.0
 10
2131.608728
 20
-1667.222476
 30
0.0
 10
2151.571720
 20
-1667.250822
 30
0.0
 10
2171.534712
 20
-1667.378381
 30
0.0
 10
2191.476444
 20
-1667.739798
 30
0.0
 10
2211.418176
 20
-1668.696491
 30
0.0
 10
2228.787468
 20
-1675.329562
 30
0.0
 10
2245.986680
 20
-1682.940586
 30
0.0
 10
2266.587468
 20
-1683.429562
 30
0.0
 10
2285.487468
 20
-1683.429562
 30
0.0
 10
2304.387468
 20
-1683.429562
 30
0.0
 10
2304.387468
 20
-1671.268932
 30
0.0
 10
2304.387468
 20
-1659.129562
 30
0.0
 10
2303.664633
 20
-1645.140586
 30
0.0
 10
2296.287468
 20
-1634.829562
 30
0.0
 10
2288.910302
 20
-1624.518539
 30
0.0
 10
2288.187468
 20
-1610.529562
 30
0.0
 10
2288.910302
 20
-1596.540586
 30
0.0
 10
2296.287468
 20
-1586.229562
 30
0.0
 10
2303.345735
 20
-1579.341373
 30
0.0
 10
2304.451247
 20
-1568.690192
 30
0.0
 10
2305.429200
 20
-1548.046885
 30
0.0
 10
2308.703216
 20
-1527.658696
 30
0.0
 10
2318.589043
 20
-1510.650822
 30
0.0
 10
2325.987468
 20
-1502.550822
 30
0.0
 10
2331.387468
 20
-1494.450822
 30
0.0
 10
2336.787468
 20
-1483.650822
 30
0.0
 10
2344.781169
 20
-1472.850822
 30
0.0
 10
2356.176444
 20
-1459.329562
 30
0.0
 10
2365.148098
 20
-1446.679956
 30
0.0
 10
2380.561483
 20
-1442.427987
 30
0.0
 10
2392.594554
 20
-1439.366570
 30
0.0
 10
2401.566208
 20
-1431.670507
 30
0.0
 10
2412.366208
 20
-1424.250822
 30
0.0
 10
2423.166208
 20
-1418.850822
 30
0.0
 10
2436.666208
 20
-1413.450822
 30
0.0
 10
2450.166208
 20
-1405.350822
 30
0.0
 10
2465.154397
 20
-1398.207515
 30
0.0
 10
2483.310302
 20
-1397.399641
 30
0.0
 10
2501.466208
 20
-1397.249405
 30
0.0
 10
2519.622113
 20
-1397.399641
 30
0.0
 10
2537.756759
 20
-1398.207515
 30
0.0
 10
2552.744948
 20
-1405.350822
 30
0.0
 10
2561.695342
 20
-1412.642948
 30
0.0
 10
2574.344948
 20
-1413.450822
 30
0.0
 10
2586.165420
 20
-1414.343735
 30
0.0
 10
2595.944948
 20
-1419.764995
 30
0.0
 10
2598.432350
 20
-1423.570507
 30
0.0
 10
2597.794554
 20
-1409.135074
 30
0.0
 10
2588.589043
 20
-1397.888617
 30
0.0
 10
2574.132350
 20
-1393.891767
 30
0.0
 10
2559.271720
 20
-1389.767357
 30
0.0
 10
2550.385106
 20
-1377.734287
 30
0.0
 10
2539.159909
 20
-1364.872082
 30
0.0
 10
2531.144948
 20
-1356.857121
 30
0.0
 10
2517.666208
 20
-1345.483106
 30
0.0
 10
2504.166208
 20
-1334.576806
 30
0.0
 10
2495.683531
 20
-1327.072082
 30
0.0
 10
2480.674082
 20
-1320.205153
 30
0.0
 10
2471.766208
 20
-1306.492554
 30
0.0
 10
2460.966208
 20
-1298.498854
 30
0.0
 10
2450.166208
 20
-1287.082318
 30
0.0
 10
2444.383531
 20
-1278.472082
 30
0.0
 10
2431.159909
 20
-1270.861058
 30
0.0
 10
2423.166208
 20
-1257.892554
 30
0.0
 10
2412.366208
 20
-1249.920113
 30
0.0
 10
2401.566208
 20
-1238.482318
 30
0.0
 10
2395.783531
 20
-1229.872082
 30
0.0
 10
2382.559909
 20
-1222.282318
 30
0.0
 10
2374.566208
 20
-1209.292554
 30
0.0
 10
2363.766208
 20
-1201.320113
 30
0.0
 10
2352.987468
 20
-1189.882318
 30
0.0
 10
2347.183531
 20
-1181.293342
 30
0.0
 10
2333.789830
 20
-1173.490980
 30
0.0
 10
2325.987468
 20
-1160.076019
 30
0.0
 10
2317.377231
 20
-1154.293342
 30
0.0
 10
2305.939436
 20
-1143.493342
 30
0.0
 10
2297.966995
 20
-1132.693342
 30
0.0
 10
2285.168570
 20
-1124.912239
 30
0.0
 10
2277.387468
 20
-1112.113814
 30
0.0
 10
2266.587468
 20
-1104.141373
 30
0.0
 10
2255.787468
 20
-1092.703578
 30
0.0
 10
2250.004791
 20
-1084.093342
 30
0.0
 10
2236.781169
 20
-1076.482318
 30
0.0
 10
2228.787468
 20
-1063.513814
 30
0.0
 10
2217.987468
 20
-1055.541373
 30
0.0
 10
2207.187468
 20
-1044.103578
 30
0.0
 10
2201.404791
 20
-1035.514602
 30
0.0
 10
2187.245735
 20
-1026.798066
 30
0.0
 10
2180.208728
 20
-1011.597279
 30
0.0
 10
2172.682743
 20
-1003.114602
 30
0.0
 10
2161.776444
 20
-989.614602
 30
0.0
 10
2150.402428
 20
-976.114602
 30
0.0
 10
2142.408728
 20
-968.120901
 30
0.0
 10
2129.525263
 20
-956.895704
 30
0.0
 10
2117.492192
 20
-947.966570
 30
0.0
 10
2113.367783
 20
-933.084680
 30
0.0
 10
2109.094554
 20
-917.905153
 30
0.0
 10
2096.529987
 20
-909.103578
 30
0.0
 10
2086.176444
 20
-903.597279
 30
0.0
 10
2083.008728
 20
-892.329562
 30
0.0
 10
2074.908728
 20
-878.935578
 30
0.0
 10
2066.808728
 20
-870.325625
 30
0.0
 10
2056.008728
 20
-858.887830
 30
0.0
 10
2045.208728
 20
-843.197783
 30
0.0
 10
2039.808728
 20
-830.335578
 30
0.0
 10
2034.408728
 20
-822.873657
 30
0.0
 10
2023.608728
 20
-812.562633
 30
0.0
 10
2015.062271
 20
-806.290696
 30
0.0
 10
2012.829987
 20
-795.745814
 30
0.0
 10
2004.729987
 20
-781.735578
 30
0.0
 10
1996.629987
 20
-773.635578
 30
0.0
 10
1991.229987
 20
-765.535578
 30
0.0
 10
1985.829987
 20
-754.735578
 30
0.0
 10
1977.581169
 20
-743.935578
 30
0.0
 10
1966.122113
 20
-727.735578
 30
0.0
 10
1955.449672
 20
-711.556838
 30
0.0
 10
1948.029987
 20
-698.056838
 30
0.0
 10
1942.629987
 20
-684.556838
 30
0.0
 10
1937.229987
 20
-676.456838
 30
0.0
 10
1929.470145
 20
-668.356838
 30
0.0
 10
1921.157546
 20
-658.130854
 30
0.0
 10
1918.117389
 20
-644.503294
 30
0.0
 10
1914.226838
 20
-627.835578
 30
0.0
 10
1901.598491
 20
-617.396995
 30
0.0
 10
1891.606365
 20
-611.805657
 30
0.0
 10
1888.629987
 20
-600.750539
 30
0.0
 10
1880.870145
 20
-587.356838
 30
0.0
 10
1872.514743
 20
-576.918255
 30
0.0
 10
1869.453326
 20
-563.056838
 30
0.0
 10
1866.413452
 20
-549.344239
 30
0.0
 10
1858.334428
 20
-538.778098
 30
0.0
 10
1850.829704
 20
-527.978098
 30
0.0
 10
1845.451247
 20
-517.178098
 30
0.0
 10
1840.051247
 20
-503.678098
 30
0.0
 10
1829.251247
 20
-490.178098
 30
0.0
 10
1818.451247
 20
-495.578098
 30
0.0
 10
1810.351247
 20
-500.978098
 30
0.0
 10
1802.251247
 20
-509.205657
 30
0.0
 10
1786.051247
 20
-520.685972
 30
0.0
 10
1769.851247
 20
-531.337153
 30
0.0
 10
1761.751247
 20
-538.778098
 30
0.0
 10
1753.650964
 20
-530.678098
 30
0.0
 10
1740.150964
 20
-522.578098
 30
0.0
 10
1728.202932
 20
-516.731641
 30
0.0
 10
1726.757263
 20
-502.168649
 30
0.0
 10
1726.652381
 20
-487.478098
 30
0.0
 10
1727.162617
 20
-468.195420
 30
0.0
 10
1734.752381
 20
-452.378098
 30
0.0
 10
1742.384665
 20
-435.178885
 30
0.0
 10
1742.852381
 20
-414.578098
 30
0.0
 10
1743.575216
 20
-395.125342
 30
0.0
 10
1748.252381
 20
-376.778098
 30
0.0
 10
1752.823247
 20
-365.255263
 30
0.0
 10
1753.652381
 20
-352.350539
 30
0.0
 10
1752.377074
 20
-333.811956
 30
0.0
 10
1737.452381
 20
-324.691483
 30
0.0
 10
1721.252381
 20
-314.019043
 30
0.0
 10
1713.152381
 20
-306.599357
 30
0.0
 10
1705.052381
 20
-301.199357
 30
0.0
 10
1692.190176
 20
-295.799357
 30
0.0
 10
1676.500413
 20
-284.999357
 30
0.0
 10
1670.228759
 20
-276.452901
 30
0.0
 10
1659.662617
 20
-274.199357
 30
0.0
 10
1645.673641
 20
-266.099357
 30
0.0
 10
1634.873641
 20
-257.999357
 30
0.0
 10
1624.073641
 20
-252.599357
 30
0.0
 10
1610.573641
 20
-247.199357
 30
0.0
 10
1597.073641
 20
-239.099357
 30
0.0
 10
1588.973641
 20
-230.999357
 30
0.0
 10
1580.873641
 20
-214.799357
 30
0.0
 10
1588.973641
 20
-198.620617
 30
0.0
 10
1597.073641
 20
-190.520617
 30
0.0
 10
1610.063405
 20
-183.441090
 30
0.0
 10
1626.284665
 20
-182.569436
 30
0.0
 10
1642.527184
 20
-182.419200
 30
0.0
 10
1660.576791
 20
-182.164082
 30
0.0
 10
1678.626397
 20
-181.356208
 30
0.0
 10
1696.527184
 20
-179.123924
 30
0.0
 10
1704.520885
 20
-170.109751
 30
0.0
 10
1699.652381
 20
-160.819200
 30
0.0
 10
1694.252381
 20
-144.619200
 30
0.0
 10
1686.790176
 20
-128.419200
 30
0.0
 10
1679.455531
 20
-114.919200
 30
0.0
 10
1677.074428
 20
-98.761436
 30
0.0
 10
1675.522460
 20
-82.518917
 30
0.0
 10
1673.970491
 20
-66.234161
 30
0.0
 10
1671.589389
 20
-50.033877
 30
0.0
 10
1664.084665
 20
-36.640460
 30
0.0
 10
1657.132696
 20
-24.713688
 30
0.0
 10
1656.473641
 20
-9.640460
 30
0.0
 10
1657.111436
 20
5.666910
 30
0.0
 10
1664.573641
 20
17.359540
 30
0.0
 10
1672.673641
 20
25.459824
 30
0.0
 10
1688.852381
 20
33.559824
 30
0.0
 10
1705.052381
 20
26.055099
 30
0.0
 10
1712.961043
 20
18.401272
 30
0.0
 10
1723.952381
 20
15.020957
 30
0.0
 10
1735.113798
 20
11.619666
 30
0.0
 10
1742.852381
 20
3.625682
 30
0.0
 10
1756.352381
 20
-4.240460
 30
0.0
 10
1769.852665
 20
-9.640460
 30
0.0
 10
1780.652665
 20
-15.040460
 30
0.0
 10
1791.452665
 20
-23.140460
 30
0.0
 10
1807.652665
 20
-31.240460
 30
0.0
 10
1822.810649
 20
-24.947263
 30
0.0
 10
1823.852665
 20
-6.940460
 30
0.0
 10
1824.575499
 20
7.048517
 30
0.0
 10
1831.952665
 20
17.359540
 30
0.0
 10
1840.052665
 20
25.459824
 30
0.0
 10
1856.231121
 20
33.559824
 30
0.0
 10
1867.477578
 20
32.135131
 30
0.0
 10
1872.431405
 20
22.759824
 30
0.0
 10
1880.531405
 20
11.959540
 30
0.0
 10
1888.631405
 20
-1.540460
 30
0.0
 10
1894.031405
 20
-15.040460
 30
0.0
 10
1899.431405
 20
-25.840460
 30
0.0
 10
1906.914869
 20
-36.618917
 30
0.0
 10
1915.014869
 20
-47.206602
 30
0.0
 10
1918.055027
 20
-60.918917
 30
0.0
 10
1923.114869
 20
-81.116050
 30
0.0
 10
1942.971562
 20
-85.218917
 30
0.0
 10
1955.451090
 20
-86.069594
 30
0.0
 10
1964.231405
 20
-93.319200
 30
0.0
 10
1980.431405
 20
-101.419200
 30
0.0
 10
1996.631405
 20
-106.819200
 30
0.0
 10
2008.090460
 20
-111.390066
 30
0.0
 10
2020.910145
 20
-112.219200
 30
0.0
 10
2034.899121
 20
-112.942035
 30
0.0
 10
2045.210145
 20
-120.319200
 30
0.0
 10
2057.158176
 20
-127.356208
 30
0.0
 10
2072.358964
 20
-128.270381
 30
0.0
 10
2087.602271
 20
-128.420617
 30
0.0
 10
2105.843216
 20
-128.548176
 30
0.0
 10
2124.062901
 20
-128.973373
 30
0.0
 10
2142.282586
 20
-129.738728
 30
0.0
 10
2160.481011
 20
-130.908019
 30
0.0
 10
2178.636917
 20
-132.672586
 30
0.0
 10
2196.665263
 20
-135.457625
 30
0.0
 10
2212.588885
 20
-142.707231
 30
0.0
 10
2227.151877
 20
-148.978885
 30
0.0
 10
2244.159751
 20
-149.850539
 30
0.0
 10
2261.188885
 20
-150.020617
 30
0.0
 10
2278.473137
 20
-149.870381
 30
0.0
 10
2295.714869
 20
-149.041247
 30
0.0
 10
2309.788885
 20
-141.919200
 30
0.0
 10
2323.076287
 20
-135.158570
 30
0.0
 10
2339.318806
 20
-134.159357
 30
0.0
 10
2355.603846
 20
-133.881562
 30
0.0
 10
2371.867625
 20
-133.816365
 30
0.0
 10
2388.237704
 20
-133.751169
 30
0.0
 10
2404.607783
 20
-133.476208
 30
0.0
 10
2420.935342
 20
-132.498255
 30
0.0
 10
2433.967625
 20
-125.333688
 30
0.0
 10
2426.930617
 20
-110.132901
 30
0.0
 10
2412.750302
 20
-101.416365
 30
0.0
 10
2406.967625
 20
-93.996680
 30
0.0
 10
2390.767625
 20
-83.324239
 30
0.0
 10
2374.567625
 20
-71.865184
 30
0.0
 10
2366.467625
 20
-63.616365
 30
0.0
 10
2358.367625
 20
-58.216365
 30
0.0
 10
2347.588885
 20
-52.816365
 30
0.0
 10
2336.788885
 20
-44.822665
 30
0.0
 10
2323.756602
 20
-33.554948
 30
0.0
 10
2313.424318
 20
-27.602192
 30
0.0
 10
2307.450302
 20
-17.269909
 30
0.0
 10
2301.858964
 20
-7.235263
 30
0.0
 10
2290.782586
 20
-4.237625
 30
0.0
 10
2277.388885
 20
3.245839
 30
0.0
 10
2266.588885
 20
13.535603
 30
0.0
 10
2255.788885
 20
24.952139
 30
0.0
 10
2250.006208
 20
33.562375
 30
0.0
 10
2236.782586
 20
41.173398
 30
0.0
 10
2228.788885
 20
54.141902
 30
0.0
 10
2217.988885
 20
62.135603
 30
0.0
 10
2207.188885
 20
73.552139
 30
0.0
 10
2201.406208
 20
82.162375
 30
0.0
 10
2188.182586
 20
89.773398
 30
0.0
 10
2180.210145
 20
102.763162
 30
0.0
 10
2171.684948
 20
108.694658
 30
0.0
 10
2161.310145
 20
111.500957
 30
0.0
 10
2150.850302
 20
114.392296
 30
0.0
 10
2142.410145
 20
120.578910
 30
0.0
 10
2134.522743
 20
133.823792
 30
0.0
 10
2121.192822
 20
141.541398
 30
0.0
 10
2115.410145
 20
150.151351
 30
0.0
 10
2104.610145
 20
161.589146
 30
0.0
 10
2093.810145
 20
169.561587
 30
0.0
 10
2085.901483
 20
182.466312
 30
0.0
 10
2072.847940
 20
190.141398
 30
0.0
 10
2066.661326
 20
198.581272
 30
0.0
 10
2063.748728
 20
209.041398
 30
0.0
 10
2060.963688
 20
219.416202
 30
0.0
 10
2055.032192
 20
227.941398
 30
0.0
 10
2042.212507
 20
235.722501
 30
0.0
 10
2034.410145
 20
248.520926
 30
0.0
 10
2023.610145
 20
256.493367
 30
0.0
 10
2012.831405
 20
267.931162
 30
0.0
 10
2007.027468
 20
276.541398
 30
0.0
 10
1993.633767
 20
284.343761
 30
0.0
 10
1985.831405
 20
297.737178
 30
0.0
 10
1977.731405
 20
303.541398
 30
0.0
 10
1969.631405
 20
295.441398
 30
0.0
 10
1958.831405
 20
287.341398
 30
0.0
 10
1948.031405
 20
281.941398
 30
0.0
 10
1934.531405
 20
276.541398
 30
0.0
 10
1921.031405
 20
268.441398
 30
0.0
 10
1904.916444
 20
261.574469
 30
0.0
 10
1886.016161
 20
260.660296
 30
0.0
 10
1867.073641
 20
260.385335
 30
0.0
 10
1848.131121
 20
260.342816
 30
0.0
 10
1829.210145
 20
260.385335
 30
0.0
 10
1810.267625
 20
260.660296
 30
0.0
 10
1791.346082
 20
261.574469
 30
0.0
 10
1775.252665
 20
268.441398
 30
0.0
 10
1764.452665
 20
276.541398
 30
0.0
 10
1753.652381
 20
281.941398
 30
0.0
 10
1740.152381
 20
287.341398
 30
0.0
 10
1726.652381
 20
295.930375
 30
0.0
 10
1715.852381
 20
307.368170
 30
0.0
 10
1705.052381
 20
315.340611
 30
0.0
 10
1697.143720
 20
328.245335
 30
0.0
 10
1684.090176
 20
335.920139
 30
0.0
 10
1677.903562
 20
344.360296
 30
0.0
 10
1675.012224
 20
354.820139
 30
0.0
 10
1671.631909
 20
365.811477
 30
0.0
 10
1663.957106
 20
373.720139
 30
0.0
 10
1656.473641
 20
387.220139
 30
0.0
 10
1651.073641
 20
400.720139
 30
0.0
 10
1646.481515
 20
413.561083
 30
0.0
 10
1645.673641
 20
427.720139
 30
0.0
 10
1645.014586
 20
443.027225
 30
0.0
 10
1637.573641
 20
454.720139
 30
0.0
 10
1629.473641
 20
468.220139
 30
0.0
 10
1637.573641
 20
481.698879
 30
0.0
 10
1645.120885
 20
496.155572
 30
0.0
 10
1645.673641
 20
514.098879
 30
0.0
 10
1646.438995
 20
530.894154
 30
0.0
 10
1651.073641
 20
546.498879
 30
0.0
 10
1656.473641
 20
557.298879
 30
0.0
 10
1664.701200
 20
568.098870
 30
0.0
 10
1676.181515
 20
584.298870
 30
0.0
 10
1686.832696
 20
600.498870
 30
0.0
 10
1694.252381
 20
606.281547
 30
0.0
 10
1701.863405
 20
619.505169
 30
0.0
 10
1714.853169
 20
627.498870
 30
0.0
 10
1723.038208
 20
640.105957
 30
0.0
 10
1724.441357
 20
656.050839
 30
0.0
 10
1723.123247
 20
672.038240
 30
0.0
 10
1720.061830
 20
683.688634
 30
0.0
 10
1712.472066
 20
692.277610
 30
0.0
 10
1705.052381
 20
703.077610
 30
0.0
 10
1699.652381
 20
713.877610
 30
0.0
 10
1694.252381
 20
726.739815
 30
0.0
 10
1683.452381
 20
742.450839
 30
0.0
 10
1674.905924
 20
748.701232
 30
0.0
 10
1672.673641
 20
759.267374
 30
0.0
 10
1664.573641
 20
773.277610
 30
0.0
 10
1657.430334
 20
780.846114
 30
0.0
 10
1656.473641
 20
792.177610
 30
0.0
 10
1651.073641
 20
811.077610
 30
0.0
 10
1645.673641
 20
824.556351
 30
0.0
 10
1637.892539
 20
838.056351
 30
0.0
 10
1629.537420
 20
848.516194
 30
0.0
 10
1626.497263
 20
862.356351
 30
0.0
 10
1623.435846
 20
876.068949
 30
0.0
 10
1615.357106
 20
886.656351
 30
0.0
 10
1607.873641
 20
902.856351
 30
0.0
 10
1602.473641
 20
919.056351
 30
0.0
 10
1597.073641
 20
929.856351
 30
0.0
 10
1589.675216
 20
940.656351
 30
0.0
 10
1581.192539
 20
958.110681
 30
0.0
 10
1578.556318
 20
978.456351
 30
0.0
 10
1575.898838
 20
998.950839
 30
0.0
 10
1567.054743
 20
1016.235091
 30
0.0
 10
1560.230334
 20
1023.973673
 30
0.0
 10
1559.273641
 20
1035.135091
 30
0.0
 10
1560.230334
 20
1046.424067
 30
0.0
 10
1567.267342
 20
1054.035091
 30
0.0
 10
1578.662617
 20
1067.535091
 30
0.0
 10
1584.020098
 20
1077.718839
 30
0.0
 10
1594.968917
 20
1081.035091
 30
0.0
 10
1607.873641
 20
1072.935091
 30
0.0
 10
1618.673641
 20
1064.835091
 30
0.0
 10
1629.473641
 20
1059.435091
 30
0.0
 10
1639.529546
 20
1054.885768
 30
0.0
 10
1651.073641
 20
1054.035091
 30
0.0
 10
1663.510649
 20
1053.205957
 30
0.0
 10
1672.673641
 20
1046.360571
 30
0.0
 10
1688.618523
 20
1037.665295
 30
0.0
 10
1707.752381
 20
1034.943752
 30
0.0
 10
1726.801200
 20
1032.222776
 30
0.0
 10
1742.852381
 20
1023.718839
 30
0.0
 10
1753.461043
 20
1016.979185
 30
0.0
 10
1767.152665
 20
1016.235091
 30
0.0
 10
1779.993326
 20
1015.427500
 30
0.0
 10
1791.452665
 20
1010.835091
 30
0.0
 10
1807.652665
 20
1005.435091
 30
0.0
 10
1823.852665
 20
997.824067
 30
0.0
 10
1839.542428
 20
990.808319
 30
0.0
 10
1857.655814
 20
988.767374
 30
0.0
 10
1875.832980
 20
987.428288
 30
0.0
 10
1894.031405
 20
986.343752
 30
0.0
 10
1912.187027
 20
985.259500
 30
0.0
 10
1930.343216
 20
983.898870
 30
0.0
 10
1948.414082
 20
981.857925
 30
0.0
 10
1964.231405
 20
975.054776
 30
0.0
 10
1979.644791
 20
968.655563
 30
0.0
 10
1997.566838
 20
967.805169
 30
0.0
 10
2015.531405
 20
967.654933
 30
0.0
 10
2032.943216
 20
967.377138
 30
0.0
 10
2050.355027
 20
966.377925
 30
0.0
 10
2066.810145
 20
962.253516
 30
0.0
 10
2082.840066
 20
957.023595
 30
0.0
 10
2100.549515
 20
956.981075
 30
0.0
 10
2118.131405
 20
958.851941
 30
0.0
 10
2134.692822
 20
964.549579
 30
0.0
 10
2141.793609
 20
978.453232
 30
0.0
 10
2128.910145
 20
987.021232
 30
0.0
 10
2115.410145
 20
997.927532
 30
0.0
 10
2106.927468
 20
1005.432256
 30
0.0
 10
2091.918019
 20
1012.299185
 30
0.0
 10
2083.010145
 20
1026.011784
 30
0.0
 10
2072.210145
 20
1034.005484
 30
0.0
 10
2061.410145
 20
1045.422020
 30
0.0
 10
2053.310145
 20
1054.032256
 30
0.0
 10
2045.210145
 20
1059.432256
 30
0.0
 10
2031.710145
 20
1064.832256
 30
0.0
 10
2018.210145
 20
1073.442492
 30
0.0
 10
2007.431405
 20
1084.859028
 30
0.0
 10
1996.631405
 20
1092.852729
 30
0.0
 10
1987.723531
 20
1106.565327
 30
0.0
 10
1972.714082
 20
1113.432256
 30
0.0
 10
1964.231405
 20
1108.032256
 30
0.0
 10
1956.131405
 20
1102.632256
 30
0.0
 10
1948.031405
 20
1094.532256
 30
0.0
 10
1934.021169
 20
1086.432256
 30
0.0
 10
1923.476287
 20
1084.178713
 30
0.0
 10
1917.204633
 20
1075.632256
 30
0.0
 10
1907.680224
 20
1066.044067
 30
0.0
 10
1893.414869
 20
1064.832256
 30
0.0
 10
1882.168129
 20
1063.981862
 30
0.0
 10
1872.431405
 20
1059.432256
 30
0.0
 10
1853.233767
 20
1055.265327
 30
0.0
 10
1833.143216
 20
1054.287374
 30
0.0
 10
1813.052665
 20
1054.032256
 30
0.0
 10
1792.940570
 20
1054.287374
 30
0.0
 10
1772.850019
 20
1055.265327
 30
0.0
 10
1753.652381
 20
1059.432256
 30
0.0
 10
1737.452381
 20
1064.832256
 30
0.0
 10
1721.252381
 20
1072.868477
 30
0.0
 10
1712.493326
 20
1081.181075
 30
0.0
 10
1700.098838
 20
1084.285012
 30
0.0
 10
1684.876791
 20
1088.409421
 30
0.0
 10
1675.692539
 20
1100.548791
 30
0.0
 10
1664.467342
 20
1113.432256
 30
0.0
 10
1656.473641
 20
1121.532256
 30
0.0
 10
1651.073641
 20
1129.632265
 30
0.0
 10
1645.673641
 20
1140.432265
 30
0.0
 10
1637.424822
 20
1151.232265
 30
0.0
 10
1625.965767
 20
1167.411005
 30
0.0
 10
1615.293326
 20
1183.611005
 30
0.0
 10
1609.170491
 20
1200.151162
 30
0.0
 10
1608.235058
 20
1218.923603
 30
0.0
 10
1607.937420
 20
1237.717304
 30
0.0
 10
1607.872224
 20
1256.511005
 30
0.0
 10
1607.937420
 20
1275.325965
 30
0.0
 10
1608.235058
 20
1294.119666
 30
0.0
 10
1609.170491
 20
1312.892107
 30
0.0
 10
1615.357106
 20
1329.389745
 30
0.0
 10
1623.435846
 20
1339.977146
 30
0.0
 10
1626.497263
 20
1353.689745
 30
0.0
 10
1629.537420
 20
1367.551162
 30
0.0
 10
1637.892539
 20
1377.989773
 30
0.0
 10
1645.673641
 20
1386.089773
 30
0.0
 10
1651.073641
 20
1394.189773
 30
0.0
 10
1656.473641
 20
1410.389773
 30
0.0
 10
1651.073641
 20
1426.589773
 30
0.0
 10
1645.673641
 20
1434.689773
 30
0.0
 10
1637.679940
 20
1442.789773
 30
0.0
 10
1626.412224
 20
1455.822085
 30
0.0
 10
1620.438208
 20
1466.154369
 30
0.0
 10
1610.105924
 20
1472.107124
 30
0.0
 10
1597.073641
 20
1483.374813
 30
0.0
 10
1589.079940
 20
1491.389773
 30
0.0
 10
1577.812224
 20
1504.400854
 30
0.0
 10
1571.838208
 20
1514.733137
 30
0.0
 10
1561.505924
 20
1520.707124
 30
0.0
 10
1548.473641
 20
1531.974813
 30
0.0
 10
1540.373641
 20
1539.968542
 30
0.0
 10
1532.273641
 20
1553.978778
 30
0.0
 10
1530.020098
 20
1564.544920
 30
0.0
 10
1521.473641
 20
1570.795342
 30
0.0
 10
1510.673641
 20
1578.789071
 30
0.0
 10
1502.892539
 20
1591.566236
 30
0.0
 10
1490.094113
 20
1599.368542
 30
0.0
 10
1482.121672
 20
1610.168542
 30
0.0
 10
1470.683877
 20
1620.968542
 30
0.0
 10
1462.094901
 20
1634.468627
 30
0.0
 10
1456.694901
 20
1647.968627
 30
0.0
 10
1451.294901
 20
1656.068627
 30
0.0
 10
1442.684693
 20
1664.168627
 30
0.0
 10
1431.268101
 20
1674.947339
 30
0.0
 10
1420.957106
 20
1685.747339
 30
0.0
 10
1413.494901
 20
1699.141039
 30
0.0
 10
1410.327213
 20
1710.408756
 30
0.0
 10
1399.973613
 20
1715.936315
 30
0.0
 10
1387.409074
 20
1724.716658
 30
0.0
 10
1383.157106
 20
1739.917417
 30
0.0
 10
1379.011408
 20
1754.799364
 30
0.0
 10
1366.978337
 20
1763.728498
 30
0.0
 10
1354.094901
 20
1774.953666
 30
0.0
 10
1345.994901
 20
1782.947395
 30
0.0
 10
1337.894901
 20
1796.447395
 30
0.0
 10
1327.116132
 20
1809.947395
 30
0.0
 10
1316.316132
 20
1804.164661
 30
0.0
 10
1308.705137
 20
1790.941039
 30
0.0
 10
1295.736576
 20
1782.947395
 30
0.0
 10
1287.742876
 20
1772.147395
 30
0.0
 10
1276.326369
 20
1761.347395
 30
0.0
 10
1267.716132
 20
1755.564661
 30
0.0
 10
1260.105052
 20
1742.341039
 30
0.0
 10
1247.136576
 20
1734.347395
 30
0.0
 10
1238.930306
 20
1721.740280
 30
0.0
 10
1237.527128
 20
1705.774139
 30
0.0
 10
1238.866498
 20
1689.807969
 30
0.0
 10
1241.906683
 20
1678.157546
 30
0.0
 10
1249.496391
 20
1669.547339
 30
0.0
 10
1256.916132
 20
1658.768627
 30
0.0
 10
1262.316132
 20
1647.968627
 30
0.0
 10
1267.716132
 20
1631.768627
 30
0.0
 10
1275.199569
 20
1615.568542
 30
0.0
 10
1283.278337
 20
1604.981169
 30
0.0
 10
1286.339754
 20
1591.268542
 30
0.0
 10
1289.379883
 20
1577.428413
 30
0.0
 10
1297.735030
 20
1566.968542
 30
0.0
 10
1304.665710
 20
1558.081956
 30
0.0
 10
1305.516132
 20
1545.793739
 30
0.0
 10
1303.687786
 20
1528.934712
 30
0.0
 10
1289.316132
 20
1521.068542
 30
0.0
 10
1271.606683
 20
1519.516573
 30
0.0
 10
1254.046025
 20
1522.089014
 30
0.0
 10
1240.716132
 20
1532.293739
 30
0.0
 10
1224.516076
 20
1539.968542
 30
0.0
 10
1208.316076
 20
1545.368542
 30
0.0
 10
1200.216076
 20
1550.768542
 30
0.0
 10
1192.116076
 20
1558.549644
 30
0.0
 10
1181.677493
 20
1566.904791
 30
0.0
 10
1167.816076
 20
1569.944920
 30
0.0
 10
1154.103506
 20
1573.006337
 30
0.0
 10
1143.537364
 20
1581.085134
 30
0.0
 10
1132.737364
 20
1588.568542
 30
0.0
 10
1121.937279
 20
1593.968542
 30
0.0
 10
1108.437279
 20
1599.368542
 30
0.0
 10
1094.937279
 20
1593.968542
 30
0.0
 10
1084.137279
 20
1588.568542
 30
0.0
 10
1073.337279
 20
1580.574898
 30
0.0
 10
1060.304995
 20
1569.307124
 30
0.0
 10
1049.972769
 20
1563.333137
 30
0.0
 10
1043.998724
 20
1553.000854
 30
0.0
 10
1032.731008
 20
1539.968542
 30
0.0
 10
1024.737279
 20
1531.974813
 30
0.0
 10
1011.237279
 20
1520.600854
 30
0.0
 10
997.737279
 20
1509.694498
 30
0.0
 10
986.958510
 20
1502.168542
 30
0.0
 10
976.158510
 20
1496.768542
 30
0.0
 10
962.764866
 20
1491.389773
 30
0.0
 10
951.497093
 20
1494.536258
 30
0.0
 10
945.969506
 20
1504.868542
 30
0.0
 10
935.063235
 20
1518.368542
 30
0.0
 10
927.558510
 20
1534.568542
 30
0.0
 10
934.850608
 20
1550.768542
 30
0.0
 10
942.036520
 20
1566.692164
 30
0.0
 10
944.204995
 20
1585.018205
 30
0.0
 10
945.608173
 20
1603.407969
 30
0.0
 10
946.904995
 20
1623.222142
 30
0.0
 10
948.074230
 20
1643.036315
 30
0.0
 10
948.945969
 20
1662.871720
 30
0.0
 10
948.754630
 20
1682.728413
 30
0.0
 10
938.358567
 20
1696.547339
 30
0.0
 10
927.558567
 20
1704.647339
 30
0.0
 10
913.548331
 20
1712.747339
 30
0.0
 10
903.003420
 20
1715.000939
 30
0.0
 10
896.731767
 20
1723.547395
 30
0.0
 10
881.042003
 20
1734.347395
 30
0.0
 10
868.158567
 20
1739.747395
 30
0.0
 10
857.358567
 20
1745.147395
 30
0.0
 10
846.558567
 20
1752.567080
 30
0.0
 10
837.586913
 20
1760.263115
 30
0.0
 10
825.553843
 20
1763.324561
 30
0.0
 10
810.140457
 20
1767.576529
 30
0.0
 10
801.168803
 20
1780.204876
 30
0.0
 10
789.773528
 20
1793.747395
 30
0.0
 10
781.779798
 20
1804.547395
 30
0.0
 10
789.879798
 20
1815.347395
 30
0.0
 10
797.979798
 20
1823.447395
 30
0.0
 10
813.797150
 20
1831.037187
 30
0.0
 10
833.058567
 20
1831.547395
 30
0.0
 10
851.193184
 20
1832.270258
 30
0.0
 10
868.158567
 20
1836.926164
 30
0.0
 10
887.866469
 20
1841.645849
 30
0.0
 10
908.658567
 20
1842.326164
 30
0.0
 10
923.285367
 20
1842.496243
 30
0.0
 10
937.869562
 20
1843.431704
 30
0.0
 10
949.158567
 20
1850.426192
 30
0.0
 10
957.747572
 20
1857.675770
 30
0.0
 10
970.078252
 20
1858.526192
 30
0.0
 10
987.064923
 20
1860.503357
 30
0.0
 10
994.378309
 20
1875.406535
 30
0.0
 10
996.780643
 20
1892.882126
 30
0.0
 10
997.737335
 20
1910.506535
 30
0.0
 10
998.757780
 20
1921.497846
 30
0.0
 10
1005.837335
 20
1928.726192
 30
0.0
 10
1013.363291
 20
1941.779735
 30
0.0
 10
1013.937335
 20
1958.426192
 30
0.0
 10
1014.745238
 20
1973.882126
 30
0.0
 10
1019.337335
 20
1988.126192
 30
0.0
 10
1023.929433
 20
1999.585304
 30
0.0
 10
1024.737335
 20
2012.404989
 30
0.0
 10
1025.460198
 20
2026.393965
 30
0.0
 10
1032.837335
 20
2036.704989
 30
0.0
 10
1040.937335
 20
2044.804989
 30
0.0
 10
1057.137335
 20
2052.904989
 30
0.0
 10
1073.337335
 20
2044.804989
 30
0.0
 10
1080.820857
 20
2036.704989
 30
0.0
 10
1088.899540
 20
2026.138819
 30
0.0
 10
1091.960957
 20
2012.404989
 30
0.0
 10
1095.001172
 20
1998.564775
 30
0.0
 10
1103.356233
 20
1988.126192
 30
0.0
 10
1111.137335
 20
1974.626192
 30
0.0
 10
1116.537335
 20
1961.126192
 30
0.0
 10
1121.937335
 20
1950.326192
 30
0.0
 10
1129.420857
 20
1939.526192
 30
0.0
 10
1137.499625
 20
1928.938819
 30
0.0
 10
1140.539754
 20
1915.226192
 30
0.0
 10
1143.601172
 20
1901.386006
 30
0.0
 10
1151.956318
 20
1890.926192
 30
0.0
 10
1159.737420
 20
1885.526192
 30
0.0
 10
1177.106655
 20
1881.380494
 30
0.0
 10
1195.390176
 20
1880.381282
 30
0.0
 10
1213.716132
 20
1880.126164
 30
0.0
 10
1234.572038
 20
1880.168967
 30
0.0
 10
1255.406740
 20
1880.934265
 30
0.0
 10
1267.716189
 20
1893.520091
 30
0.0
 10
1264.761043
 20
1904.554006
 30
0.0
 10
1254.832696
 20
1910.145317
 30
0.0
 10
1242.693354
 20
1919.350828
 30
0.0
 10
1238.568945
 20
1934.551616
 30
0.0
 10
1235.486211
 20
1946.967392
 30
0.0
 10
1227.152381
 20
1955.726419
 30
0.0
 10
1219.116132
 20
1964.209068
 30
0.0
 10
1212.142932
 20
1979.324872
 30
0.0
 10
1198.153928
 20
1988.126419
 30
0.0
 10
1191.967313
 20
1996.545317
 30
0.0
 10
1189.076003
 20
2007.005216
 30
0.0
 10
1186.269732
 20
2017.401250
 30
0.0
 10
1180.338180
 20
2025.905216
 30
0.0
 10
1167.348416
 20
2033.898917
 30
0.0
 10
1159.737420
 20
2047.122567
 30
0.0
 10
1152.296447
 20
2052.905216
 30
0.0
 10
1141.645238
 20
2069.105216
 30
0.0
 10
1130.164923
 20
2085.305216
 30
0.0
 10
1121.937335
 20
2093.298917
 30
0.0
 10
1108.394816
 20
2104.694192
 30
0.0
 10
1095.851509
 20
2113.474535
 30
0.0
 10
1091.578309
 20
2128.654091
 30
0.0
 10
1087.453928
 20
2143.557184
 30
0.0
 10
1075.420857
 20
2152.465087
 30
0.0
 10
1062.537335
 20
2163.690255
 30
0.0
 10
1055.053928
 20
2171.705272
 30
0.0
 10
1046.975131
 20
2182.271443
 30
0.0
 10
1043.913713
 20
2195.983984
 30
0.0
 10
1040.873584
 20
2209.845402
 30
0.0
 10
1032.518438
 20
2220.283984
 30
0.0
 10
1024.737335
 20
2225.683984
 30
0.0
 10
1013.278309
 20
2230.276167
 30
0.0
 10
1000.437335
 20
2231.083984
 30
0.0
 10
986.469647
 20
2231.806819
 30
0.0
 10
976.158567
 20
2239.183984
 30
0.0
 10
966.187701
 20
2246.539890
 30
0.0
 10
952.538882
 20
2247.283984
 30
0.0
 10
931.938123
 20
2248.049367
 30
0.0
 10
911.571194
 20
2251.047033
 30
0.0
 10
895.158567
 20
2261.464299
 30
0.0
 10
889.375918
 20
2268.881887
 30
0.0
 10
876.152296
 20
2276.499317
 30
0.0
 10
868.158567
 20
2289.493304
 30
0.0
 10
859.654630
 20
2295.418450
 30
0.0
 10
849.258567
 20
2298.222624
 30
0.0
 10
835.609691
 20
2302.442731
 30
0.0
 10
830.358567
 20
2315.022180
 30
0.0
 10
824.979798
 20
2328.275509
 30
0.0
 10
819.579798
 20
2336.373411
 30
0.0
 10
812.138825
 20
2344.473411
 30
0.0
 10
802.125496
 20
2359.189446
 30
0.0
 10
798.872740
 20
2377.679216
 30
0.0
 10
797.979798
 20
2396.440970
 30
0.0
 10
796.959354
 20
2407.430211
 30
0.0
 10
789.879798
 20
2414.664935
 30
0.0
 10
782.247487
 20
2431.855672
 30
0.0
 10
781.779798
 20
2452.460740
 30
0.0
 10
782.290006
 20
2472.736224
 30
0.0
 10
789.178252
 20
2490.254362
 30
0.0
 10
797.278252
 20
2502.238535
 30
0.0
 10
800.169562
 20
2517.252180
 30
0.0
 10
803.039669
 20
2532.508299
 30
0.0
 10
811.649906
 20
2544.247984
 30
0.0
 10
819.579798
 20
2557.745887
 30
0.0
 10
824.979798
 20
2571.245887
 30
0.0
 10
830.358567
 20
2578.714441
 30
0.0
 10
841.158567
 20
2589.008428
 30
0.0
 10
851.958567
 20
2600.435650
 30
0.0
 10
857.741216
 20
2609.039509
 30
0.0
 10
870.964838
 20
2616.635650
 30
0.0
 10
878.958567
 20
2629.576517
 30
0.0
 10
893.755389
 20
2637.410740
 30
0.0
 10
910.869562
 20
2640.425443
 30
0.0
 10
928.238882
 20
2641.435228
 30
0.0
 10
943.758567
 20
2649.535228
 30
0.0
 10
961.531852
 20
2656.755099
 30
0.0
 10
982.323950
 20
2657.509824
 30
0.0
 10
1003.137335
 20
2657.635115
 30
0.0
 10
1023.780643
 20
2657.492816
 30
0.0
 10
1044.381430
 20
2656.704104
 30
0.0
 10
1062.537335
 20
2650.147540
 30
0.0
 10
1073.124794
 20
2642.062365
 30
0.0
 10
1086.837335
 20
2639.017984
 30
0.0
 10
1099.869647
 20
2636.207433
 30
0.0
 10
1111.137335
 20
2629.920926
 30
0.0
 10
1119.938967
 20
2615.989294
 30
0.0
 10
1135.054687
 20
2609.039509
 30
0.0
 10
1143.537420
 20
2598.241606
 30
0.0
 10
1151.637420
 20
2587.443704
 30
0.0
 10
1159.737420
 20
2581.658957
 30
0.0
 10
1167.327184
 20
2568.448091
 30
0.0
 10
1180.274457
 20
2560.445887
 30
0.0
 10
1188.098079
 20
2545.661735
 30
0.0
 10
1191.116891
 20
2528.539087
 30
0.0
 10
1192.116132
 20
2511.178299
 30
0.0
 10
1200.216132
 20
2495.654362
 30
0.0
 10
1207.380728
 20
2480.655487
 30
0.0
 10
1208.188630
 20
2462.518743
 30
0.0
 10
1208.316189
 20
2444.360740
 30
0.0
 10
1208.188630
 20
2426.204806
 30
0.0
 10
1207.380728
 20
2408.068006
 30
0.0
 10
1200.216132
 20
2393.067033
 30
0.0
 10
1192.966554
 20
2384.441943
 30
0.0
 10
1192.116132
 20
2372.083597
 30
0.0
 10
1196.346869
 20
2352.430970
 30
0.0
 10
1216.416132
 20
2347.456167
 30
0.0
 10
1230.256318
 20
2344.405380
 30
0.0
 10
1240.716189
 20
2336.043855
 30
0.0
 10
1254.216189
 20
2328.275509
 30
0.0
 10
1267.716189
 20
2322.875509
 30
0.0
 10
1286.616189
 20
2317.477691
 30
0.0
 10
1297.607528
 20
2316.514592
 30
0.0
 10
1305.516189
 20
2310.083490
 30
0.0
 10
1322.524091
 20
2300.199789
 30
0.0
 10
1342.912252
 20
2296.929997
 30
0.0
 10
1363.555531
 20
2295.939317
 30
0.0
 10
1374.206740
 20
2294.838028
 30
0.0
 10
1381.094957
 20
2287.779789
 30
0.0
 10
1397.209918
 20
2280.921335
 30
0.0
 10
1416.131150
 20
2280.007162
 30
0.0
 10
1435.052438
 20
2279.737304
 30
0.0
 10
1453.994901
 20
2279.681745
 30
0.0
 10
1472.788602
 20
2279.747792
 30
0.0
 10
1491.561043
 20
2280.049682
 30
0.0
 10
1510.333483
 20
2280.987241
 30
0.0
 10
1526.873641
 20
2287.084592
 30
0.0
 10
1538.864192
 20
2295.195165
 30
0.0
 10
1553.873641
 20
2298.069553
 30
0.0
 10
1569.138208
 20
2300.946009
 30
0.0
 10
1580.873641
 20
2309.562624
 30
0.0
 10
1588.973641
 20
2317.477663
 30
0.0
 10
1597.073641
 20
2322.875509
 30
0.0
 10
1588.973641
 20
2328.275509
 30
0.0
 10
1580.873641
 20
2336.879424
 30
0.0
 10
1570.073641
 20
2348.308658
 30
0.0
 10
1559.273641
 20
2356.287477
 30
0.0
 10
1551.279940
 20
2369.262387
 30
0.0
 10
1538.056318
 20
2376.869187
 30
0.0
 10
1532.273641
 20
2385.473046
 30
0.0
 10
1521.473641
 20
2396.902309
 30
0.0
 10
1510.673641
 20
2404.881184
 30
0.0
 10
1502.701200
 20
2417.856009
 30
0.0
 10
1489.477578
 20
2425.462809
 30
0.0
 10
1483.694901
 20
2434.066668
 30
0.0
 10
1472.894901
 20
2445.495987
 30
0.0
 10
1462.094901
 20
2453.474806
 30
0.0
 10
1454.101200
 20
2466.449631
 30
0.0
 10
1440.877606
 20
2474.056431
 30
0.0
 10
1435.094957
 20
2482.662387
 30
0.0
 10
1424.294957
 20
2494.089609
 30
0.0
 10
1413.494957
 20
2502.068428
 30
0.0
 10
1405.586296
 20
2514.973153
 30
0.0
 10
1392.532781
 20
2522.650082
 30
0.0
 10
1386.346082
 20
2531.088085
 30
0.0
 10
1383.433540
 20
2541.547984
 30
0.0
 10
1380.648501
 20
2551.926983
 30
0.0
 10
1374.716976
 20
2560.445858
 30
0.0
 10
1361.897291
 20
2568.229058
 30
0.0
 10
1354.094957
 20
2581.027512
 30
0.0
 10
1343.294957
 20
2589.008428
 30
0.0
 10
1332.516189
 20
2600.435650
 30
0.0
 10
1324.416189
 20
2609.039509
 30
0.0
 10
1316.316189
 20
2622.435307
 30
0.0
 10
1313.318523
 20
2633.513783
 30
0.0
 10
1303.283906
 20
2639.100926
 30
0.0
 10
1292.951594
 20
2645.070690
 30
0.0
 10
1286.977606
 20
2655.403002
 30
0.0
 10
1275.709833
 20
2668.433131
 30
0.0
 10
1267.716189
 20
2679.231033
 30
0.0
 10
1262.316189
 20
2690.031033
 30
0.0
 10
1256.916189
 20
2698.128850
 30
0.0
 10
1248.922460
 20
2706.228850
 30
0.0
 10
1237.527184
 20
2719.726753
 30
0.0
 10
1226.642145
 20
2733.224655
 30
0.0
 10
1219.116132
 20
2741.709458
 30
0.0
 10
1212.142932
 20
2756.835836
 30
0.0
 10
1198.153928
 20
2765.620375
 30
0.0
 10
1191.967313
 20
2774.056309
 30
0.0
 10
1189.076003
 20
2784.518277
 30
0.0
 10
1186.269732
 20
2794.897361
 30
0.0
 10
1180.338180
 20
2803.416180
 30
0.0
 10
1166.604350
 20
2812.315521
 30
0.0
 10
1159.737420
 20
2827.327153
 30
0.0
 10
1152.211380
 20
2835.811899
 30
0.0
 10
1141.305109
 20
2849.309802
 30
0.0
 10
1129.931065
 20
2862.807704
 30
0.0
 10
1121.937335
 20
2873.607704
 30
0.0
 10
1116.537335
 20
2884.405521
 30
0.0
 10
1111.137335
 20
2897.903424
 30
0.0
 10
1103.271279
 20
2911.403424
 30
0.0
 10
1095.277550
 20
2919.144161
 30
0.0
 10
1091.875918
 20
2930.301326
 30
0.0
 10
1089.069647
 20
2940.678255
 30
0.0
 10
1083.159411
 20
2949.197046
 30
0.0
 10
1069.425581
 20
2958.096472
 30
0.0
 10
1062.537335
 20
2973.110117
 30
0.0
 10
1054.501172
 20
2981.592850
 30
0.0
 10
1046.124794
 20
2990.570882
 30
0.0
 10
1043.020857
 20
3003.190753
 30
0.0
 10
1039.938123
 20
3015.517153
 30
0.0
 10
1032.157020
 20
3024.788570
 30
0.0
 10
1024.737335
 20
3033.273402
 30
0.0
 10
1017.785367
 20
3048.372170
 30
0.0
 10
1003.860198
 20
3057.184375
 30
0.0
 10
997.567257
 20
3068.447783
 30
0.0
 10
994.760957
 20
3081.482277
 30
0.0
 10
991.720772
 20
3095.194819
 30
0.0
 10
983.642060
 20
3105.777997
 30
0.0
 10
976.158567
 20
3116.577997
 30
0.0
 10
970.758567
 20
3127.375899
 30
0.0
 10
965.358567
 20
3140.873717
 30
0.0
 10
957.492425
 20
3154.371619
 30
0.0
 10
949.498781
 20
3162.112384
 30
0.0
 10
946.097150
 20
3173.269521
 30
0.0
 10
942.716806
 20
3184.262957
 30
0.0
 10
935.063291
 20
3192.167424
 30
0.0
 10
927.558567
 20
3205.665241
 30
0.0
 10
922.158567
 20
3219.165241
 30
0.0
 10
916.758567
 20
3229.963143
 30
0.0
 10
909.275074
 20
3240.761046
 30
0.0
 10
901.196362
 20
3251.344224
 30
0.0
 10
898.134945
 20
3265.058948
 30
0.0
 10
895.094816
 20
3278.903357
 30
0.0
 10
886.739669
 20
3289.354668
 30
0.0
 10
878.958567
 20
3305.552570
 30
0.0
 10
873.558567
 20
3321.750387
 30
0.0
 10
868.158567
 20
3335.250472
 30
0.0
 10
860.398696
 20
3348.748290
 30
0.0
 10
852.043606
 20
3359.199628
 30
0.0
 10
848.982189
 20
3373.044094
 30
0.0
 10
845.942003
 20
3386.758819
 30
0.0
 10
837.863291
 20
3397.341912
 30
0.0
 10
830.358567
 20
3408.139814
 30
0.0
 10
824.979798
 20
3418.939814
 30
0.0
 10
820.408932
 20
3429.000028
 30
0.0
 10
819.579798
 20
3440.537717
 30
0.0
 10
818.750665
 20
3453.106507
 30
0.0
 10
811.649906
 20
3462.133465
 30
0.0
 10
803.039669
 20
3473.875332
 30
0.0
 10
800.169562
 20
3489.131367
 30
0.0
 10
797.278252
 20
3504.145096
 30
0.0
 10
789.178252
 20
3516.127087
 30
0.0
 10
781.779798
 20
3524.227172
 30
0.0
 10
765.579798
 20
3532.324989
 30
0.0
 10
749.379798
 20
3524.915962
 30
0.0
 10
740.238038
 20
3517.175225
 30
0.0
 10
728.056176
 20
3514.096857
 30
0.0
 10
717.383679
 20
3512.391789
 30
0.0
 10
706.711238
 20
3510.684652
 30
0.0
 10
704.882891
 20
3494.497380
 30
0.0
 10
703.054545
 20
3478.310135
 30
0.0
 10
700.312025
 20
3460.641052
 30
0.0
 10
691.978167
 20
3445.935619
 30
0.0
 10
684.579713
 20
3432.437717
 30
0.0
 10
679.179713
 20
3418.939814
 30
0.0
 10
673.779713
 20
3408.139814
 30
0.0
 10
666.083679
 20
3397.341912
 30
0.0
 10
657.515962
 20
3384.141704
 30
0.0
 10
654.667172
 20
3367.646192
 30
0.0
 10
651.797065
 20
3351.259077
 30
0.0
 10
643.463206
 20
3337.950472
 30
0.0
 10
636.001030
 20
3327.150387
 30
0.0
 10
630.601030
 20
3316.352570
 30
0.0
 10
625.201030
 20
3302.854668
 30
0.0
 10
617.419928
 20
3289.354668
 30
0.0
 10
609.064781
 20
3278.903357
 30
0.0
 10
606.024652
 20
3265.058948
 30
0.0
 10
602.963206
 20
3251.344224
 30
0.0
 10
594.884438
 20
3240.761046
 30
0.0
 10
587.400945
 20
3229.963143
 30
0.0
 10
582.000945
 20
3219.165241
 30
0.0
 10
576.600945
 20
3205.665241
 30
0.0
 10
568.841131
 20
3192.167424
 30
0.0
 10
560.464781
 20
3181.716028
 30
0.0
 10
557.424567
 20
3167.871619
 30
0.0
 10
554.384438
 20
3154.156894
 30
0.0
 10
546.284438
 20
3143.573717
 30
0.0
 10
538.800945
 20
3132.775899
 30
0.0
 10
533.400945
 20
3121.975899
 30
0.0
 10
528.000945
 20
3108.477997
 30
0.0
 10
520.238976
 20
3094.980094
 30
0.0
 10
511.875354
 20
3084.528784
 30
0.0
 10
508.826665
 20
3070.682277
 30
0.0
 10
505.782255
 20
3056.969650
 30
0.0
 10
497.697194
 20
3046.386472
 30
0.0
 10
490.211603
 20
3035.586472
 30
0.0
 10
484.811603
 20
3024.788570
 30
0.0
 10
479.411603
 20
3011.290753
 30
0.0
 10
471.915354
 20
2997.792850
 30
0.0
 10
464.242706
 20
2989.886258
 30
0.0
 10
460.870838
 20
2978.894948
 30
0.0
 10
457.475669
 20
2967.737783
 30
0.0
 10
449.471282
 20
2959.997046
 30
0.0
 10
441.617981
 20
2954.597046
 30
0.0
 10
449.715798
 20
2949.197046
 30
0.0
 10
457.815798
 20
2940.593187
 30
0.0
 10
468.613701
 20
2929.166050
 30
0.0
 10
479.411603
 20
2921.185077
 30
0.0
 10
487.324460
 20
2908.282507
 30
0.0
 10
500.380157
 20
2900.603424
 30
0.0
 10
506.571052
 20
2892.167490
 30
0.0
 10
509.464460
 20
2881.705521
 30
0.0
 10
512.836328
 20
2870.714183
 30
0.0
 10
520.508976
 20
2862.807704
 30
0.0
 10
528.000945
 20
2849.309802
 30
0.0
 10
533.400945
 20
2835.811899
 30
0.0
 10
537.589162
 20
2816.610009
 30
0.0
 10
538.545855
 20
2796.525836
 30
0.0
 10
538.800973
 20
2776.420375
 30
0.0
 10
538.545855
 20
2756.312872
 30
0.0
 10
537.589162
 20
2736.228699
 30
0.0
 10
533.400945
 20
2717.026753
 30
0.0
 10
528.000945
 20
2700.828850
 30
0.0
 10
520.598296
 20
2684.631033
 30
0.0
 10
512.897981
 20
2675.657197
 30
0.0
 10
509.830157
 20
2663.626309
 30
0.0
 10
505.584567
 20
2648.202236
 30
0.0
 10
492.941367
 20
2639.226331
 30
0.0
 10
479.411603
 20
2627.835307
 30
0.0
 10
471.415776
 20
2619.839509
 30
0.0
 10
460.024696
 20
2606.309717
 30
0.0
 10
451.048847
 20
2593.666517
 30
0.0
 10
435.624803
 20
2589.420926
 30
0.0
 10
423.595984
 20
2586.355228
 30
0.0
 10
414.620079
 20
2578.654885
 30
0.0
 10
403.981625
 20
2571.987855
 30
0.0
 10
390.324274
 20
2571.245858
 30
0.0
 10
377.485455
 20
2570.423131
 30
0.0
 10
366.026457
 20
2565.845858
 30
0.0
 10
349.052513
 20
2561.189953
 30
0.0
 10
330.930652
 20
2560.445858
 30
0.0
 10
312.808762
 20
2561.189953
 30
0.0
 10
295.834932
 20
2565.845858
 30
0.0
 10
284.378003
 20
2570.423131
 30
0.0
 10
271.539119
 20
2571.245858
 30
0.0
 10
257.888203
 20
2571.987855
 30
0.0
 10
247.241273
 20
2578.637877
 30
0.0
 10
238.633163
 20
2586.259531
 30
0.0
 10
226.993371
 20
2589.376224
 30
0.0
 10
211.807466
 20
2591.644677
 30
0.0
 10
196.496127
 20
2592.365357
 30
0.0
 10
187.849749
 20
2582.043704
 30
0.0
 10
179.851768
 20
2571.245858
 30
0.0
 10
168.586149
 20
2558.213575
 30
0.0
 10
162.616385
 20
2547.883361
 30
0.0
 10
152.286256
 20
2541.913597
 30
0.0
 10
139.253973
 20
2530.648063
 30
0.0
 10
131.258146
 20
2522.650082
 30
0.0
 10
119.992527
 20
2509.619953
 30
0.0
 10
114.022763
 20
2499.289739
 30
0.0
 10
103.690451
 20
2493.319975
 30
0.0
 10
90.660322
 20
2482.052258
 30
0.0
 10
82.426385
 20
2474.056431
 30
0.0
 10
70.954603
 20
2457.858557
 30
0.0
 10
60.290666
 20
2441.660712
 30
0.0
 10
52.866700
 20
2435.875909
 30
0.0
 10
45.062212
 20
2422.467326
 30
0.0
 10
31.653629
 20
2414.664907
 30
0.0
 10
25.868797
 20
2407.240970
 30
0.0
 10
9.670923
 20
2396.577033
 30
0.0
 10
-6.526923
 20
2385.103068
 30
0.0
 10
-14.522750
 20
2376.869187
 30
0.0
 10
-25.790523
 20
2363.839002
 30
0.0
 10
-31.760286
 20
2353.508872
 30
0.0
 10
-42.090415
 20
2347.539109
 30
0.0
 10
-55.120629
 20
2336.271307
 30
0.0
 10
-62.642276
 20
2328.275509
 30
0.0
 10
-73.255246
 20
2319.841757
 30
0.0
 10
-76.718446
 20
2306.235458
 30
0.0
 10
-57.658997
 20
2303.214406
 30
0.0
 10
-38.142490
 20
2302.225824
 30
0.0
 10
-18.608892
 20
2301.666690
 30
0.0
 10
0.928904
 20
2301.371206
 30
0.0
 10
20.468797
 20
2301.277663
 30
0.0
 10
40.431790
 20
2301.307710
 30
0.0
 10
60.390558
 20
2301.437254
 30
0.0
 10
80.345047
 20
2301.785858
 30
0.0
 10
100.278247
 20
2302.755307
 30
0.0
 10
117.658225
 20
2309.377805
 30
0.0
 10
128.942949
 20
2316.372321
 30
0.0
 10
143.529327
 20
2317.316173
 30
0.0
 10
158.151847
 20
2317.477748
 30
0.0
 10
178.943973
 20
2318.175043
 30
0.0
 10
198.647595
 20
2322.875565
 30
0.0
 10
214.254473
 20
2327.503890
 30
0.0
 10
231.043371
 20
2328.275565
 30
0.0
 10
248.999434
 20
2328.821943
 30
0.0
 10
263.439119
 20
2336.373468
 30
0.0
 10
278.884395
 20
2344.473468
 30
0.0
 10
296.128318
 20
2345.073024
 30
0.0
 10
313.289206
 20
2346.894992
 30
0.0
 10
330.192935
 20
2350.317855
 30
0.0
 10
344.428554
 20
2358.704806
 30
0.0
 10
352.349972
 20
2365.110397
 30
0.0
 10
363.326457
 20
2366.071370
 30
0.0
 10
382.224274
 20
2371.469272
 30
0.0
 10
398.422176
 20
2376.869272
 30
0.0
 10
414.620079
 20
2384.969272
 30
0.0
 10
430.144016
 20
2393.067090
 30
0.0
 10
447.993780
 20
2394.057855
 30
0.0
 10
465.531052
 20
2397.465780
 30
0.0
 10
479.411603
 20
2407.241055
 30
0.0
 10
495.611603
 20
2414.664992
 30
0.0
 10
511.809506
 20
2420.064992
 30
0.0
 10
525.307323
 20
2425.462894
 30
0.0
 10
536.100945
 20
2422.762894
 30
0.0
 10
538.800945
 20
2411.964992
 30
0.0
 10
533.400945
 20
2398.467090
 30
0.0
 10
528.830079
 20
2387.008091
 30
0.0
 10
528.000945
 20
2374.169272
 30
0.0
 10
527.256879
 20
2360.511921
 30
0.0
 10
520.602576
 20
2349.873468
 30
0.0
 10
512.494016
 20
2337.891392
 30
0.0
 10
509.617531
 20
2322.875565
 30
0.0
 10
506.741131
 20
2307.619531
 30
0.0
 10
498.124460
 20
2295.879846
 30
0.0
 10
491.034331
 20
2286.850819
 30
0.0
 10
490.211603
 20
2274.281943
 30
0.0
 10
489.371811
 20
2262.739975
 30
0.0
 10
484.811603
 20
2252.684041
 30
0.0
 10
479.411603
 20
2241.884041
 30
0.0
 10
471.925984
 20
2231.084041
 30
0.0
 10
463.840838
 20
2220.496668
 30
0.0
 10
460.796457
 20
2206.784041
 30
0.0
 10
457.747767
 20
2192.943940
 30
0.0
 10
449.386328
 20
2182.484041
 30
0.0
 10
441.617981
 20
2169.005357
 30
0.0
 10
436.217981
 20
2155.505357
 30
0.0
 10
430.817981
 20
2144.705272
 30
0.0
 10
423.332362
 20
2133.905272
 30
0.0
 10
415.247216
 20
2123.317899
 30
0.0
 10
412.202806
 20
2109.605272
 30
0.0
 10
409.392255
 20
2096.572989
 30
0.0
 10
403.105691
 20
2085.305272
 30
0.0
 10
389.174145
 20
2076.482438
 30
0.0
 10
382.224274
 20
2061.387921
 30
0.0
 10
374.190180
 20
2052.905272
 30
0.0
 10
365.811732
 20
2043.933619
 30
0.0
 10
362.701389
 20
2031.305272
 30
0.0
 10
359.614460
 20
2018.995824
 30
0.0
 10
351.837581
 20
2009.705272
 30
0.0
 10
344.428554
 20
2001.222567
 30
0.0
 10
337.553065
 20
1986.213090
 30
0.0
 10
323.819206
 20
1977.326504
 30
0.0
 10
317.894145
 20
1968.801335
 30
0.0
 10
315.089972
 20
1958.426504
 30
0.0
 10
311.694718
 20
1947.265087
 30
0.0
 10
303.690416
 20
1939.526504
 30
0.0
 10
295.834932
 20
1923.326504
 30
0.0
 10
297.257216
 20
1912.080019
 30
0.0
 10
306.634932
 20
1907.126504
 30
0.0
 10
317.432750
 20
1899.026504
 30
0.0
 10
330.930652
 20
1890.926504
 30
0.0
 10
344.428554
 20
1885.526504
 30
0.0
 10
352.528554
 20
1880.126504
 30
0.0
 10
360.626457
 20
1872.706819
 30
0.0
 10
376.826457
 20
1862.034321
 30
0.0
 10
389.063594
 20
1857.357184
 30
0.0
 10
393.024274
 20
1845.175294
 30
0.0
 10
400.877660
 20
1831.547735
 30
0.0
 10
408.882047
 20
1823.787865
 30
0.0
 10
412.277216
 20
1812.647735
 30
0.0
 10
415.649055
 20
1801.656397
 30
0.0
 10
423.319606
 20
1793.747735
 30
0.0
 10
430.817981
 20
1780.247735
 30
0.0
 10
436.217981
 20
1766.747735
 30
0.0
 10
440.397638
 20
1747.550041
 30
0.0
 10
441.367087
 20
1727.459490
 30
0.0
 10
441.617953
 20
1707.347650
 30
0.0
 10
441.367087
 20
1687.257099
 30
0.0
 10
440.397638
 20
1667.166548
 30
0.0
 10
436.217981
 20
1647.968967
 30
0.0
 10
430.817981
 20
1631.768967
 30
0.0
 10
423.408869
 20
1615.568882
 30
0.0
 10
415.708554
 20
1606.597228
 30
0.0
 10
412.642913
 20
1594.564157
 30
0.0
 10
408.397323
 20
1579.129540
 30
0.0
 10
395.754038
 20
1570.157887
 30
0.0
 10
382.224274
 20
1558.762611
 30
0.0
 10
374.228447
 20
1550.768882
 30
0.0
 10
362.982047
 20
1537.821638
 30
0.0
 10
352.551940
 20
1525.172060
 30
0.0
 10
335.882069
 20
1521.281509
 30
0.0
 10
322.256665
 20
1518.262611
 30
0.0
 10
312.032750
 20
1509.949984
 30
0.0
 10
302.937789
 20
1502.998016
 30
0.0
 10
290.437030
 20
1502.168882
 30
0.0
 10
278.899305
 20
1501.339748
 30
0.0
 10
268.839119
 20
1496.768882
 30
0.0
 10
251.865261
 20
1492.112948
 30
0.0
 10
233.743371
 20
1491.390113
 30
0.0
 10
215.621510
 20
1492.112948
 30
0.0
 10
198.647595
 20
1496.768882
 30
0.0
 10
182.449749
 20
1502.168882
 30
0.0
 10
166.251847
 20
1509.673606
 30
0.0
 10
155.668697
 20
1517.752375
 30
0.0
 10
141.953973
 20
1520.792504
 30
0.0
 10
128.109563
 20
1523.832633
 30
0.0
 10
117.658225
 20
1532.209068
 30
0.0
 10
111.873421
 20
1539.968882
 30
0.0
 10
98.462656
 20
1547.771272
 30
0.0
 10
90.660322
 20
1561.186233
 30
0.0
 10
82.056492
 20
1566.968882
 30
0.0
 10
70.627173
 20
1577.768882
 30
0.0
 10
60.785963
 20
1588.568882
 30
0.0
 10
50.615283
 20
1595.308309
 30
0.0
 10
44.315963
 20
1595.308309
 30
0.0
 10
34.147380
 20
1588.568882
 30
0.0
 10
24.304072
 20
1577.768882
 30
0.0
 10
12.876935
 20
1566.968882
 30
0.0
 10
4.270923
 20
1558.868882
 30
0.0
 10
-1.126923
 20
1550.768882
 30
0.0
 10
-6.526923
 20
1537.268882
 30
0.0
 10
-15.130838
 20
1523.768882
 30
0.0
 10
-26.560101
 20
1512.968882
 30
0.0
 10
-34.538890
 20
1502.168882
 30
0.0
 10
-47.513829
 20
1494.196441
 30
0.0
 10
-55.120629
 20
1480.972819
 30
0.0
 10
-63.724459
 20
1475.190113
 30
0.0
 10
-75.153722
 20
1464.390113
 30
0.0
 10
-83.132597
 20
1453.590113
 30
0.0
 10
-96.107451
 20
1445.596441
 30
0.0
 10
-103.714251
 20
1432.372762
 30
0.0
 10
-112.320179
 20
1426.590113
 30
0.0
 10
-123.747429
 20
1415.790113
 30
0.0
 10
-131.726220
 20
1404.990113
 30
0.0
 10
-144.701073
 20
1396.996384
 30
0.0
 10
-152.307873
 20
1383.772762
 30
0.0
 10
-160.913829
 20
1377.990113
 30
0.0
 10
-172.341051
 20
1367.190028
 30
0.0
 10
-180.319842
 20
1356.390028
 30
0.0
 10
-193.294695
 20
1348.417587
 30
0.0
 10
-200.903593
 20
1335.193965
 30
0.0
 10
-209.507508
 20
1329.390028
 30
0.0
 10
-220.934673
 20
1318.611288
 30
0.0
 10
-228.915561
 20
1307.811288
 30
0.0
 10
-241.888402
 20
1299.817587
 30
0.0
 10
-249.497300
 20
1286.593965
 30
0.0
 10
-258.101130
 20
1280.811288
 30
0.0
 10
-269.530393
 20
1270.011288
 30
0.0
 10
-277.509268
 20
1259.211288
 30
0.0
 10
-290.482016
 20
1251.217587
 30
0.0
 10
-298.090913
 20
1237.993965
 30
0.0
 10
-306.694743
 20
1232.211288
 30
0.0
 10
-318.124091
 20
1221.411288
 30
0.0
 10
-333.815953
 20
1210.611288
 30
0.0
 10
-346.684535
 20
1205.211288
 30
0.0
 10
-354.153118
 20
1199.811288
 30
0.0
 10
-364.447162
 20
1189.011288
 30
0.0
 10
-375.874299
 20
1178.211288
 30
0.0
 10
-384.480255
 20
1172.428611
 30
0.0
 10
-392.282646
 20
1159.034910
 30
0.0
 10
-405.691228
 20
1151.232548
 30
0.0
 10
-411.476060
 20
1143.791603
 30
0.0
 10
-427.673962
 20
1133.140422
 30
0.0
 10
-443.871780
 20
1121.660099
 30
0.0
 10
-451.867606
 20
1113.432540
 30
0.0
 10
-463.260784
 20
1099.890020
 30
0.0
 10
-472.043197
 20
1087.346713
 30
0.0
 10
-487.231313
 20
1083.073484
 30
0.0
 10
-502.119553
 20
1078.949075
 30
0.0
 10
-511.038028
 20
1066.916004
 30
0.0
 10
-522.265380
 20
1054.032540
 30
0.0
 10
-530.261206
 20
1045.804980
 30
0.0
 10
-546.459109
 20
1034.324666
 30
0.0
 10
-562.656926
 20
1023.673484
 30
0.0
 10
-568.441757
 20
1016.232540
 30
0.0
 10
-581.852494
 20
1008.430177
 30
0.0
 10
-589.654828
 20
995.036477
 30
0.0
 10
-600.452731
 20
989.232540
 30
0.0
 10
-611.250633
 20
978.453799
 30
0.0
 10
-597.669789
 20
969.035689
 30
0.0
 10
-578.816589
 20
968.015217
 30
0.0
 10
-559.931443
 20
967.737421
 30
0.0
 10
-541.044170
 20
967.652382
 30
0.0
 10
-522.163304
 20
967.652382
 30
0.0
 10
-503.139997
 20
967.652382
 30
0.0
 10
-484.114620
 20
967.714744
 30
0.0
 10
-465.089131
 20
967.989705
 30
0.0
 10
-446.101994
 20
969.031437
 30
0.0
 10
-433.073962
 20
979.087343
 30
0.0
 10
-423.351780
 20
988.994429
 30
0.0
 10
-407.255953
 20
989.610965
 30
0.0
 10
-391.141020
 20
989.355847
 30
0.0
 10
-375.030255
 20
988.930933
 30
0.0
 10
-356.219575
 20
988.420414
 30
0.0
 10
-337.404643
 20
988.037736
 30
0.0
 10
-318.587499
 20
987.847815
 30
0.0
 10
-299.772567
 20
988.037736
 30
0.0
 10
-281.002232
 20
989.228288
 30
0.0
 10
-265.695117
 20
997.328288
 30
0.0
 10
-252.197300
 20
1005.428288
 30
0.0
 10
-238.697300
 20
1010.828288
 30
0.0
 10
-230.928953
 20
1016.228288
 30
0.0
 10
-222.567429
 20
1026.688414
 30
0.0
 10
-219.518739
 20
1040.528288
 30
0.0
 10
-216.474330
 20
1054.240886
 30
0.0
 10
-208.389183
 20
1064.828288
 30
0.0
 10
-200.903593
 20
1075.628288
 30
0.0
 10
-195.503593
 20
1086.428571
 30
0.0
 10
-190.103593
 20
1099.928571
 30
0.0
 10
-182.005775
 20
1113.428571
 30
0.0
 10
-173.905775
 20
1121.528571
 30
0.0
 10
-157.707873
 20
1129.628580
 30
0.0
 10
-141.509971
 20
1121.528571
 30
0.0
 10
-133.409971
 20
1113.428571
 30
0.0
 10
-126.154015
 20
1104.712036
 30
0.0
 10
-125.312153
 20
1092.274744
 30
0.0
 10
-124.602046
 20
1077.307815
 30
0.0
 10
-122.033829
 20
1062.574744
 30
0.0
 10
-113.013278
 20
1054.581043
 30
0.0
 10
-103.714251
 20
1059.428288
 30
0.0
 10
-90.216349
 20
1064.828288
 30
0.0
 10
-76.091281
 20
1074.267941
 30
0.0
 10
-72.995876
 20
1074.267941
 30
0.0
 10
-62.823042
 20
1064.828288
 30
0.0
 10
-55.120629
 20
1059.428288
 30
0.0
 10
-41.622727
 20
1054.028288
 30
0.0
 10
-28.953930
 20
1046.417264
 30
0.0
 10
-28.124825
 20
1029.728288
 30
0.0
 10
-28.845561
 20
1015.739595
 30
0.0
 10
-36.222727
 20
1005.428288
 30
0.0
 10
-43.359627
 20
997.859784
 30
0.0
 10
-44.322727
 20
986.528288
 30
0.0
 10
-49.720629
 20
967.649547
 30
0.0
 10
-55.120629
 20
954.914902
 30
0.0
 10
-48.257895
 20
943.115689
 30
0.0
 10
-33.573722
 20
940.309390
 30
0.0
 10
-18.674825
 20
938.757421
 30
0.0
 10
1.913206
 20
937.120414
 30
0.0
 10
22.528904
 20
935.908603
 30
0.0
 10
43.172212
 20
935.292067
 30
0.0
 10
63.320136
 20
933.803878
 30
0.0
 10
72.053736
 20
916.689705
 30
0.0
 10
73.203866
 20
897.981043
 30
0.0
 10
60.645705
 20
886.649547
 30
0.0
 10
52.866700
 20
878.549547
 30
0.0
 10
39.470873
 20
870.449547
 30
0.0
 10
28.420007
 20
867.473170
 30
0.0
 10
22.824416
 20
857.502304
 30
0.0
 10
12.394308
 20
844.852698
 30
0.0
 10
-4.275477
 20
840.962147
 30
0.0
 10
-17.900967
 20
837.943249
 30
0.0
 10
-28.124825
 20
829.630650
 30
0.0
 10
-41.622727
 20
821.849548
 30
0.0
 10
-55.120629
 20
816.449548
 30
0.0
 10
-63.220629
 20
811.070807
 30
0.0
 10
-70.808210
 20
795.253484
 30
0.0
 10
-71.318446
 20
775.970807
 30
0.0
 10
-70.808210
 20
756.688130
 30
0.0
 10
-63.220629
 20
740.870807
 30
0.0
 10
-55.601073
 20
723.671595
 30
0.0
 10
-55.120629
 20
703.070807
 30
0.0
 10
-54.401961
 20
683.618051
 30
0.0
 10
-49.720629
 20
665.270807
 30
0.0
 10
-44.322727
 20
654.470807
 30
0.0
 10
-49.720629
 20
643.670807
 30
0.0
 10
-55.120629
 20
635.592067
 30
0.0
 10
-63.220629
 20
627.492067
 30
0.0
 10
-71.745797
 20
620.731437
 30
0.0
 10
-74.894352
 20
620.731437
 30
0.0
 10
-90.667029
 20
627.492067
 30
0.0
 10
-103.714251
 20
634.954272
 30
0.0
 10
-114.514251
 20
645.244036
 30
0.0
 10
-125.312153
 20
656.681831
 30
0.0
 10
-131.096900
 20
665.270807
 30
0.0
 10
-144.390708
 20
672.966870
 30
0.0
 10
-152.307873
 20
686.084193
 30
0.0
 10
-164.870286
 20
693.950335
 30
0.0
 10
-180.655775
 20
693.270020
 30
0.0
 10
-190.103593
 20
678.154272
 30
0.0
 10
-195.503593
 20
665.270807
 30
0.0
 10
-200.903593
 20
657.170807
 30
0.0
 10
-208.669842
 20
649.070807
 30
0.0
 10
-216.982468
 20
638.866083
 30
0.0
 10
-220.016220
 20
625.238524
 30
0.0
 10
-223.902575
 20
608.570807
 30
0.0
 10
-236.543678
 20
598.132225
 30
0.0
 10
-246.520922
 20
592.540886
 30
0.0
 10
-249.497300
 20
581.485768
 30
0.0
 10
-256.995646
 20
568.092067
 30
0.0
 10
-264.666197
 20
560.183406
 30
0.0
 10
-268.037952
 20
549.192076
 30
0.0
 10
-271.433149
 20
538.030658
 30
0.0
 10
-279.437508
 20
530.292076
 30
0.0
 10
-287.290913
 20
516.898375
 30
0.0
 10
-290.454321
 20
505.630658
 30
0.0
 10
-300.820677
 20
500.103099
 30
0.0
 10
-313.374643
 20
491.322784
 30
0.0
 10
-317.641465
 20
476.143257
 30
0.0
 10
-321.776504
 20
461.261367
 30
0.0
 10
-333.807420
 20
452.332233
 30
0.0
 10
-343.731543
 20
446.719635
 30
0.0
 10
-346.684535
 20
435.707036
 30
0.0
 10
-354.782438
 20
422.313335
 30
0.0
 10
-362.882438
 20
413.703099
 30
0.0
 10
-373.680255
 20
402.286564
 30
0.0
 10
-384.480255
 20
386.575540
 30
0.0
 10
-389.878157
 20
373.713335
 30
0.0
 10
-395.278157
 20
366.251131
 30
0.0
 10
-406.076060
 20
355.961367
 30
0.0
 10
-416.876060
 20
344.523572
 30
0.0
 10
-422.660891
 20
335.913335
 30
0.0
 10
-436.830548
 20
327.218060
 30
0.0
 10
-443.871780
 20
312.017272
 30
0.0
 10
-451.385065
 20
303.513335
 30
0.0
 10
-462.287055
 20
290.034595
 30
0.0
 10
-473.671757
 20
276.534595
 30
0.0
 10
-481.667584
 20
268.540611
 30
0.0
 10
-494.697713
 20
257.272894
 30
0.0
 10
-505.027899
 20
251.299162
 30
0.0
 10
-510.999789
 20
240.966879
 30
0.0
 10
-522.265380
 20
227.934595
 30
0.0
 10
-530.261206
 20
219.940611
 30
0.0
 10
-543.291420
 20
208.672894
 30
0.0
 10
-553.623619
 20
202.698879
 30
0.0
 10
-559.593411
 20
192.366879
 30
0.0
 10
-570.859002
 20
179.334595
 30
0.0
 10
-578.854828
 20
171.340611
 30
0.0
 10
-591.885043
 20
160.072894
 30
0.0
 10
-602.217326
 20
154.098879
 30
0.0
 10
-608.187033
 20
143.766595
 30
0.0
 10
-619.452624
 20
130.755572
 30
0.0
 10
-627.448450
 20
122.740611
 30
0.0
 10
-640.480734
 20
111.472894
 30
0.0
 10
-650.810920
 20
105.520139
 30
0.0
 10
-656.780712
 20
95.187855
 30
0.0
 10
-668.046217
 20
82.155572
 30
0.0
 10
-676.044227
 20
73.906753
 30
0.0
 10
-692.242129
 20
62.447698
 30
0.0
 10
-708.439946
 20
51.775257
 30
0.0
 10
-714.224778
 20
44.355572
 30
0.0
 10
-727.633361
 20
36.553209
 30
0.0
 10
-735.435751
 20
23.138249
 30
0.0
 10
-744.039609
 20
17.355572
 30
0.0
 10
-755.468929
 20
6.555572
 30
0.0
 10
-771.160791
 20
-4.244428
 30
0.0
 10
-784.029373
 20
-9.644428
 30
0.0
 10
-792.129373
 20
-15.044428
 30
0.0
 10
-800.227276
 20
-22.464113
 30
0.0
 10
-816.425093
 20
-33.115294
 30
0.0
 10
-832.622995
 20
-44.595609
 30
0.0
 10
-840.621005
 20
-52.823169
 30
0.0
 10
-851.848299
 20
-65.706633
 30
0.0
 10
-861.041055
 20
-77.867263
 30
0.0
 10
-876.248220
 20
-81.970413
 30
0.0
 10
-888.655465
 20
-85.074350
 30
0.0
 10
-897.416646
 20
-93.386948
 30
0.0
 10
-905.901449
 20
-101.423169
 30
0.0
 10
-921.948406
 20
-109.289310
 30
0.0
 10
-929.812422
 20
-125.340491
 30
0.0
 10
-916.312422
 20
-133.823169
 30
0.0
 10
-902.814520
 20
-141.923169
 30
0.0
 10
-886.616646
 20
-150.023169
 30
0.0
 10
-870.418772
 20
-155.423169
 30
0.0
 10
-851.216882
 20
-159.590098
 30
0.0
 10
-831.132680
 20
-160.568050
 30
0.0
 10
-811.027276
 20
-160.823169
 30
0.0
 10
-791.227956
 20
-160.823169
 30
0.0
 10
-771.430791
 20
-160.823169
 30
0.0
 10
-751.633569
 20
-160.823169
 30
0.0
 10
-751.633569
 20
-140.562539
 30
0.0
 10
-751.633569
 20
-120.323169
 30
0.0
 10
-751.473978
 20
-105.696397
 30
0.0
 10
-750.530098
 20
-91.112145
 30
0.0
 10
-743.535609
 20
-79.823169
 30
0.0
 10
-736.258365
 20
-70.894035
 30
0.0
 10
-735.435609
 20
-58.223169
 30
0.0
 10
-734.595846
 20
-46.700334
 30
0.0
 10
-730.035609
 20
-36.644428
 30
0.0
 10
-724.637707
 20
-25.844428
 30
0.0
 10
-716.537707
 20
-15.044428
 30
0.0
 10
-708.439805
 20
-1.034192
 30
0.0
 10
-706.188387
 20
9.531950
 30
0.0
 10
-697.639805
 20
15.803603
 30
0.0
 10
-686.841987
 20
23.776044
 30
0.0
 10
-678.852539
 20
36.744548
 30
0.0
 10
-665.631014
 20
44.355572
 30
0.0
 10
-659.846183
 20
52.115414
 30
0.0
 10
-649.392746
 20
60.491792
 30
0.0
 10
-635.548280
 20
63.531950
 30
0.0
 10
-621.833584
 20
66.572107
 30
0.0
 10
-611.250491
 20
74.672107
 30
0.0
 10
-599.272696
 20
81.475257
 30
0.0
 10
-584.254687
 20
82.155572
 30
0.0
 10
-570.110513
 20
82.963446
 30
0.0
 10
-557.258967
 20
87.555572
 30
0.0
 10
-543.758967
 20
92.955572
 30
0.0
 10
-530.261065
 20
87.555572
 30
0.0
 10
-514.654243
 20
82.920926
 30
0.0
 10
-497.865345
 20
82.155572
 30
0.0
 10
-479.909225
 20
81.602816
 30
0.0
 10
-465.469540
 20
74.055572
 30
0.0
 10
-453.321638
 20
65.870532
 30
0.0
 10
-437.759433
 20
64.573682
 30
0.0
 10
-423.234709
 20
59.088643
 30
0.0
 10
-414.530957
 20
46.545335
 30
0.0
 10
-408.939647
 20
36.553209
 30
0.0
 10
-397.876025
 20
33.555572
 30
0.0
 10
-384.480113
 20
22.755572
 30
0.0
 10
-376.966913
 20
11.955572
 30
0.0
 10
-366.064838
 20
-1.544428
 30
0.0
 10
-354.680220
 20
-15.044428
 30
0.0
 10
-346.684394
 20
-25.844428
 30
0.0
 10
-341.284394
 20
-36.644428
 30
0.0
 10
-335.886491
 20
-44.723169
 30
0.0
 10
-327.786491
 20
-52.823169
 30
0.0
 10
-319.688674
 20
-45.063326
 30
0.0
 10
-309.235153
 20
-36.708208
 30
0.0
 10
-295.390772
 20
-33.646791
 30
0.0
 10
-281.676056
 20
-30.606633
 30
0.0
 10
-271.092878
 20
-22.527893
 30
0.0
 10
-260.294975
 20
-15.044428
 30
0.0
 10
-249.497158
 20
-9.644428
 30
0.0
 10
-235.997158
 20
-4.244428
 30
0.0
 10
-222.499256
 20
3.196517
 30
0.0
 10
-206.301353
 20
13.847698
 30
0.0
 10
-190.103451
 20
25.328013
 30
0.0
 10
-179.305634
 20
33.555572
 30
0.0
 10
-168.505634
 20
38.955572
 30
0.0
 10
-162.720802
 20
44.355572
 30
0.0
 10
-148.551117
 20
35.660296
 30
0.0
 10
-141.509829
 20
20.438249
 30
0.0
 10
-133.409829
 20
11.955572
 30
0.0
 10
-125.792456
 20
-5.222381
 30
0.0
 10
-125.312012
 20
-25.844428
 30
0.0
 10
-125.792456
 20
-46.445216
 30
0.0
 10
-133.409829
 20
-63.623169
 30
0.0
 10
-140.786966
 20
-73.934192
 30
0.0
 10
-141.509829
 20
-87.923169
 30
0.0
 10
-142.330487
 20
-100.764113
 30
0.0
 10
-146.909829
 20
-112.223169
 30
0.0
 10
-152.307731
 20
-131.123169
 30
0.0
 10
-153.268705
 20
-142.157027
 30
0.0
 10
-159.784761
 20
-150.023169
 30
0.0
 10
-168.120802
 20
-163.331830
 30
0.0
 10
-170.971775
 20
-179.723169
 30
0.0
 10
-173.822664
 20
-196.220806
 30
0.0
 10
-182.392534
 20
-209.401909
 30
0.0
 10
-190.103451
 20
-220.201909
 30
0.0
 10
-195.503451
 20
-231.001909
 30
0.0
 10
-200.903451
 20
-244.501909
 30
0.0
 10
-208.669700
 20
-258.001909
 30
0.0
 10
-217.033322
 20
-268.461751
 30
0.0
 10
-220.082012
 20
-282.301909
 30
0.0
 10
-223.126393
 20
-296.014507
 30
0.0
 10
-231.211539
 20
-306.601909
 30
0.0
 10
-238.697158
 20
-317.401909
 30
0.0
 10
-244.097158
 20
-328.201909
 30
0.0
 10
-249.497158
 20
-341.701909
 30
0.0
 10
-256.995505
 20
-355.201909
 30
0.0
 10
-266.957810
 20
-370.317657
 30
0.0
 10
-269.281539
 20
-389.557814
 30
0.0
 10
-269.721646
 20
-408.946791
 30
0.0
 10
-269.209256
 20
-428.335767
 30
0.0
 10
-268.080358
 20
-447.703483
 30
0.0
 10
-266.570909
 20
-466.348365
 30
0.0
 10
-264.304610
 20
-484.929468
 30
0.0
 10
-256.899807
 20
-500.980649
 30
0.0
 10
-249.497158
 20
-511.780649
 30
0.0
 10
-235.997158
 20
-522.580932
 30
0.0
 10
-222.499256
 20
-530.680932
 30
0.0
 10
-210.814846
 20
-538.121594
 30
0.0
 10
-195.503451
 20
-538.780932
 30
0.0
 10
-181.359278
 20
-539.567263
 30
0.0
 10
-168.505634
 20
-544.180932
 30
0.0
 10
-152.898727
 20
-548.794035
 30
0.0
 10
-136.109829
 20
-549.559389
 30
0.0
 10
-118.153766
 20
-550.112145
 30
0.0
 10
-103.714109
 20
-557.659389
 30
0.0
 10
-90.216207
 20
-565.759389
 30
0.0
 10
-78.635971
 20
-569.522381
 30
0.0
 10
-76.718305
 20
-581.959389
 30
0.0
 10
-84.816207
 20
-598.159389
 30
0.0
 10
-92.916207
 20
-605.642854
 30
0.0
 10
-103.499385
 20
-613.742854
 30
0.0
 10
-117.211927
 20
-616.783011
 30
0.0
 10
-131.058490
 20
-619.823452
 30
0.0
 10
-141.509829
 20
-628.199830
 30
0.0
 10
-155.007731
 20
-635.959672
 30
0.0
 10
-168.505634
 20
-641.359672
 30
0.0
 10
-179.305634
 20
-646.759672
 30
0.0
 10
-190.103451
 20
-654.498255
 30
0.0
 10
-204.951353
 20
-663.937625
 30
0.0
 10
-219.799256
 20
-665.659672
 30
0.0
 10
-219.429334
 20
-684.814507
 30
0.0
 10
-219.059385
 20
-703.990885
 30
0.0
 10
-218.687366
 20
-723.167546
 30
0.0
 10
-218.317388
 20
-742.322665
 30
0.0
 10
-217.947495
 20
-761.499043
 30
0.0
 10
-217.575420
 20
-780.654161
 30
0.0
 10
-217.205527
 20
-799.830539
 30
0.0
 10
-216.835634
 20
-819.006917
 30
0.0
 10
-216.465712
 20
-838.162035
 30
0.0
 10
-216.093637
 20
-857.338413
 30
0.0
 10
-232.795397
 20
-857.338413
 30
0.0
 10
-249.497158
 20
-849.238413
 30
0.0
 10
-260.294975
 20
-841.138413
 30
0.0
 10
-271.092878
 20
-835.738413
 30
0.0
 10
-279.192878
 20
-830.338413
 30
0.0
 10
-287.290772
 20
-822.344712
 30
0.0
 10
-300.323055
 20
-811.076995
 30
0.0
 10
-310.653184
 20
-805.102980
 30
0.0
 10
-316.622976
 20
-794.770696
 30
0.0
 10
-327.888567
 20
-781.738413
 30
0.0
 10
-335.886491
 20
-773.744712
 30
0.0
 10
-349.384394
 20
-762.370696
 30
0.0
 10
-362.882296
 20
-751.464397
 30
0.0
 10
-373.680113
 20
-743.938413
 30
0.0
 10
-384.480113
 20
-751.421877
 30
0.0
 10
-395.063291
 20
-759.521877
 30
0.0
 10
-408.775918
 20
-762.562035
 30
0.0
 10
-422.622425
 20
-765.602192
 30
0.0
 10
-433.073820
 20
-773.978570
 30
0.0
 10
-446.571638
 20
-781.738413
 30
0.0
 10
-460.069540
 20
-787.138413
 30
0.0
 10
-470.869540
 20
-792.538413
 30
0.0
 10
-481.667443
 20
-800.638413
 30
0.0
 10
-493.815345
 20
-808.802192
 30
0.0
 10
-514.460750
 20
-811.268334
 30
0.0
 10
-530.261065
 20
-822.876208
 30
0.0
 10
-535.661065
 20
-830.338413
 30
0.0
 10
-541.061065
 20
-843.200617
 30
0.0
 10
-551.858967
 20
-858.890381
 30
0.0
 10
-560.405452
 20
-865.162035
 30
0.0
 10
-562.656784
 20
-875.728176
 30
0.0
 10
-570.756784
 20
-889.717153
 30
0.0
 10
-578.854687
 20
-897.732113
 30
0.0
 10
-592.384479
 20
-909.106129
 30
0.0
 10
-604.938416
 20
-917.907704
 30
0.0
 10
-609.203140
 20
-933.087231
 30
0.0
 10
-613.342460
 20
-947.969121
 30
0.0
 10
-625.371279
 20
-956.898255
 30
0.0
 10
-638.248280
 20
-968.123452
 30
0.0
 10
-646.346183
 20
-976.117153
 30
0.0
 10
-654.446183
 20
-990.127389
 30
0.0
 10
-656.697600
 20
-1000.672271
 30
0.0
 10
-665.244085
 20
-1006.943924
 30
0.0
 10
-676.044085
 20
-1014.937625
 30
0.0
 10
-683.842224
 20
-1027.736050
 30
0.0
 10
-696.653405
 20
-1035.517153
 30
0.0
 10
-702.578494
 20
-1044.021090
 30
0.0
 10
-705.382668
 20
-1054.417153
 30
0.0
 10
-708.278258
 20
-1064.876995
 30
0.0
 10
-714.469124
 20
-1073.295893
 30
0.0
 10
-727.709783
 20
-1081.183294
 30
0.0
 10
-735.435609
 20
-1094.513216
 30
0.0
 10
-744.039468
 20
-1100.295893
 30
0.0
 10
-755.468787
 20
-1111.095893
 30
0.0
 10
-765.762746
 20
-1121.895893
 30
0.0
 10
-773.231329
 20
-1135.289594
 30
0.0
 10
-776.229024
 20
-1146.365972
 30
0.0
 10
-786.261543
 20
-1151.957310
 30
0.0
 10
-796.591672
 20
-1157.931326
 30
0.0
 10
-802.561436
 20
-1168.263609
 30
0.0
 10
-813.829124
 20
-1181.295893
 30
0.0
 10
-821.824951
 20
-1189.289594
 30
0.0
 10
-834.855165
 20
-1200.557310
 30
0.0
 10
-845.185294
 20
-1206.531326
 30
0.0
 10
-851.157213
 20
-1216.863609
 30
0.0
 10
-862.422803
 20
-1229.874633
 30
0.0
 10
-870.418630
 20
-1237.889594
 30
0.0
 10
-883.448787
 20
-1249.157310
 30
0.0
 10
-893.781071
 20
-1255.110066
 30
0.0
 10
-899.750835
 20
-1265.442350
 30
0.0
 10
-911.016425
 20
-1278.474633
 30
0.0
 10
-919.012280
 20
-1286.468334
 30
0.0
 10
-932.042438
 20
-1297.736050
 30
0.0
 10
-942.374721
 20
-1303.710066
 30
0.0
 10
-948.344485
 20
-1314.042350
 30
0.0
 10
-959.610076
 20
-1327.074633
 30
0.0
 10
-967.605902
 20
-1335.174633
 30
0.0
 10
-981.609761
 20
-1343.274633
 30
0.0
 10
-992.169524
 20
-1345.528176
 30
0.0
 10
-998.439080
 20
-1354.074633
 30
0.0
 10
-1006.417899
 20
-1364.874633
 30
0.0
 10
-1019.209946
 20
-1372.655735
 30
0.0
 10
-1026.999553
 20
-1385.454161
 30
0.0
 10
-1037.797427
 20
-1393.426602
 30
0.0
 10
-1048.597427
 20
-1404.864397
 30
0.0
 10
-1062.095301
 20
-1413.453373
 30
0.0
 10
-1075.593203
 20
-1418.853373
 30
0.0
 10
-1083.693203
 20
-1424.253373
 30
0.0
 10
-1091.791077
 20
-1432.863609
 30
0.0
 10
-1102.591077
 20
-1444.301405
 30
0.0
 10
-1113.388951
 20
-1454.591169
 30
0.0
 10
-1126.784778
 20
-1462.053657
 30
0.0
 10
-1138.050369
 20
-1465.221090
 30
0.0
 10
-1143.575830
 20
-1475.574633
 30
0.0
 10
-1152.358271
 20
-1488.139483
 30
0.0
 10
-1167.546302
 20
-1492.412428
 30
0.0
 10
-1182.434570
 20
-1496.536838
 30
0.0
 10
-1191.353074
 20
-1508.569909
 30
0.0
 10
-1202.580397
 20
-1521.453657
 30
0.0
 10
-1210.576224
 20
-1529.681216
 30
0.0
 10
-1226.774126
 20
-1541.161531
 30
0.0
 10
-1242.972000
 20
-1551.812428
 30
0.0
 10
-1251.072000
 20
-1559.253657
 30
0.0
 10
-1259.169874
 20
-1564.653657
 30
0.0
 10
-1272.038457
 20
-1570.032397
 30
0.0
 10
-1287.732472
 20
-1580.832397
 30
0.0
 10
-1293.999874
 20
-1589.378570
 30
0.0
 10
-1304.559638
 20
-1591.632397
 30
0.0
 10
-1318.563524
 20
-1599.732397
 30
0.0
 10
-1326.661398
 20
-1607.832397
 30
0.0
 10
-1334.761398
 20
-1613.232397
 30
0.0
 10
-1345.559272
 20
-1618.632397
 30
0.0
 10
-1356.359272
 20
-1626.732397
 30
0.0
 10
-1369.857146
 20
-1634.832397
 30
0.0
 10
-1383.355020
 20
-1645.632397
 30
0.0
 10
-1374.383367
 20
-1655.709562
 30
0.0
 10
-1359.057146
 20
-1656.432397
 30
0.0
 10
-1346.218328
 20
-1657.261531
 30
0.0
 10
-1334.761398
 20
-1661.832397
 30
0.0
 10
-1320.130375
 20
-1665.914287
 30
0.0
 10
-1304.515020
 20
-1666.956019
 30
0.0
 10
-1288.867748
 20
-1667.230980
 30
0.0
 10
-1272.478535
 20
-1667.381216
 30
0.0
 10
-1256.116961
 20
-1668.252869
 30
0.0
 10
-1242.972000
 20
-1675.332397
 30
0.0
 10
-1224.620504
 20
-1680.604838
 30
0.0
 10
-1204.670239
 20
-1681.731609
 30
0.0
 10
-1184.698743
 20
-1682.305625
 30
0.0
 10
-1164.720869
 20
-1682.667043
 30
0.0
 10
-1144.742995
 20
-1682.899483
 30
0.0
 10
-1124.760841
 20
-1683.069562
 30
0.0
 10
-1104.778715
 20
-1683.197121
 30
0.0
 10
-1084.796589
 20
-1683.282161
 30
0.0
 10
-1064.814435
 20
-1683.324680
 30
0.0
 10
-1044.834435
 20
-1683.367200
 30
0.0
 10
-1024.854435
 20
-1683.409720
 30
0.0
 10
-1004.870183
 20
-1683.409720
 30
0.0
 10
-984.888028
 20
-1683.438066
 30
0.0
 10
-964.908028
 20
-1683.438066
 30
0.0
 10
-944.923776
 20
-1683.438066
 30
0.0
 10
-924.941650
 20
-1683.409720
 30
0.0
 10
-904.959524
 20
-1683.409720
 30
0.0
 10
-884.981622
 20
-1683.367200
 30
0.0
 10
-865.001622
 20
-1683.324680
 30
0.0
 10
-845.019468
 20
-1683.282161
 30
0.0
 10
-825.037370
 20
-1683.197121
 30
0.0
 10
-805.055272
 20
-1683.069562
 30
0.0
 10
-785.075187
 20
-1682.899483
 30
0.0
 10
-765.095187
 20
-1682.667043
 30
0.0
 10
-745.115187
 20
-1682.305625
 30
0.0
 10
-725.143748
 20
-1681.731609
 30
0.0
 10
-705.195609
 20
-1680.604838
 30
0.0
  0
LWPOLYLINE
  5
103
100
AcDbEntity
  8
Layer_1
 62
7
100
AcDbPolyline
 90
87
 70
1
 10
397.070702
 20
-1393.396838
 30
0.0
 10
382.222800
 20
-1383.404712
 30
0.0
 10
371.424983
 20
-1375.666129
 30
0.0
 10
360.624983
 20
-1370.266129
 30
0.0
 10
352.527080
 20
-1364.866129
 30
0.0
 10
344.427080
 20
-1356.872428
 30
0.0
 10
331.396866
 20
-1345.604712
 30
0.0
 10
321.066737
 20
-1339.630696
 30
0.0
 10
315.096973
 20
-1329.298413
 30
0.0
 10
303.829257
 20
-1316.266129
 30
0.0
 10
295.833430
 20
-1308.166129
 30
0.0
 10
290.435556
 20
-1300.066129
 30
0.0
 10
285.035556
 20
-1289.266129
 30
0.0
 10
277.575440
 20
-1278.466129
 30
0.0
 10
270.221689
 20
-1264.881090
 30
0.0
 10
267.838404
 20
-1248.681090
 30
0.0
 10
266.273680
 20
-1232.353531
 30
0.0
 10
265.044889
 20
-1213.389751
 30
0.0
 10
264.524023
 20
-1194.404712
 30
0.0
 10
264.779141
 20
-1175.419672
 30
0.0
 10
266.003651
 20
-1156.477153
 30
0.0
 10
268.795069
 20
-1137.704712
 30
0.0
 10
277.467043
 20
-1121.887389
 30
0.0
 10
285.035528
 20
-1105.304712
 30
0.0
 10
290.097496
 20
-1085.490539
 30
0.0
 10
305.617153
 20
-1073.287389
 30
0.0
 10
313.595972
 20
-1062.487389
 30
0.0
 10
325.025291
 20
-1051.708649
 30
0.0
 10
333.629150
 20
-1045.904712
 30
0.0
 10
341.431540
 20
-1032.511011
 30
0.0
 10
354.840123
 20
-1024.708649
 30
0.0
 10
360.624954
 20
-1016.927546
 30
0.0
 10
371.078362
 20
-1008.572428
 30
0.0
 10
384.922772
 20
-1005.532271
 30
0.0
 10
398.637496
 20
-1002.470854
 30
0.0
 10
409.220674
 20
-994.392113
 30
0.0
 10
423.628469
 20
-988.269279
 30
0.0
 10
440.404611
 20
-987.291326
 30
0.0
 10
457.206265
 20
-986.972428
 30
0.0
 10
474.012198
 20
-986.907231
 30
0.0
 10
490.877660
 20
-986.972428
 30
0.0
 10
507.743065
 20
-987.270066
 30
0.0
 10
524.580860
 20
-988.248019
 30
0.0
 10
538.799443
 20
-994.668491
 30
0.0
 10
549.259313
 20
-1003.044869
 30
0.0
 10
563.099443
 20
-1006.085027
 30
0.0
 10
576.812069
 20
-1009.125184
 30
0.0
 10
587.399443
 20
-1017.225184
 30
0.0
 10
595.499528
 20
-1024.708649
 30
0.0
 10
603.599528
 20
-1030.108649
 30
0.0
 10
614.399528
 20
-1035.508649
 30
0.0
 10
625.199528
 20
-1046.308649
 30
0.0
 10
630.599528
 20
-1057.108649
 30
0.0
 10
635.999528
 20
-1065.187389
 30
0.0
 10
644.227087
 20
-1073.287389
 30
0.0
 10
655.707345
 20
-1089.487389
 30
0.0
 10
666.358554
 20
-1105.687389
 30
0.0
 10
672.949077
 20
-1114.956680
 30
0.0
 10
673.778211
 20
-1127.287389
 30
0.0
 10
674.628633
 20
-1138.831483
 30
0.0
 10
679.178211
 20
-1148.887389
 30
0.0
 10
683.302677
 20
-1164.428334
 30
0.0
 10
684.323150
 20
-1180.947231
 30
0.0
 10
684.578268
 20
-1197.487389
 30
0.0
 10
684.323150
 20
-1214.027546
 30
0.0
 10
683.302677
 20
-1230.525184
 30
0.0
 10
679.178211
 20
-1246.066129
 30
0.0
 10
673.778211
 20
-1262.266129
 30
0.0
 10
666.018425
 20
-1278.466129
 30
0.0
 10
657.663279
 20
-1288.925972
 30
0.0
 10
654.601833
 20
-1302.766129
 30
0.0
 10
651.561704
 20
-1316.478728
 30
0.0
 10
643.482935
 20
-1327.066129
 30
0.0
 10
635.999528
 20
-1335.059830
 30
0.0
 10
622.499528
 20
-1346.455106
 30
0.0
 10
608.999528
 20
-1357.340145
 30
0.0
 10
600.516794
 20
-1364.866129
 30
0.0
 10
585.549865
 20
-1371.690539
 30
0.0
 10
576.599443
 20
-1385.318098
 30
0.0
 10
558.018340
 20
-1391.462192
 30
0.0
 10
537.991625
 20
-1393.779515
 30
0.0
 10
517.877660
 20
-1395.267704
 30
0.0
 10
497.736028
 20
-1396.224397
 30
0.0
 10
477.579572
 20
-1396.755893
 30
0.0
 10
457.418891
 20
-1396.860775
 30
0.0
 10
437.256028
 20
-1396.499357
 30
0.0
 10
417.118677
 20
-1395.478885
 30
0.0
  0
LWPOLYLINE
  5
104
100
AcDbEntity
  8
Layer_1
 62
7
100
AcDbPolyline
 90
68
 70
1
 10
534.760129
 20
-1345.200775
 30
0.0
 10
546.389235
 20
-1342.075578
 30
0.0
 10
554.999471
 20
-1334.464554
 30
0.0
 10
563.482205
 20
-1327.066129
 30
0.0
 10
578.682964
 20
-1320.029121
 30
0.0
 10
587.399471
 20
-1305.848806
 30
0.0
 10
594.819213
 20
-1300.066129
 30
0.0
 10
605.491654
 20
-1283.866129
 30
0.0
 10
616.950680
 20
-1267.666129
 30
0.0
 10
624.476693
 20
-1257.418885
 30
0.0
 10
625.199556
 20
-1243.366129
 30
0.0
 10
626.007373
 20
-1230.525184
 30
0.0
 10
630.599556
 20
-1219.087389
 30
0.0
 10
635.170422
 20
-1207.628334
 30
0.0
 10
635.999556
 20
-1194.787389
 30
0.0
 10
635.170422
 20
-1181.946444
 30
0.0
 10
630.599556
 20
-1170.487389
 30
0.0
 10
626.007373
 20
-1159.028334
 30
0.0
 10
625.199556
 20
-1146.187389
 30
0.0
 10
624.455405
 20
-1132.325972
 30
0.0
 10
617.333386
 20
-1121.887389
 30
0.0
 10
609.339657
 20
-1114.148806
 30
0.0
 10
605.938110
 20
-1102.987389
 30
0.0
 10
602.557795
 20
-1091.996050
 30
0.0
 10
594.904280
 20
-1084.087389
 30
0.0
 10
587.399471
 20
-1078.687389
 30
0.0
 10
574.537266
 20
-1073.287389
 30
0.0
 10
558.826271
 20
-1062.487389
 30
0.0
 10
552.575849
 20
-1053.940932
 30
0.0
 10
542.009707
 20
-1051.708649
 30
0.0
 10
527.999471
 20
-1043.608649
 30
0.0
 10
513.933959
 20
-1036.486602
 30
0.0
 10
496.683751
 20
-1035.636208
 30
0.0
 10
479.410129
 20
-1035.508649
 30
0.0
 10
462.138605
 20
-1035.636208
 30
0.0
 10
444.888369
 20
-1036.486602
 30
0.0
 10
430.816507
 20
-1043.608649
 30
0.0
 10
415.060781
 20
-1051.708649
 30
0.0
 10
395.656951
 20
-1053.685814
 30
0.0
 10
382.222800
 20
-1065.782665
 30
0.0
 10
371.424983
 20
-1073.287389
 30
0.0
 10
360.624983
 20
-1086.213373
 30
0.0
 10
357.316951
 20
-1097.140932
 30
0.0
 10
347.127080
 20
-1102.519672
 30
0.0
 10
336.779915
 20
-1108.047231
 30
0.0
 10
333.629178
 20
-1119.293688
 30
0.0
 10
325.531276
 20
-1132.687389
 30
0.0
 10
318.309364
 20
-1150.460617
 30
0.0
 10
317.554639
 20
-1171.274003
 30
0.0
 10
317.431332
 20
-1192.087389
 30
0.0
 10
317.554639
 20
-1212.900775
 30
0.0
 10
318.309364
 20
-1233.692901
 30
0.0
 10
325.531276
 20
-1251.466129
 30
0.0
 10
333.629178
 20
-1264.966129
 30
0.0
 10
339.029178
 20
-1278.466129
 30
0.0
 10
344.427080
 20
-1285.949594
 30
0.0
 10
355.227080
 20
-1296.239357
 30
0.0
 10
366.024983
 20
-1307.655893
 30
0.0
 10
371.809729
 20
-1316.266129
 30
0.0
 10
385.107817
 20
-1323.940932
 30
0.0
 10
393.022800
 20
-1337.100775
 30
0.0
 10
405.170702
 20
-1344.860617
 30
0.0
 10
423.615742
 20
-1346.667704
 30
0.0
 10
442.141569
 20
-1347.411798
 30
0.0
 10
460.678054
 20
-1347.751956
 30
0.0
 10
479.220888
 20
-1347.794476
 30
0.0
 10
497.759471
 20
-1347.516680
 30
0.0
 10
516.291676
 20
-1346.836365
 30
0.0
  0
LWPOLYLINE
  5
105
100
AcDbEntity
  8
Layer_1
 62
7
100
AcDbPolyline
 90
83
 70
1
 10
1256.914715
 20
-703.451169
 30
0.0
 10
1246.114715
 20
-695.351169
 30
0.0
 10
1235.314715
 20
-689.951169
 30
0.0
 10
1221.814630
 20
-684.551169
 30
0.0
 10
1208.314630
 20
-677.067704
 30
0.0
 10
1197.514630
 20
-666.777657
 30
0.0
 10
1186.714630
 20
-655.361405
 30
0.0
 10
1180.931981
 20
-646.751169
 30
0.0
 10
1167.538280
 20
-638.948523
 30
0.0
 10
1159.735946
 20
-625.533846
 30
0.0
 10
1151.954844
 20
-619.750885
 30
0.0
 10
1143.599698
 20
-609.291326
 30
0.0
 10
1140.538280
 20
-595.450885
 30
0.0
 10
1137.498151
 20
-581.738570
 30
0.0
 10
1129.419383
 20
-571.150885
 30
0.0
 10
1123.232769
 20
-554.653531
 30
0.0
 10
1122.297307
 20
-535.880806
 30
0.0
 10
1121.999698
 20
-517.065846
 30
0.0
 10
1121.935918
 20
-498.272145
 30
0.0
 10
1121.999698
 20
-479.393405
 30
0.0
 10
1122.276076
 20
-460.535924
 30
0.0
 10
1123.211480
 20
-441.699704
 30
0.0
 10
1129.695732
 20
-425.372145
 30
0.0
 10
1138.008359
 20
-415.146161
 30
0.0
 10
1141.048488
 20
-401.518602
 30
0.0
 10
1144.939039
 20
-384.850885
 30
0.0
 10
1157.567386
 20
-374.433562
 30
0.0
 10
1170.514630
 20
-363.187106
 30
0.0
 10
1178.529591
 20
-355.193405
 30
0.0
 10
1189.903635
 20
-341.650885
 30
0.0
 10
1198.896605
 20
-329.022539
 30
0.0
 10
1214.309906
 20
-324.770570
 30
0.0
 10
1226.343005
 20
-321.709153
 30
0.0
 10
1235.314715
 20
-313.991830
 30
0.0
 10
1246.114715
 20
-306.593405
 30
0.0
 10
1256.914715
 20
-301.193405
 30
0.0
 10
1274.539124
 20
-297.387893
 30
0.0
 10
1292.950120
 20
-296.367420
 30
0.0
 10
1311.382431
 20
-295.920964
 30
0.0
 10
1329.814715
 20
-295.793405
 30
0.0
 10
1348.247027
 20
-295.920964
 30
0.0
 10
1366.658022
 20
-296.367420
 30
0.0
 10
1385.069102
 20
-297.387893
 30
0.0
 10
1402.693483
 20
-301.193405
 30
0.0
 10
1415.555688
 20
-306.593405
 30
0.0
 10
1431.266683
 20
-317.393405
 30
0.0
 10
1437.517106
 20
-325.939861
 30
0.0
 10
1448.083276
 20
-328.193405
 30
0.0
 10
1462.093483
 20
-336.293405
 30
0.0
 10
1470.087184
 20
-344.393405
 30
0.0
 10
1481.461200
 20
-357.893405
 30
0.0
 10
1492.367499
 20
-371.393405
 30
0.0
 10
1499.893483
 20
-379.876082
 30
0.0
 10
1506.717893
 20
-394.821751
 30
0.0
 10
1520.345452
 20
-403.772145
 30
0.0
 10
1527.297420
 20
-422.948523
 30
0.0
 10
1529.784822
 20
-443.868208
 30
0.0
 10
1531.209231
 20
-464.894192
 30
0.0
 10
1531.974586
 20
-485.962696
 30
0.0
 10
1532.229704
 20
-507.031200
 30
0.0
 10
1532.017106
 20
-528.248523
 30
0.0
 10
1531.060413
 20
-549.444586
 30
0.0
 10
1528.487972
 20
-570.491830
 30
0.0
 10
1518.113169
 20
-587.350885
 30
0.0
 10
1510.672224
 20
-600.850885
 30
0.0
 10
1505.293483
 20
-614.350885
 30
0.0
 10
1499.893483
 20
-625.151169
 30
0.0
 10
1491.878523
 20
-635.951169
 30
0.0
 10
1480.504507
 20
-649.472428
 30
0.0
 10
1471.702932
 20
-662.036995
 30
0.0
 10
1456.523405
 20
-666.288964
 30
0.0
 10
1441.641515
 20
-670.434350
 30
0.0
 10
1432.712381
 20
-682.467704
 30
0.0
 10
1427.121071
 20
-692.396050
 30
0.0
 10
1416.087213
 20
-695.351169
 30
0.0
 10
1402.693483
 20
-703.451169
 30
0.0
 10
1386.578551
 20
-710.296554
 30
0.0
 10
1367.678551
 20
-711.210728
 30
0.0
 10
1348.736031
 20
-711.488523
 30
0.0
 10
1329.814715
 20
-711.553720
 30
0.0
 10
1310.872195
 20
-711.488523
 30
0.0
 10
1291.929676
 20
-711.210728
 30
0.0
 10
1273.008359
 20
-710.296554
 30
0.0
  0
LWPOLYLINE
  5
106
100
AcDbEntity
  8
Layer_1
 62
7
100
AcDbPolyline
 90
64
 70
1
 10
1381.093483
 20
-654.851169
 30
0.0
 10
1391.893483
 20
-646.751169
 30
0.0
 10
1402.693483
 20
-641.351169
 30
0.0
 10
1415.555688
 20
-635.951169
 30
0.0
 10
1431.266683
 20
-625.151169
 30
0.0
 10
1442.683276
 20
-614.350885
 30
0.0
 10
1451.293483
 20
-606.250885
 30
0.0
 10
1456.693483
 20
-598.150885
 30
0.0
 10
1462.093483
 20
-584.650885
 30
0.0
 10
1469.513169
 20
-571.150885
 30
0.0
 10
1479.377735
 20
-556.885531
 30
0.0
 10
1482.226554
 20
-538.623326
 30
0.0
 10
1483.353326
 20
-520.148523
 30
0.0
 10
1483.628287
 20
-501.652460
 30
0.0
 10
1483.266869
 20
-481.561909
 30
0.0
 10
1482.055058
 20
-461.513877
 30
0.0
 10
1479.163720
 20
-441.657184
 30
0.0
 10
1469.469231
 20
-425.372145
 30
0.0
 10
1462.092066
 20
-416.889468
 30
0.0
 10
1455.055058
 20
-401.688680
 30
0.0
 10
1440.874715
 20
-392.972145
 30
0.0
 10
1435.092066
 20
-384.383169
 30
0.0
 10
1424.292066
 20
-372.945373
 30
0.0
 10
1413.492066
 20
-362.655609
 30
0.0
 10
1397.292066
 20
-355.193405
 30
0.0
 10
1381.092066
 20
-349.793405
 30
0.0
 10
1365.551093
 20
-345.668995
 30
0.0
 10
1349.032195
 20
-344.648523
 30
0.0
 10
1332.513298
 20
-344.393405
 30
0.0
 10
1315.973112
 20
-344.648523
 30
0.0
 10
1299.454214
 20
-345.668995
 30
0.0
 10
1283.913298
 20
-349.793405
 30
0.0
 10
1274.176290
 20
-354.343011
 30
0.0
 10
1262.951093
 20
-355.193405
 30
0.0
 10
1248.685739
 20
-356.405216
 30
0.0
 10
1239.140013
 20
-365.993405
 30
0.0
 10
1227.723534
 20
-376.793405
 30
0.0
 10
1219.113213
 20
-382.576082
 30
0.0
 10
1211.502217
 20
-395.799704
 30
0.0
 10
1198.533742
 20
-403.772145
 30
0.0
 10
1189.094315
 20
-420.397342
 30
0.0
 10
1186.798280
 20
-440.232775
 30
0.0
 10
1178.613213
 20
-452.372145
 30
0.0
 10
1171.427414
 20
-469.231200
 30
0.0
 10
1170.640800
 20
-489.130413
 30
0.0
 10
1170.513241
 20
-509.072145
 30
0.0
 10
1170.662060
 20
-528.801279
 30
0.0
 10
1171.469906
 20
-548.509153
 30
0.0
 10
1177.954186
 20
-565.750885
 30
0.0
 10
1188.605367
 20
-581.950885
 30
0.0
 10
1200.085710
 20
-598.150885
 30
0.0
 10
1208.313184
 20
-606.144586
 30
0.0
 10
1221.345496
 20
-617.412302
 30
0.0
 10
1231.677808
 20
-623.386602
 30
0.0
 10
1237.651852
 20
-633.718885
 30
0.0
 10
1246.793528
 20
-645.390539
 30
0.0
 10
1262.419540
 20
-646.751169
 30
0.0
 10
1275.026683
 20
-647.580302
 30
0.0
 10
1283.913269
 20
-654.851169
 30
0.0
 10
1297.987257
 20
-661.972932
 30
0.0
 10
1315.228989
 20
-662.802066
 30
0.0
 10
1332.513269
 20
-662.952302
 30
0.0
 10
1349.776261
 20
-662.802066
 30
0.0
 10
1367.017994
 20
-661.972932
 30
0.0
  0
LWPOLYLINE
  5
107
100
AcDbEntity
  8
Layer_1
 62
7
100
AcDbPolyline
 90
90
 70
1
 10
187.848275
 20
-9.635924
 30
0.0
 10
168.950373
 20
-4.235924
 30
0.0
 10
157.625226
 20
-3.257972
 30
0.0
 10
150.052499
 20
3.864076
 30
0.0
 10
136.048640
 20
11.964076
 30
0.0
 10
125.488848
 20
14.217619
 30
0.0
 10
119.221475
 20
22.764076
 30
0.0
 10
103.527431
 20
33.564076
 30
0.0
 10
90.658848
 20
38.964076
 30
0.0
 10
83.160502
 20
44.364076
 30
0.0
 10
75.489951
 20
52.272737
 30
0.0
 10
72.118111
 20
63.264076
 30
0.0
 10
69.222577
 20
73.723918
 30
0.0
 10
63.031711
 20
82.164076
 30
0.0
 10
47.197324
 20
94.218406
 30
0.0
 10
42.065226
 20
114.160139
 30
0.0
 10
33.967324
 20
130.764076
 30
0.0
 10
27.174803
 20
144.753052
 30
0.0
 10
26.211732
 20
161.654627
 30
0.0
 10
25.926879
 20
178.598721
 30
0.0
 10
25.867634
 20
195.543099
 30
0.0
 10
25.926879
 20
212.486910
 30
0.0
 10
26.211732
 20
229.431005
 30
0.0
 10
27.174803
 20
246.332863
 30
0.0
 10
33.967324
 20
260.343099
 30
0.0
 10
42.065226
 20
273.843099
 30
0.0
 10
47.465226
 20
287.343099
 30
0.0
 10
52.865226
 20
298.143099
 30
0.0
 10
60.899321
 20
308.921839
 30
0.0
 10
69.284231
 20
317.936013
 30
0.0
 10
72.396672
 20
330.585619
 30
0.0
 10
78.158089
 20
349.102942
 30
0.0
 10
96.326751
 20
355.502154
 30
0.0
 10
111.159743
 20
359.626564
 30
0.0
 10
120.029321
 20
371.638375
 30
0.0
 10
125.635569
 20
381.566721
 30
0.0
 10
136.656672
 20
384.521839
 30
0.0
 10
150.052499
 20
391.920265
 30
0.0
 10
162.389614
 20
399.084831
 30
0.0
 10
177.350165
 20
401.487194
 30
0.0
 10
192.425547
 20
403.017902
 30
0.0
 10
210.647302
 20
404.208454
 30
0.0
 10
228.903129
 20
404.718690
 30
0.0
 10
247.163236
 20
404.568454
 30
0.0
 10
265.412684
 20
403.781839
 30
0.0
 10
283.609049
 20
402.229871
 30
0.0
 10
301.652249
 20
399.444831
 30
0.0
 10
317.431276
 20
391.876328
 30
0.0
 10
330.929178
 20
384.520422
 30
0.0
 10
344.427080
 20
379.120422
 30
0.0
 10
351.897732
 20
373.720422
 30
0.0
 10
362.189707
 20
362.920422
 30
0.0
 10
373.618942
 20
352.120422
 30
0.0
 10
382.222800
 20
346.337745
 30
0.0
 10
389.950781
 20
333.007824
 30
0.0
 10
403.189257
 20
325.120422
 30
0.0
 10
409.380151
 20
316.701524
 30
0.0
 10
412.275742
 20
306.220422
 30
0.0
 10
415.647581
 20
295.229083
 30
0.0
 10
423.318132
 20
287.341682
 30
0.0
 10
430.816507
 20
273.841682
 30
0.0
 10
436.216507
 20
260.341682
 30
0.0
 10
439.979471
 20
244.779477
 30
0.0
 10
441.016951
 20
228.388139
 30
0.0
 10
441.484639
 20
211.975257
 30
0.0
 10
441.616450
 20
195.541682
 30
0.0
 10
441.484639
 20
179.128800
 30
0.0
 10
441.016951
 20
162.716202
 30
0.0
 10
439.979471
 20
146.324863
 30
0.0
 10
436.216507
 20
130.762658
 30
0.0
 10
430.816507
 20
119.962658
 30
0.0
 10
423.407395
 20
109.162658
 30
0.0
 10
415.707080
 20
100.191005
 30
0.0
 10
412.641439
 20
88.157934
 30
0.0
 10
408.395849
 20
72.723288
 30
0.0
 10
395.752564
 20
63.751635
 30
0.0
 10
382.222800
 20
52.356359
 30
0.0
 10
374.226973
 20
44.362658
 30
0.0
 10
362.835978
 20
30.841398
 30
0.0
 10
353.860044
 20
18.191792
 30
0.0
 10
338.436057
 20
13.939824
 30
0.0
 10
326.405083
 20
10.878406
 30
0.0
 10
317.431276
 20
3.182343
 30
0.0
 10
301.233458
 20
-4.237342
 30
0.0
 10
285.035556
 20
-9.637342
 30
0.0
 10
269.488196
 20
-13.740491
 30
0.0
 10
252.979929
 20
-14.760964
 30
0.0
 10
236.441897
 20
-15.038759
 30
0.0
 10
219.903894
 20
-14.760964
 30
0.0
 10
203.393472
 20
-13.740491
 30
0.0
  0
LWPOLYLINE
  5
108
100
AcDbEntity
  8
Layer_1
 62
7
100
AcDbPolyline
 90
70
 70
1
 10
268.837645
 20
38.964076
 30
0.0
 10
282.335547
 20
44.364076
 30
0.0
 10
295.833430
 20
51.868800
 30
0.0
 10
303.739937
 20
59.543603
 30
0.0
 10
314.731276
 20
62.902658
 30
0.0
 10
325.888498
 20
66.304233
 30
0.0
 10
333.629178
 20
74.297934
 30
0.0
 10
347.127080
 20
82.164076
 30
0.0
 10
358.095005
 20
85.034154
 30
0.0
 10
360.624983
 20
96.153052
 30
0.0
 10
362.876400
 20
106.719194
 30
0.0
 10
371.424983
 20
112.990847
 30
0.0
 10
381.011017
 20
122.515257
 30
0.0
 10
382.222800
 20
136.780611
 30
0.0
 10
383.068942
 20
148.005808
 30
0.0
 10
387.622800
 20
157.743099
 30
0.0
 10
391.734454
 20
173.305020
 30
0.0
 10
392.752800
 20
189.802658
 30
0.0
 10
393.022658
 20
206.343099
 30
0.0
 10
392.752800
 20
222.882973
 30
0.0
 10
391.734454
 20
239.401871
 30
0.0
 10
387.622800
 20
254.943099
 30
0.0
 10
382.222800
 20
265.743099
 30
0.0
 10
373.988920
 20
276.543099
 30
0.0
 10
362.514983
 20
292.743099
 30
0.0
 10
358.052457
 20
304.648328
 30
0.0
 10
346.453115
 20
308.921839
 30
0.0
 10
333.629178
 20
317.021839
 30
0.0
 10
325.633351
 20
325.121839
 30
0.0
 10
314.414532
 20
337.962784
 30
0.0
 10
303.134031
 20
349.974595
 30
0.0
 10
285.824324
 20
352.865934
 30
0.0
 10
268.335969
 20
354.545461
 30
0.0
 10
247.250373
 20
355.884831
 30
0.0
 10
226.120272
 20
356.203729
 30
0.0
 10
205.011374
 20
355.332076
 30
0.0
 10
184.064023
 20
352.653335
 30
0.0
 10
166.250373
 20
343.405304
 30
0.0
 10
158.150373
 20
335.921839
 30
0.0
 10
150.052499
 20
330.521839
 30
0.0
 10
136.799084
 20
325.121839
 30
0.0
 10
124.219636
 20
319.870658
 30
0.0
 10
119.999614
 20
306.221839
 30
0.0
 10
117.195440
 20
295.847036
 30
0.0
 10
111.270294
 20
287.343099
 30
0.0
 10
97.536436
 20
278.435225
 30
0.0
 10
90.658848
 20
263.425493
 30
0.0
 10
82.560974
 20
254.943099
 30
0.0
 10
75.360294
 20
238.084044
 30
0.0
 10
74.588533
 20
218.184831
 30
0.0
 10
74.460974
 20
198.243099
 30
0.0
 10
74.588533
 20
178.322343
 30
0.0
 10
75.360294
 20
158.401871
 30
0.0
 10
82.560974
 20
141.543099
 30
0.0
 10
90.658848
 20
128.064076
 30
0.0
 10
96.058848
 20
114.564076
 30
0.0
 10
101.458848
 20
103.764076
 30
0.0
 10
109.454675
 20
92.964076
 30
0.0
 10
120.845699
 20
79.421556
 30
0.0
 10
129.821604
 20
66.793209
 30
0.0
 10
145.245648
 20
62.541241
 30
0.0
 10
157.274467
 20
59.479824
 30
0.0
 10
166.250373
 20
51.783761
 30
0.0
 10
176.888826
 20
45.108170
 30
0.0
 10
190.546121
 20
44.364076
 30
0.0
 10
203.387094
 20
43.534942
 30
0.0
 10
214.844023
 20
38.964076
 30
0.0
 10
227.695569
 20
34.371950
 30
0.0
 10
241.839799
 20
33.564076
 30
0.0
 10
255.986099
 20
34.371950
 30
0.0
  0
LWPOLYLINE
  5
109
100
AcDbEntity
  8
Layer_1
 62
7
100
AcDbPolyline
 90
127
 70
1
 10
1040.935861
 20
74.064076
 30
0.0
 10
1035.153213
 20
82.164076
 30
0.0
 10
1021.929591
 20
89.775099
 30
0.0
 10
1013.935861
 20
102.764863
 30
0.0
 10
1005.431924
 20
108.696359
 30
0.0
 10
995.057093
 20
111.502658
 30
0.0
 10
984.575991
 20
114.393997
 30
0.0
 10
976.157093
 20
120.580611
 30
0.0
 10
968.269720
 20
133.825493
 30
0.0
 10
954.939827
 20
141.543099
 30
0.0
 10
949.157093
 20
149.047824
 30
0.0
 10
941.503578
 20
156.637587
 30
0.0
 10
930.767329
 20
159.996359
 30
0.0
 10
914.227200
 20
161.569587
 30
0.0
 10
897.623235
 20
160.804517
 30
0.0
 10
881.295676
 20
157.764076
 30
0.0
 10
868.157093
 20
148.962501
 30
0.0
 10
857.357093
 20
141.543099
 30
0.0
 10
846.557093
 20
136.143099
 30
0.0
 10
833.057093
 20
130.764076
 30
0.0
 10
819.578324
 20
123.259351
 30
0.0
 10
811.669635
 20
115.584548
 30
0.0
 10
800.678324
 20
112.204233
 30
0.0
 10
789.516907
 20
108.823918
 30
0.0
 10
781.778324
 20
100.808957
 30
0.0
 10
765.578324
 20
92.964076
 30
0.0
 10
749.378324
 20
101.064076
 30
0.0
 10
741.278324
 20
109.164076
 30
0.0
 10
733.178324
 20
119.964076
 30
0.0
 10
740.895591
 20
130.764076
 30
0.0
 10
749.463364
 20
143.945178
 30
0.0
 10
752.312183
 20
160.443099
 30
0.0
 10
755.160973
 20
176.834154
 30
0.0
 10
763.494831
 20
190.143099
 30
0.0
 10
770.978324
 20
200.943099
 30
0.0
 10
776.378324
 20
211.743099
 30
0.0
 10
780.927902
 20
221.799005
 30
0.0
 10
781.778324
 20
233.343099
 30
0.0
 10
782.586227
 20
245.992422
 30
0.0
 10
789.878324
 20
254.943099
 30
0.0
 10
797.978324
 20
265.743099
 30
0.0
 10
792.195676
 20
276.543099
 30
0.0
 10
778.972054
 20
284.154123
 30
0.0
 10
770.978324
 20
297.122627
 30
0.0
 10
760.178324
 20
305.095068
 30
0.0
 10
749.378324
 20
316.532863
 30
0.0
 10
741.278324
 20
325.121839
 30
0.0
 10
733.178324
 20
330.521839
 30
0.0
 10
720.316120
 20
335.921839
 30
0.0
 10
704.626356
 20
346.721839
 30
0.0
 10
693.188532
 20
357.521839
 30
0.0
 10
684.578239
 20
365.621839
 30
0.0
 10
679.178239
 20
373.721839
 30
0.0
 10
673.778239
 20
389.921839
 30
0.0
 10
673.778239
 20
406.121839
 30
0.0
 10
693.231080
 20
406.121839
 30
0.0
 10
712.662520
 20
406.121839
 30
0.0
 10
732.094044
 20
406.121839
 30
0.0
 10
751.546800
 20
406.121839
 30
0.0
 10
770.978324
 20
406.121839
 30
0.0
 10
790.409849
 20
406.121839
 30
0.0
 10
809.841288
 20
406.121839
 30
0.0
 10
829.294044
 20
406.121839
 30
0.0
 10
848.725569
 20
406.121839
 30
0.0
 10
868.157093
 20
406.121839
 30
0.0
 10
868.157093
 20
419.621839
 30
0.0
 10
873.557093
 20
433.121839
 30
0.0
 10
878.957093
 20
443.921839
 30
0.0
 10
886.801946
 20
454.721839
 30
0.0
 10
895.561030
 20
469.242312
 30
0.0
 10
898.282261
 20
487.100580
 30
0.0
 10
901.024781
 20
504.788769
 30
0.0
 10
909.358639
 20
519.500580
 30
0.0
 10
916.757093
 20
532.426564
 30
0.0
 10
926.536649
 20
548.754123
 30
0.0
 10
946.457093
 20
551.900580
 30
0.0
 10
963.337408
 20
550.199792
 30
0.0
 10
974.562605
 20
538.549398
 30
0.0
 10
976.157093
 20
521.626564
 30
0.0
 10
976.901244
 20
508.147824
 30
0.0
 10
983.768173
 20
497.900580
 30
0.0
 10
991.272898
 20
484.485619
 30
0.0
 10
993.654000
 20
468.285619
 30
0.0
 10
995.205969
 20
451.979320
 30
0.0
 10
996.481559
 20
436.672233
 30
0.0
 10
997.757093
 20
421.343887
 30
0.0
 10
999.032683
 20
406.036800
 30
0.0
 10
1019.994888
 20
402.699005
 30
0.0
 10
1031.985439
 20
399.616328
 30
0.0
 10
1040.935861
 20
391.941524
 30
0.0
 10
1055.435102
 20
385.542312
 30
0.0
 10
1072.464208
 20
384.691918
 30
0.0
 10
1089.535861
 20
384.521839
 30
0.0
 10
1106.076076
 20
384.244044
 30
0.0
 10
1122.573657
 20
383.244831
 30
0.0
 10
1138.135946
 20
379.120422
 30
0.0
 10
1149.276076
 20
374.549556
 30
0.0
 10
1161.840671
 20
373.720422
 30
0.0
 10
1179.061115
 20
372.508611
 30
0.0
 10
1189.053213
 20
359.773965
 30
0.0
 10
1190.860356
 20
344.870816
 30
0.0
 10
1186.268230
 20
330.796800
 30
0.0
 10
1172.853213
 20
325.120422
 30
0.0
 10
1159.735946
 20
317.275540
 30
0.0
 10
1151.976076
 20
309.260580
 30
0.0
 10
1140.835946
 20
305.879981
 30
0.0
 10
1129.844551
 20
302.499950
 30
0.0
 10
1121.935861
 20
294.825146
 30
0.0
 10
1108.542217
 20
287.341682
 30
0.0
 10
1097.508359
 20
284.386564
 30
0.0
 10
1091.916964
 20
274.458217
 30
0.0
 10
1082.711480
 20
262.297587
 30
0.0
 10
1067.510693
 20
258.194154
 30
0.0
 10
1048.440586
 20
251.221209
 30
0.0
 10
1046.335861
 20
230.577902
 30
0.0
 10
1047.058724
 20
216.631446
 30
0.0
 10
1054.435861
 20
206.341682
 30
0.0
 10
1061.813027
 20
196.030658
 30
0.0
 10
1062.535861
 20
182.041682
 30
0.0
 10
1063.364995
 20
169.200454
 30
0.0
 10
1067.935861
 20
157.741682
 30
0.0
 10
1072.613027
 20
139.415414
 30
0.0
 10
1073.335861
 20
119.962658
 30
0.0
 10
1072.613027
 20
100.488643
 30
0.0
 10
1067.935861
 20
82.162658
 30
0.0
 10
1062.535861
 20
74.062658
 30
0.0
 10
1051.735861
 20
65.962658
 30
0.0
  0
LWPOLYLINE
  5
10a
100
AcDbEntity
  8
Layer_1
 62
7
100
AcDbPolyline
 90
74
 70
1
 10
1013.935861
 20
176.643099
 30
0.0
 10
1006.579956
 20
190.143099
 30
0.0
 10
999.564208
 20
201.580894
 30
0.0
 10
997.161817
 20
215.633650
 30
0.0
 10
995.652369
 20
229.813965
 30
0.0
 10
994.334315
 20
246.800296
 30
0.0
 10
994.015417
 20
263.829430
 30
0.0
 10
997.289405
 20
280.390847
 30
0.0
 10
1011.831137
 20
287.343099
 30
0.0
 10
1024.735861
 20
295.187981
 30
0.0
 10
1032.474444
 20
303.202942
 30
0.0
 10
1043.635861
 20
306.583257
 30
0.0
 10
1054.627200
 20
309.963572
 30
0.0
 10
1062.535861
 20
317.638375
 30
0.0
 10
1067.935861
 20
325.121839
 30
0.0
 10
1073.335861
 20
330.521839
 30
0.0
 10
1059.091795
 20
335.135225
 30
0.0
 10
1043.635861
 20
335.921839
 30
0.0
 10
1027.010693
 20
336.517115
 30
0.0
 10
1013.935861
 20
344.021839
 30
0.0
 10
998.182346
 20
352.121839
 30
0.0
 10
981.068173
 20
353.333650
 30
0.0
 10
967.674444
 20
362.794280
 30
0.0
 10
965.357093
 20
379.695855
 30
0.0
 10
964.506756
 20
392.069083
 30
0.0
 10
957.257093
 20
400.721839
 30
0.0
 10
949.879956
 20
411.032863
 30
0.0
 10
949.157093
 20
425.021839
 30
0.0
 10
948.434230
 20
440.350186
 30
0.0
 10
938.357093
 20
449.321839
 30
0.0
 10
927.557093
 20
435.821839
 30
0.0
 10
922.157093
 20
422.321839
 30
0.0
 10
916.757093
 20
411.521839
 30
0.0
 10
909.337408
 20
400.721839
 30
0.0
 10
901.577537
 20
391.452548
 30
0.0
 10
898.494888
 20
379.121839
 30
0.0
 10
896.751581
 20
368.321839
 30
0.0
 10
895.029506
 20
357.521839
 30
0.0
 10
875.704337
 20
357.309241
 30
0.0
 10
856.379083
 20
357.119320
 30
0.0
 10
837.053915
 20
356.906721
 30
0.0
 10
820.131080
 20
356.609083
 30
0.0
 10
803.229506
 20
356.013808
 30
0.0
 10
788.007430
 20
353.909083
 30
0.0
 10
800.253156
 20
338.325619
 30
0.0
 10
811.563364
 20
325.123257
 30
0.0
 10
819.578324
 20
317.129556
 30
0.0
 10
832.589320
 20
305.861839
 30
0.0
 10
847.279956
 20
293.020894
 30
0.0
 10
850.171266
 20
273.015383
 30
0.0
 10
848.491710
 20
252.776013
 30
0.0
 10
845.642920
 20
238.850532
 30
0.0
 10
837.734230
 20
227.944517
 30
0.0
 10
830.357093
 20
217.144517
 30
0.0
 10
824.978324
 20
206.344517
 30
0.0
 10
819.578324
 20
192.844517
 30
0.0
 10
824.978324
 20
179.344517
 30
0.0
 10
830.357093
 20
184.744517
 30
0.0
 10
841.157093
 20
190.144517
 30
0.0
 10
851.957093
 20
197.627698
 30
0.0
 10
862.544466
 20
205.727698
 30
0.0
 10
876.257093
 20
208.768139
 30
0.0
 10
890.097222
 20
211.808013
 30
0.0
 10
900.557093
 20
220.184391
 30
0.0
 10
909.337408
 20
227.093839
 30
0.0
 10
921.519298
 20
227.944517
 30
0.0
 10
935.784680
 20
226.732422
 30
0.0
 10
945.309061
 20
217.144517
 30
0.0
 10
956.746857
 20
206.344517
 30
0.0
 10
965.357093
 20
200.561556
 30
0.0
 10
974.052369
 20
186.381524
 30
0.0
 10
989.253213
 20
179.344517
 30
0.0
 10
997.735861
 20
171.244517
 30
0.0
 10
1005.835861
 20
163.144517
 30
0.0
  0
LWPOLYLINE
  5
10b
100
AcDbEntity
  8
Layer_1
 62
7
100
AcDbPolyline
 90
90
 70
1
 10
1159.735946
 20
683.477736
 30
0.0
 10
1145.279254
 20
691.769075
 30
0.0
 10
1127.867386
 20
694.490335
 30
0.0
 10
1106.905181
 20
697.700571
 30
0.0
 10
1092.661115
 20
711.391910
 30
0.0
 10
1087.112239
 20
721.596634
 30
0.0
 10
1075.929591
 20
724.679311
 30
0.0
 10
1062.535861
 20
732.779311
 30
0.0
 10
1053.925654
 20
740.879311
 30
0.0
 10
1042.509061
 20
751.679311
 30
0.0
 10
1032.219383
 20
762.479311
 30
0.0
 10
1024.735861
 20
775.979311
 30
0.0
 10
1019.335861
 20
789.479311
 30
0.0
 10
1013.935861
 20
800.279311
 30
0.0
 10
1006.473657
 20
811.079311
 30
0.0
 10
999.139039
 20
824.643091
 30
0.0
 10
996.736649
 20
840.864351
 30
0.0
 10
995.184680
 20
857.191910
 30
0.0
 10
993.951581
 20
876.134429
 30
0.0
 10
993.441373
 20
895.119469
 30
0.0
 10
993.696491
 20
914.104508
 30
0.0
 10
994.908274
 20
933.068288
 30
0.0
 10
997.693313
 20
951.840729
 30
0.0
 10
1006.367357
 20
967.658051
 30
0.0
 10
1013.935833
 20
978.458051
 30
0.0
 10
1019.335833
 20
989.236791
 30
0.0
 10
1024.735833
 20
1002.736791
 30
0.0
 10
1032.219354
 20
1016.236791
 30
0.0
 10
1042.509033
 20
1027.036791
 30
0.0
 10
1053.925625
 20
1037.836791
 30
0.0
 10
1062.535833
 20
1043.619752
 30
0.0
 10
1071.252425
 20
1057.800067
 30
0.0
 10
1086.453184
 20
1064.836791
 30
0.0
 10
1094.935833
 20
1072.298996
 30
0.0
 10
1106.607487
 20
1082.588760
 30
0.0
 10
1122.892554
 20
1085.607658
 30
0.0
 10
1139.475260
 20
1086.352036
 30
0.0
 10
1151.465811
 20
1087.308729
 30
0.0
 10
1159.735918
 20
1094.537075
 30
0.0
 10
1173.788674
 20
1101.658839
 30
0.0
 10
1191.051638
 20
1102.487973
 30
0.0
 10
1208.314602
 20
1102.638209
 30
0.0
 10
1225.407572
 20
1102.468130
 30
0.0
 10
1242.457994
 20
1101.617453
 30
0.0
 10
1256.914687
 20
1095.154744
 30
0.0
 10
1270.223291
 20
1086.820886
 30
0.0
 10
1286.614687
 20
1083.972067
 30
0.0
 10
1303.112296
 20
1081.122965
 30
0.0
 10
1316.314687
 20
1072.555248
 30
0.0
 10
1324.308416
 20
1064.837925
 30
0.0
 10
1335.576104
 20
1051.805925
 30
0.0
 10
1341.550091
 20
1041.473642
 30
0.0
 10
1351.861172
 20
1035.499343
 30
0.0
 10
1364.893455
 20
1024.231626
 30
0.0
 10
1373.142274
 20
1016.237925
 30
0.0
 10
1384.601301
 20
1000.037925
 30
0.0
 10
1395.273798
 20
983.859469
 30
0.0
 10
1401.864350
 20
974.589894
 30
0.0
 10
1402.693455
 20
962.259185
 30
0.0
 10
1403.543820
 20
950.715091
 30
0.0
 10
1408.093455
 20
940.659185
 30
0.0
 10
1412.217865
 20
924.182807
 30
0.0
 10
1413.238309
 20
906.792256
 30
0.0
 10
1413.493427
 20
889.359185
 30
0.0
 10
1413.238309
 20
871.926114
 30
0.0
 10
1412.217865
 20
854.535564
 30
0.0
 10
1408.093455
 20
838.059186
 30
0.0
 10
1403.543820
 20
828.322178
 30
0.0
 10
1402.693455
 20
817.096981
 30
0.0
 10
1401.481616
 20
802.831626
 30
0.0
 10
1391.893455
 20
793.307217
 30
0.0
 10
1383.346998
 20
787.035563
 30
0.0
 10
1381.093455
 20
776.490681
 30
0.0
 10
1372.993455
 20
762.480445
 30
0.0
 10
1364.893455
 20
754.486744
 30
0.0
 10
1351.861172
 20
743.219028
 30
0.0
 10
1341.550091
 20
737.245012
 30
0.0
 10
1335.576104
 20
726.912729
 30
0.0
 10
1329.984794
 20
716.878083
 30
0.0
 10
1318.908416
 20
713.880445
 30
0.0
 10
1305.514687
 20
706.460760
 30
0.0
 10
1291.631953
 20
696.681232
 30
0.0
 10
1274.092611
 20
693.279658
 30
0.0
 10
1256.234372
 20
692.280445
 30
0.0
 10
1240.714687
 20
684.180445
 30
0.0
 10
1229.425682
 20
677.185957
 30
0.0
 10
1214.841402
 20
676.250524
 30
0.0
 10
1200.214602
 20
676.080445
 30
0.0
 10
1185.821745
 20
676.270366
 30
0.0
 10
1171.450091
 20
677.227059
 30
0.0
  0
LWPOLYLINE
  5
10c
100
AcDbEntity
  8
Layer_1
 62
7
100
AcDbPolyline
 90
70
 70
1
 10
1219.114630
 20
732.779311
 30
0.0
 10
1226.343005
 20
739.880099
 30
0.0
 10
1237.334400
 20
740.879311
 30
0.0
 10
1256.106813
 20
741.793484
 30
0.0
 10
1274.602876
 20
745.046240
 30
0.0
 10
1289.314715
 20
755.059626
 30
0.0
 10
1295.097364
 20
762.479311
 30
0.0
 10
1308.320986
 20
770.090335
 30
0.0
 10
1316.314715
 20
783.058839
 30
0.0
 10
1327.114715
 20
791.031280
 30
0.0
 10
1335.661200
 20
797.302933
 30
0.0
 10
1337.914715
 20
807.869075
 30
0.0
 10
1345.993483
 20
821.858052
 30
0.0
 10
1353.136791
 20
829.447816
 30
0.0
 10
1354.093483
 20
840.758052
 30
0.0
 10
1359.493483
 20
859.658052
 30
0.0
 10
1364.106813
 20
873.902146
 30
0.0
 10
1364.893483
 20
889.358051
 30
0.0
 10
1364.106813
 20
904.813957
 30
0.0
 10
1359.493483
 20
919.058051
 30
0.0
 10
1354.093483
 20
937.958051
 30
0.0
 10
1353.136791
 20
949.268288
 30
0.0
 10
1345.993483
 20
956.858051
 30
0.0
 10
1337.914715
 20
970.847028
 30
0.0
 10
1335.661200
 20
981.413169
 30
0.0
 10
1327.114715
 20
987.684823
 30
0.0
 10
1316.314715
 20
995.657264
 30
0.0
 10
1308.320986
 20
1008.625768
 30
0.0
 10
1295.097364
 20
1016.236791
 30
0.0
 10
1289.314715
 20
1024.166996
 30
0.0
 10
1277.579254
 20
1032.777232
 30
0.0
 10
1262.314715
 20
1035.647028
 30
0.0
 10
1247.305266
 20
1038.517106
 30
0.0
 10
1235.314715
 20
1046.638650
 30
0.0
 10
1220.539124
 20
1053.463059
 30
0.0
 10
1202.914630
 20
1054.036791
 30
0.0
 10
1185.269017
 20
1053.463059
 30
0.0
 10
1170.514630
 20
1046.553610
 30
0.0
 10
1157.205969
 20
1038.219752
 30
0.0
 10
1140.835946
 20
1035.370650
 30
0.0
 10
1124.338280
 20
1032.521831
 30
0.0
 10
1111.135861
 20
1023.954114
 30
0.0
 10
1103.142217
 20
1016.236791
 30
0.0
 10
1091.874444
 20
1003.204508
 30
0.0
 10
1085.900457
 20
992.872508
 30
0.0
 10
1075.568173
 20
986.919469
 30
0.0
 10
1065.533556
 20
981.328130
 30
0.0
 10
1062.535861
 20
970.251752
 30
0.0
 10
1054.435861
 20
956.858051
 30
0.0
 10
1047.228831
 20
939.084823
 30
0.0
 10
1046.463449
 20
918.271437
 30
0.0
 10
1046.335890
 20
897.458051
 30
0.0
 10
1046.463449
 20
876.644666
 30
0.0
 10
1047.228831
 20
855.852540
 30
0.0
 10
1054.435861
 20
838.058052
 30
0.0
 10
1062.535861
 20
824.558052
 30
0.0
 10
1067.935861
 20
811.079311
 30
0.0
 10
1073.335861
 20
800.279311
 30
0.0
 10
1080.840586
 20
789.479311
 30
0.0
 10
1091.746942
 20
775.979311
 30
0.0
 10
1097.274444
 20
765.625768
 30
0.0
 10
1108.542217
 20
762.479311
 30
0.0
 10
1121.935861
 20
755.059626
 30
0.0
 10
1133.990249
 20
745.811595
 30
0.0
 10
1149.807600
 20
742.643878
 30
0.0
 10
1165.880013
 20
741.261988
 30
0.0
 10
1181.994973
 20
740.879311
 30
0.0
 10
1196.983191
 20
740.220256
 30
0.0
 10
1208.314630
 20
732.779311
 30
0.0
 10
1213.714630
 20
724.679311
 30
0.0
  0
LWPOLYLINE
  5
10d
100
AcDbEntity
  8
Layer_1
 62
7
100
AcDbPolyline
 90
66
 70
1
 10
-481.669058
 20
-1675.323893
 30
0.0
 10
-470.871156
 20
-1667.223893
 30
0.0
 10
-460.071156
 20
-1661.823893
 30
0.0
 10
-446.573254
 20
-1656.423893
 30
0.0
 10
-433.075436
 20
-1648.961688
 30
0.0
 10
-422.277534
 20
-1638.650381
 30
0.0
 10
-413.728951
 20
-1632.400271
 30
0.0
 10
-411.477534
 20
-1621.834129
 30
0.0
 10
-403.379631
 20
-1607.823893
 30
0.0
 10
-395.279631
 20
-1597.023893
 30
0.0
 10
-389.879631
 20
-1586.223893
 30
0.0
 10
-385.689317
 20
-1566.111798
 30
0.0
 10
-384.728400
 20
-1545.149877
 30
0.0
 10
-384.481786
 20
-1524.145153
 30
0.0
 10
-384.728400
 20
-1503.140428
 30
0.0
 10
-385.689317
 20
-1482.156680
 30
0.0
 10
-389.879631
 20
-1462.044869
 30
0.0
 10
-395.279631
 20
-1451.244869
 30
0.0
 10
-402.792917
 20
-1440.444869
 30
0.0
 10
-413.694907
 20
-1426.944869
 30
0.0
 10
-425.079609
 20
-1413.444869
 30
0.0
 10
-433.075436
 20
-1405.217310
 30
0.0
 10
-449.273254
 20
-1393.736995
 30
0.0
 10
-465.471156
 20
-1383.085814
 30
0.0
 10
-474.731943
 20
-1376.495263
 30
0.0
 10
-487.069058
 20
-1375.666129
 30
0.0
 10
-498.604649
 20
-1374.815735
 30
0.0
 10
-508.664778
 20
-1370.266129
 30
0.0
 10
-521.518507
 20
-1365.674003
 30
0.0
 10
-535.662680
 20
-1364.866129
 30
0.0
 10
-549.806854
 20
-1365.674003
 30
0.0
 10
-562.658400
 20
-1370.266129
 30
0.0
 10
-572.720712
 20
-1374.815735
 30
0.0
 10
-584.256302
 20
-1375.666129
 30
0.0
 10
-596.593417
 20
-1376.495263
 30
0.0
 10
-605.854205
 20
-1383.085814
 30
0.0
 10
-622.052107
 20
-1393.736995
 30
0.0
 10
-638.249896
 20
-1405.217310
 30
0.0
 10
-649.047798
 20
-1413.444869
 30
0.0
 10
-659.847798
 20
-1426.944869
 30
0.0
 10
-667.945701
 20
-1440.444869
 30
0.0
 10
-676.045701
 20
-1451.244869
 30
0.0
 10
-681.443603
 20
-1462.044869
 30
0.0
 10
-686.843603
 20
-1475.545153
 30
0.0
 10
-694.941420
 20
-1489.045153
 30
0.0
 10
-702.531213
 20
-1504.862192
 30
0.0
 10
-703.041420
 20
-1524.145153
 30
0.0
 10
-702.531213
 20
-1543.427546
 30
0.0
 10
-694.941420
 20
-1559.245153
 30
0.0
 10
-686.843603
 20
-1575.423893
 30
0.0
 10
-681.443603
 20
-1591.623893
 30
0.0
 10
-676.045701
 20
-1605.123893
 30
0.0
 10
-668.574964
 20
-1618.623893
 30
0.0
 10
-658.283074
 20
-1629.423893
 30
0.0
 10
-646.853839
 20
-1640.223893
 30
0.0
 10
-638.249896
 20
-1646.006570
 30
0.0
 10
-629.544076
 20
-1660.186885
 30
0.0
 10
-614.339036
 20
-1667.223893
 30
0.0
 10
-605.854205
 20
-1675.323893
 30
0.0
 10
-592.558271
 20
-1682.084523
 30
0.0
 10
-576.311471
 20
-1683.062476
 30
0.0
 10
-560.034992
 20
-1683.360113
 30
0.0
 10
-543.760583
 20
-1683.425310
 30
0.0
 10
-527.484019
 20
-1683.360113
 30
0.0
 10
-511.209609
 20
-1683.062476
 30
0.0
 10
-494.964992
 20
-1682.084523
 30
0.0
  0
LWPOLYLINE
  5
10e
100
AcDbEntity
  8
Layer_1
 62
7
100
AcDbPolyline
 90
48
 70
1
 10
2844.324000
 20
-1661.823893
 30
0.0
 10
2859.928724
 20
-1657.189247
 30
0.0
 10
2876.702740
 20
-1656.423893
 30
0.0
 10
2896.006677
 20
-1655.934917
 30
0.0
 10
2909.102740
 20
-1645.623893
 30
0.0
 10
2901.598016
 20
-1634.823893
 30
0.0
 10
2890.691717
 20
-1621.323893
 30
0.0
 10
2879.317701
 20
-1607.823893
 30
0.0
 10
2871.302740
 20
-1599.596334
 30
0.0
 10
2855.124000
 20
-1588.116019
 30
0.0
 10
2838.924000
 20
-1577.464554
 30
0.0
 10
2825.423972
 20
-1570.023893
 30
0.0
 10
2811.923972
 20
-1564.645153
 30
0.0
 10
2803.823972
 20
-1559.245153
 30
0.0
 10
2795.723972
 20
-1551.803924
 30
0.0
 10
2779.523972
 20
-1541.153027
 30
0.0
 10
2763.323972
 20
-1529.672712
 30
0.0
 10
2752.523972
 20
-1521.445153
 30
0.0
 10
2741.723972
 20
-1516.045153
 30
0.0
 10
2733.623972
 20
-1510.645153
 30
0.0
 10
2725.523972
 20
-1502.545153
 30
0.0
 10
2711.534712
 20
-1494.445153
 30
0.0
 10
2700.968570
 20
-1492.191326
 30
0.0
 10
2694.696917
 20
-1483.645153
 30
0.0
 10
2684.407153
 20
-1472.845153
 30
0.0
 10
2676.944948
 20
-1467.445153
 30
0.0
 10
2671.544948
 20
-1462.044869
 30
0.0
 10
2666.144948
 20
-1475.438570
 30
0.0
 10
2669.121326
 20
-1486.493688
 30
0.0
 10
2679.092192
 20
-1492.085027
 30
0.0
 10
2691.742082
 20
-1502.523609
 30
0.0
 10
2695.611090
 20
-1519.191609
 30
0.0
 10
2698.651531
 20
-1532.818885
 30
0.0
 10
2706.963846
 20
-1543.045153
 30
0.0
 10
2713.384602
 20
-1556.566129
 30
0.0
 10
2714.362554
 20
-1572.723893
 30
0.0
 10
2714.660192
 20
-1588.923893
 30
0.0
 10
2714.725389
 20
-1605.123893
 30
0.0
 10
2714.725389
 20
-1625.830980
 30
0.0
 10
2714.725389
 20
-1646.516523
 30
0.0
 10
2714.725389
 20
-1667.223893
 30
0.0
 10
2730.925389
 20
-1667.223893
 30
0.0
 10
2747.125389
 20
-1667.223893
 30
0.0
 10
2763.325389
 20
-1667.223893
 30
0.0
 10
2779.525389
 20
-1667.223893
 30
0.0
 10
2795.937987
 20
-1667.096334
 30
0.0
 10
2812.371846
 20
-1666.628617
 30
0.0
 10
2828.741924
 20
-1665.586885
 30
0.0
  0
LWPOLYLINE
  5
10f
100
AcDbEntity
  8
Layer_1
 62
7
100
AcDbPolyline
 90
69
 70
1
 10
1726.650964
 20
-1626.723893
 30
0.0
 10
1732.433641
 20
-1618.623893
 30
0.0
 10
1745.721043
 20
-1610.970066
 30
0.0
 10
1753.650964
 20
-1597.895546
 30
0.0
 10
1767.980381
 20
-1590.433342
 30
0.0
 10
1784.711594
 20
-1588.030980
 30
0.0
 10
1801.613452
 20
-1587.478224
 30
0.0
 10
1818.451247
 20
-1588.923893
 30
0.0
 10
1830.866712
 20
-1592.155106
 30
0.0
 10
1840.051247
 20
-1600.212586
 30
0.0
 10
1853.529704
 20
-1607.823893
 30
0.0
 10
1867.029704
 20
-1613.223893
 30
0.0
 10
1877.829987
 20
-1618.623893
 30
0.0
 10
1888.629987
 20
-1613.223893
 30
0.0
 10
1881.231562
 20
-1607.823893
 30
0.0
 10
1872.918680
 20
-1593.111798
 30
0.0
 10
1870.176161
 20
-1575.423893
 30
0.0
 10
1867.433641
 20
-1557.565342
 30
0.0
 10
1858.674869
 20
-1543.045153
 30
0.0
 10
1850.829704
 20
-1532.245153
 30
0.0
 10
1858.844948
 20
-1521.445153
 30
0.0
 10
1870.112665
 20
-1508.412586
 30
0.0
 10
1876.065420
 20
-1498.080302
 30
0.0
 10
1886.397704
 20
-1492.106570
 30
0.0
 10
1899.429987
 20
-1480.838570
 30
0.0
 10
1906.955972
 20
-1472.845153
 30
0.0
 10
1917.564633
 20
-1464.404712
 30
0.0
 10
1921.029987
 20
-1450.798413
 30
0.0
 10
1904.404507
 20
-1447.162980
 30
0.0
 10
1887.099279
 20
-1446.142507
 30
0.0
 10
1869.729987
 20
-1445.844869
 30
0.0
 10
1850.680885
 20
-1445.759830
 30
0.0
 10
1831.653326
 20
-1444.994476
 30
0.0
 10
1818.451247
 20
-1435.044869
 30
0.0
 10
1810.351247
 20
-1424.244869
 30
0.0
 10
1802.251247
 20
-1410.744869
 30
0.0
 10
1796.851247
 20
-1397.266129
 30
0.0
 10
1791.451247
 20
-1386.466129
 30
0.0
 10
1783.797420
 20
-1375.666129
 30
0.0
 10
1773.422901
 20
-1368.905499
 30
0.0
 10
1770.743877
 20
-1377.133058
 30
0.0
 10
1770.276161
 20
-1387.805499
 30
0.0
 10
1769.319468
 20
-1402.453531
 30
0.0
 10
1761.751247
 20
-1413.444869
 30
0.0
 10
1753.650964
 20
-1429.644869
 30
0.0
 10
1748.250964
 20
-1445.844869
 30
0.0
 10
1742.850964
 20
-1453.944869
 30
0.0
 10
1732.050964
 20
-1462.044869
 30
0.0
 10
1721.250964
 20
-1467.445153
 30
0.0
 10
1712.258050
 20
-1472.547231
 30
0.0
 10
1702.818680
 20
-1466.105499
 30
0.0
 10
1696.504507
 20
-1466.105499
 30
0.0
 10
1683.769861
 20
-1471.718098
 30
0.0
 10
1669.504507
 20
-1472.845153
 30
0.0
 10
1653.198208
 20
-1474.970854
 30
0.0
 10
1646.777735
 20
-1486.302350
 30
0.0
 10
1661.872224
 20
-1492.552743
 30
0.0
 10
1678.050964
 20
-1503.225468
 30
0.0
 10
1686.150964
 20
-1510.645153
 30
0.0
 10
1694.250964
 20
-1516.045153
 30
0.0
 10
1707.134428
 20
-1521.445153
 30
0.0
 10
1721.144665
 20
-1529.119672
 30
0.0
 10
1723.844665
 20
-1545.936208
 30
0.0
 10
1723.589546
 20
-1563.071924
 30
0.0
 10
1722.547814
 20
-1580.186098
 30
0.0
 10
1720.464350
 20
-1600.807861
 30
0.0
 10
1712.428129
 20
-1618.623893
 30
0.0
 10
1705.050964
 20
-1626.723893
 30
0.0
 10
1715.850964
 20
-1634.823893
 30
0.0
  0
LWPOLYLINE
  5
110
100
AcDbEntity
  8
Layer_1
 62
7
100
AcDbPolyline
 90
75
 70
1
 10
-271.094494
 20
-722.329909
 30
0.0
 10
-271.577120
 20
-701.729121
 30
0.0
 10
-279.194494
 20
-684.551169
 30
0.0
 10
-286.329317
 20
-676.961405
 30
0.0
 10
-287.292387
 20
-665.651169
 30
0.0
 10
-286.329317
 20
-654.319672
 30
0.0
 10
-279.194494
 20
-646.751169
 30
0.0
 10
-271.094494
 20
-641.351169
 30
0.0
 10
-260.296591
 20
-635.951169
 30
0.0
 10
-249.498774
 20
-628.467704
 30
0.0
 10
-238.915596
 20
-620.388680
 30
0.0
 10
-225.200871
 20
-617.327546
 30
0.0
 10
-211.356462
 20
-614.287106
 30
0.0
 10
-200.905067
 20
-605.931987
 30
0.0
 10
-195.505067
 20
-598.150885
 30
0.0
 10
-190.105067
 20
-592.750885
 30
0.0
 10
-201.564179
 20
-588.180019
 30
0.0
 10
-214.402969
 20
-587.350885
 30
0.0
 10
-228.389876
 20
-586.628334
 30
0.0
 10
-238.698774
 20
-579.250885
 30
0.0
 10
-247.413155
 20
-572.001279
 30
0.0
 10
-259.854386
 20
-571.150885
 30
0.0
 10
-278.773520
 20
-570.300775
 30
0.0
 10
-295.047978
 20
-562.094192
 30
0.0
 10
-298.092387
 20
-543.577153
 30
0.0
 10
-298.940627
 20
-531.203641
 30
0.0
 10
-306.190290
 20
-522.572428
 30
0.0
 10
-313.631178
 20
-511.134350
 30
0.0
 10
-314.290290
 20
-496.082381
 30
0.0
 10
-314.783490
 20
-479.988680
 30
0.0
 10
-325.088107
 20
-472.398917
 30
0.0
 10
-335.888107
 20
-488.088680
 30
0.0
 10
-341.286009
 20
-500.972145
 30
0.0
 10
-346.686009
 20
-511.772145
 30
0.0
 10
-354.199209
 20
-522.572428
 30
0.0
 10
-365.101285
 20
-536.072428
 30
0.0
 10
-377.015329
 20
-548.317814
 30
0.0
 10
-395.619817
 20
-549.465846
 30
0.0
 10
-414.279609
 20
-549.550885
 30
0.0
 10
-430.332917
 20
-549.358129
 30
0.0
 10
-446.358529
 20
-548.401436
 30
0.0
 10
-460.498507
 20
-542.810098
 30
0.0
 10
-463.647090
 20
-542.810098
 30
0.0
 10
-474.019739
 20
-549.549468
 30
0.0
 10
-481.669058
 20
-557.649468
 30
0.0
 10
-470.871156
 20
-565.749468
 30
0.0
 10
-460.071156
 20
-576.549468
 30
0.0
 10
-454.286324
 20
-587.349468
 30
0.0
 10
-440.877770
 20
-595.151830
 30
0.0
 10
-433.075436
 20
-608.566791
 30
0.0
 10
-424.975436
 20
-614.349468
 30
0.0
 10
-417.598214
 20
-624.660775
 30
0.0
 10
-416.877534
 20
-638.649751
 30
0.0
 10
-417.598214
 20
-652.638444
 30
0.0
 10
-424.975436
 20
-662.949751
 30
0.0
 10
-433.075436
 20
-673.749751
 30
0.0
 10
-438.475436
 20
-684.549751
 30
0.0
 10
-443.873254
 20
-697.645814
 30
0.0
 10
-453.323254
 20
-713.208019
 30
0.0
 10
-444.553569
 20
-716.248176
 30
0.0
 10
-428.289817
 20
-715.631641
 30
0.0
 10
-412.153569
 20
-713.569436
 30
0.0
 10
-395.279631
 20
-702.769436
 30
0.0
 10
-381.781729
 20
-695.349751
 30
0.0
 10
-368.283912
 20
-689.949751
 30
0.0
 10
-359.799080
 20
-684.549751
 30
0.0
 10
-344.594041
 20
-691.586759
 30
0.0
 10
-335.888107
 20
-705.745814
 30
0.0
 10
-327.282151
 20
-711.549751
 30
0.0
 10
-315.855014
 20
-722.328491
 30
0.0
 10
-307.876139
 20
-733.128491
 30
0.0
 10
-294.901285
 20
-741.122192
 30
0.0
 10
-287.292387
 20
-754.345814
 30
0.0
 10
-279.194494
 20
-760.128491
 30
0.0
 10
-271.577120
 20
-742.950539
 30
0.0
  0
LWPOLYLINE
  5
111
100
AcDbEntity
  8
Layer_1
 62
7
100
AcDbPolyline
 90
98
 70
1
 10
1802.251247
 20
-433.727263
 30
0.0
 10
1809.989830
 20
-425.712302
 30
0.0
 10
1821.151247
 20
-422.310728
 30
0.0
 10
1831.526050
 20
-419.525688
 30
0.0
 10
1840.051247
 20
-413.594192
 30
0.0
 10
1847.832350
 20
-400.774507
 30
0.0
 10
1860.630775
 20
-392.972145
 30
0.0
 10
1868.603216
 20
-382.172145
 30
0.0
 10
1880.041011
 20
-371.393405
 30
0.0
 10
1888.629987
 20
-363.293405
 30
0.0
 10
1902.129987
 20
-355.193405
 30
0.0
 10
1915.629987
 20
-362.953247
 30
0.0
 10
1926.089830
 20
-371.308365
 30
0.0
 10
1939.929987
 20
-374.369783
 30
0.0
 10
1953.642586
 20
-377.409940
 30
0.0
 10
1964.229987
 20
-385.488680
 30
0.0
 10
1972.712665
 20
-392.972145
 30
0.0
 10
1987.913452
 20
-400.030413
 30
0.0
 10
1996.629987
 20
-414.189468
 30
0.0
 10
2007.429987
 20
-419.972145
 30
0.0
 10
2017.804791
 20
-407.492617
 30
0.0
 10
2014.849672
 20
-388.252460
 30
0.0
 10
2004.049672
 20
-371.393405
 30
0.0
 10
1996.629987
 20
-357.893405
 30
0.0
 10
1991.229987
 20
-344.393405
 30
0.0
 10
1985.829987
 20
-325.493405
 30
0.0
 10
1984.852035
 20
-314.161909
 30
0.0
 10
1977.729987
 20
-306.593405
 30
0.0
 10
1969.629987
 20
-293.688680
 30
0.0
 10
1972.925263
 20
-282.739861
 30
0.0
 10
1983.129987
 20
-277.382381
 30
0.0
 10
1996.629987
 20
-265.987106
 30
0.0
 10
2004.623688
 20
-257.993405
 30
0.0
 10
2015.891405
 20
-244.961121
 30
0.0
 10
2021.865420
 20
-234.628838
 30
0.0
 10
2032.176444
 20
-228.676082
 30
0.0
 10
2045.208728
 20
-217.408365
 30
0.0
 10
2052.734712
 20
-209.393405
 30
0.0
 10
2063.343373
 20
-200.974507
 30
0.0
 10
2066.808728
 20
-187.368208
 30
0.0
 10
2049.737074
 20
-183.116239
 30
0.0
 10
2031.708728
 20
-182.414665
 30
0.0
 10
2012.447310
 20
-182.924901
 30
0.0
 10
1996.629987
 20
-190.514665
 30
0.0
 10
1979.600854
 20
-198.125688
 30
0.0
 10
1959.148885
 20
-198.614665
 30
0.0
 10
1940.418964
 20
-198.614665
 30
0.0
 10
1921.689043
 20
-198.614665
 30
0.0
 10
1919.881956
 20
-186.454035
 30
0.0
 10
1918.053609
 20
-174.314665
 30
0.0
 10
1915.013452
 20
-160.602066
 30
0.0
 10
1906.913452
 20
-150.014665
 30
0.0
 10
1899.429987
 20
-139.214665
 30
0.0
 10
1894.029987
 20
-128.414665
 30
0.0
 10
1888.629987
 20
-114.914665
 30
0.0
 10
1880.529987
 20
-101.414665
 30
0.0
 10
1871.707153
 20
-89.275294
 30
0.0
 10
1870.962775
 20
-77.114665
 30
0.0
 10
1868.624192
 20
-89.275294
 30
0.0
 10
1858.568570
 20
-101.414665
 30
0.0
 10
1851.574082
 20
-111.917027
 30
0.0
 10
1850.829704
 20
-125.714665
 30
0.0
 10
1850.022113
 20
-138.555609
 30
0.0
 10
1845.451247
 20
-150.014665
 30
0.0
 10
1840.858838
 20
-161.473720
 30
0.0
 10
1840.051247
 20
-174.314665
 30
0.0
 10
1839.328129
 20
-188.303641
 30
0.0
 10
1831.951247
 20
-198.614665
 30
0.0
 10
1823.851247
 20
-204.014665
 30
0.0
 10
1807.651247
 20
-209.393405
 30
0.0
 10
1791.451247
 20
-217.493405
 30
0.0
 10
1780.310806
 20
-224.487893
 30
0.0
 10
1765.875657
 20
-225.444586
 30
0.0
 10
1751.397420
 20
-225.594822
 30
0.0
 10
1735.133641
 20
-225.872617
 30
0.0
 10
1718.891121
 20
-226.680491
 30
0.0
 10
1702.797420
 20
-228.891515
 30
0.0
 10
1694.633641
 20
-240.456869
 30
0.0
 10
1707.750964
 20
-247.196239
 30
0.0
 10
1721.250964
 20
-252.596239
 30
0.0
 10
1732.050964
 20
-257.996239
 30
0.0
 10
1742.850964
 20
-266.096239
 30
0.0
 10
1756.861483
 20
-274.196239
 30
0.0
 10
1767.427625
 20
-276.449783
 30
0.0
 10
1773.677735
 20
-284.996239
 30
0.0
 10
1789.367499
 20
-295.796239
 30
0.0
 10
1799.742302
 20
-298.708838
 30
0.0
 10
1802.251247
 20
-309.296239
 30
0.0
 10
1811.690334
 20
-323.412775
 30
0.0
 10
1811.690334
 20
-326.516712
 30
0.0
 10
1802.889043
 20
-341.887578
 30
0.0
 10
1802.251247
 20
-360.978917
 30
0.0
 10
1801.464350
 20
-377.582854
 30
0.0
 10
1796.851247
 20
-392.974980
 30
0.0
 10
1792.258838
 20
-404.434035
 30
0.0
 10
1791.451247
 20
-417.274980
 30
0.0
 10
1792.258838
 20
-430.115924
 30
0.0
 10
1796.851247
 20
-441.574980
 30
0.0
  0
LWPOLYLINE
  5
112
100
AcDbEntity
  8
Layer_1
 62
7
100
AcDbPolyline
 90
66
 70
1
 10
-485.719058
 20
-276.128050
 30
0.0
 10
-474.079294
 20
-273.002854
 30
0.0
 10
-465.471156
 20
-265.391830
 30
0.0
 10
-456.986324
 20
-257.993405
 30
0.0
 10
-441.781285
 20
-250.956397
 30
0.0
 10
-433.075436
 20
-236.776082
 30
0.0
 10
-424.471578
 20
-230.993405
 30
0.0
 10
-413.042258
 20
-220.193405
 30
0.0
 10
-402.748214
 20
-209.393405
 30
0.0
 10
-395.279631
 20
-195.914665
 30
0.0
 10
-389.879631
 20
-182.414665
 30
0.0
 10
-385.702044
 20
-163.195767
 30
0.0
 10
-384.730498
 20
-143.126476
 30
0.0
 10
-384.481616
 20
-123.014665
 30
0.0
 10
-384.730498
 20
-102.902854
 30
0.0
 10
-385.702044
 20
-82.833562
 30
0.0
 10
-389.879631
 20
-63.614665
 30
0.0
 10
-395.279631
 20
-50.752460
 30
0.0
 10
-406.077534
 20
-35.062696
 30
0.0
 10
-414.626117
 20
-28.791043
 30
0.0
 10
-416.877534
 20
-18.224901
 30
0.0
 10
-424.975436
 20
-4.235924
 30
0.0
 10
-433.075436
 20
3.247540
 30
0.0
 10
-443.658529
 20
11.347540
 30
0.0
 10
-457.371156
 20
14.387698
 30
0.0
 10
-471.217720
 20
17.427855
 30
0.0
 10
-481.669058
 20
25.804233
 30
0.0
 10
-497.796746
 20
32.628643
 30
0.0
 10
-516.720161
 20
33.436517
 30
0.0
 10
-535.662680
 20
33.564076
 30
0.0
 10
-554.603102
 20
33.436517
 30
0.0
 10
-573.524334
 20
32.628643
 30
0.0
 10
-589.656302
 20
25.804233
 30
0.0
 10
-600.107641
 20
17.427855
 30
0.0
 10
-613.952107
 20
14.387698
 30
0.0
 10
-627.666831
 20
11.347540
 30
0.0
 10
-638.249896
 20
3.247540
 30
0.0
 10
-646.245723
 20
-4.235924
 30
0.0
 10
-657.630425
 20
-17.735924
 30
0.0
 10
-668.530318
 20
-31.235924
 30
0.0
 10
-676.045701
 20
-42.014665
 30
0.0
 10
-681.443603
 20
-52.814665
 30
0.0
 10
-686.843603
 20
-66.314665
 30
0.0
 10
-694.941420
 20
-79.814665
 30
0.0
 10
-701.938091
 20
-91.103641
 30
0.0
 10
-702.881972
 20
-105.687893
 30
0.0
 10
-703.041562
 20
-120.314665
 30
0.0
 10
-702.881972
 20
-134.941436
 30
0.0
 10
-701.938091
 20
-149.525688
 30
0.0
 10
-694.941420
 20
-160.814665
 30
0.0
 10
-686.843603
 20
-177.397342
 30
0.0
 10
-681.666803
 20
-197.445373
 30
0.0
 10
-665.632630
 20
-209.393405
 30
0.0
 10
-659.847798
 20
-220.193405
 30
0.0
 10
-649.047798
 20
-230.993405
 30
0.0
 10
-638.249896
 20
-236.776082
 30
0.0
 10
-630.447619
 20
-250.191043
 30
0.0
 10
-617.036854
 20
-257.993405
 30
0.0
 10
-611.252107
 20
-265.753247
 30
0.0
 10
-604.164076
 20
-273.109153
 30
0.0
 10
-593.704205
 20
-275.681594
 30
0.0
 10
-575.750268
 20
-277.318602
 30
0.0
 10
-557.738929
 20
-278.211515
 30
0.0
 10
-539.712680
 20
-278.594192
 30
0.0
 10
-521.677956
 20
-278.509153
 30
0.0
 10
-503.658085
 20
-277.871357
 30
0.0
  0
LWPOLYLINE
  5
113
100
AcDbEntity
  8
Layer_1
 62
7
100
AcDbPolyline
 90
12
 70
1
 10
1791.451247
 20
-147.314665
 30
0.0
 10
1796.851247
 20
-133.814665
 30
0.0
 10
1801.549389
 20
-121.909153
 30
0.0
 10
1794.533641
 20
-109.131987
 30
0.0
 10
1783.032350
 20
-103.328050
 30
0.0
 10
1770.233641
 20
-101.414665
 30
0.0
 10
1757.562775
 20
-103.243011
 30
0.0
 10
1753.650964
 20
-114.914665
 30
0.0
 10
1761.751247
 20
-128.414665
 30
0.0
 10
1769.851247
 20
-144.614665
 30
0.0
 10
1771.275657
 20
-155.861121
 30
0.0
 10
1780.651247
 20
-160.814665
 30
0.0
  0
LWPOLYLINE
  5
114
100
AcDbEntity
  8
Layer_1
 62
7
100
AcDbPolyline
 90
69
 70
1
 10
1917.841011
 20
322.421839
 30
0.0
 10
1923.368570
 20
332.775383
 30
0.0
 10
1934.636287
 20
335.921839
 30
0.0
 10
1948.029987
 20
344.021839
 30
0.0
 10
1956.640224
 20
352.121839
 30
0.0
 10
1968.056759
 20
362.921839
 30
0.0
 10
1978.346523
 20
373.721839
 30
0.0
 10
1985.829987
 20
387.221839
 30
0.0
 10
1991.229987
 20
400.721839
 30
0.0
 10
1996.629987
 20
411.521839
 30
0.0
 10
2004.729987
 20
422.321839
 30
0.0
 10
2011.724476
 20
433.610816
 30
0.0
 10
2012.659909
 20
448.195068
 30
0.0
 10
2012.829987
 20
462.821839
 30
0.0
 10
2012.659909
 20
477.427351
 30
0.0
 10
2011.724476
 20
492.011603
 30
0.0
 10
2004.729987
 20
503.300580
 30
0.0
 10
1997.437861
 20
512.250973
 30
0.0
 10
1996.629987
 20
524.900580
 30
0.0
 10
1995.779594
 20
536.444674
 30
0.0
 10
1991.229987
 20
546.500580
 30
0.0
 10
1985.829987
 20
557.300580
 30
0.0
 10
1977.836287
 20
568.100571
 30
0.0
 10
1966.441011
 20
581.621831
 30
0.0
 10
1957.469357
 20
594.271437
 30
0.0
 10
1942.034712
 20
598.523406
 30
0.0
 10
1930.001641
 20
601.584823
 30
0.0
 10
1921.029987
 20
609.280886
 30
0.0
 10
1904.829987
 20
616.700571
 30
0.0
 10
1888.629987
 20
622.100571
 30
0.0
 10
1874.917389
 20
626.161201
 30
0.0
 10
1860.205294
 20
627.202933
 30
0.0
 10
1845.451247
 20
627.500571
 30
0.0
 10
1830.675657
 20
627.202933
 30
0.0
 10
1815.963562
 20
626.161201
 30
0.0
 10
1802.251247
 20
622.100571
 30
0.0
 10
1788.751247
 20
616.700571
 30
0.0
 10
1775.251247
 20
609.259626
 30
0.0
 10
1759.050964
 20
598.608445
 30
0.0
 10
1742.850964
 20
587.128130
 30
0.0
 10
1734.857263
 20
578.900571
 30
0.0
 10
1723.483247
 20
565.400571
 30
0.0
 10
1712.576948
 20
551.900580
 30
0.0
 10
1705.050964
 20
541.100580
 30
0.0
 10
1699.650964
 20
530.300580
 30
0.0
 10
1695.462775
 20
510.188769
 30
0.0
 10
1694.506082
 20
489.205304
 30
0.0
 10
1694.250964
 20
468.221839
 30
0.0
 10
1694.506082
 20
447.217115
 30
0.0
 10
1695.462775
 20
426.233650
 30
0.0
 10
1699.650964
 20
406.121839
 30
0.0
 10
1705.050964
 20
395.321839
 30
0.0
 10
1713.044665
 20
384.521839
 30
0.0
 10
1724.312381
 20
371.489556
 30
0.0
 10
1730.286397
 20
361.157272
 30
0.0
 10
1740.618680
 20
355.183257
 30
0.0
 10
1753.650964
 20
343.915540
 30
0.0
 10
1761.751247
 20
335.921839
 30
0.0
 10
1769.851247
 20
330.521839
 30
0.0
 10
1780.651247
 20
325.121839
 30
0.0
 10
1791.451247
 20
317.021839
 30
0.0
 10
1804.589830
 20
310.261209
 30
0.0
 10
1820.683531
 20
309.283257
 30
0.0
 10
1836.819468
 20
308.985619
 30
0.0
 10
1852.955972
 20
308.920422
 30
0.0
 10
1870.835499
 20
308.948769
 30
0.0
 10
1888.714743
 20
309.161367
 30
0.0
 10
1906.530775
 20
310.564517
 30
0.0
 10
1917.841011
 20
322.427509
 30
0.0
  0
LWPOLYLINE
  5
115
100
AcDbEntity
  8
Layer_1
 62
7
100
AcDbPolyline
 90
74
 70
1
 10
-120.738453
 20
782.718681
 30
0.0
 10
-121.363520
 20
802.065138
 30
0.0
 10
-121.988560
 20
821.411595
 30
0.0
 10
-122.613542
 20
840.758052
 30
0.0
 10
-107.765725
 20
842.480099
 30
0.0
 10
-92.917823
 20
851.919469
 30
0.0
 10
-82.117823
 20
859.658052
 30
0.0
 10
-71.319920
 20
865.058052
 30
0.0
 10
-57.822103
 20
870.458051
 30
0.0
 10
-44.324201
 20
878.154114
 30
0.0
 10
-34.874201
 20
888.337579
 30
0.0
 10
-51.072103
 20
891.441516
 30
0.0
 10
-65.730679
 20
892.504508
 30
0.0
 10
-76.719920
 20
900.158051
 30
0.0
 10
-91.159662
 20
907.705295
 30
0.0
 10
-109.115725
 20
908.258051
 30
0.0
 10
-129.801552
 20
908.747028
 30
0.0
 10
-141.511445
 20
921.758051
 30
0.0
 10
-146.911445
 20
935.258051
 30
0.0
 10
-151.503627
 20
948.098996
 30
0.0
 10
-152.309347
 20
962.258051
 30
0.0
 10
-152.957801
 20
977.565138
 30
0.0
 10
-160.409347
 20
989.236791
 30
0.0
 10
-169.317249
 20
1004.097421
 30
0.0
 10
-170.125067
 20
1018.936791
 30
0.0
 10
-172.325489
 20
1004.607658
 30
0.0
 10
-177.057901
 20
993.148886
 30
0.0
 10
-187.715489
 20
986.961988
 30
0.0
 10
-197.854279
 20
981.392193
 30
0.0
 10
-200.905067
 20
970.251752
 30
0.0
 10
-208.401316
 20
956.858051
 30
0.0
 10
-216.073964
 20
948.949390
 30
0.0
 10
-219.445804
 20
937.958051
 30
0.0
 10
-226.261738
 20
921.375374
 30
0.0
 10
-244.343177
 20
919.058051
 30
0.0
 10
-256.882289
 20
919.887185
 30
0.0
 10
-265.696591
 20
927.158051
 30
0.0
 10
-281.511845
 20
934.747815
 30
0.0
 10
-300.792387
 20
935.258051
 30
0.0
 10
-320.070841
 20
934.747815
 30
0.0
 10
-335.888107
 20
927.158051
 30
0.0
 10
-327.890183
 20
919.058051
 30
0.0
 10
-316.624592
 20
906.025768
 30
0.0
 10
-310.654800
 20
895.693484
 30
0.0
 10
-300.324671
 20
889.719469
 30
0.0
 10
-287.292387
 20
878.451752
 30
0.0
 10
-279.558009
 20
870.458051
 30
0.0
 10
-268.328560
 20
857.914745
 30
0.0
 10
-266.865911
 20
839.737580
 30
0.0
 10
-268.439111
 20
821.560414
 30
0.0
 10
-271.381501
 20
806.614744
 30
0.0
 10
-279.700506
 20
794.879311
 30
0.0
 10
-287.292387
 20
784.079311
 30
0.0
 10
-292.692387
 20
773.279311
 30
0.0
 10
-298.092387
 20
759.779311
 30
0.0
 10
-295.392387
 20
748.979311
 30
0.0
 10
-284.594485
 20
746.279311
 30
0.0
 10
-271.094494
 20
754.379311
 30
0.0
 10
-260.296591
 20
762.479311
 30
0.0
 10
-249.498774
 20
767.879311
 30
0.0
 10
-235.998774
 20
773.279311
 30
0.0
 10
-222.500871
 20
781.379311
 30
0.0
 10
-206.302969
 20
789.479311
 30
0.0
 10
-190.105067
 20
781.379311
 30
0.0
 10
-179.307249
 20
773.279311
 30
0.0
 10
-168.507249
 20
767.879311
 30
0.0
 10
-160.409347
 20
762.479311
 30
0.0
 10
-152.309347
 20
754.485610
 30
0.0
 10
-138.811445
 20
743.090335
 30
0.0
 10
-125.313627
 20
732.184036
 30
0.0
 10
-122.088453
 20
724.679311
 30
0.0
 10
-120.317479
 20
743.855689
 30
0.0
 10
-120.297637
 20
763.287185
 30
0.0
 10
-120.739813
 20
782.718681
 30
0.0
  0
LWPOLYLINE
  5
116
100
AcDbEntity
  8
Layer_1
 62
7
100
AcDbPolyline
 90
68
 70
1
 10
1867.029704
 20
1108.037075
 30
0.0
 10
1877.829987
 20
1113.437075
 30
0.0
 10
1888.629987
 20
1121.537075
 30
0.0
 10
1902.640224
 20
1129.637083
 30
0.0
 10
1913.206365
 20
1131.890627
 30
0.0
 10
1919.456759
 20
1140.437083
 30
0.0
 10
1927.450460
 20
1151.237083
 30
0.0
 10
1941.163058
 20
1160.144957
 30
0.0
 10
1948.029987
 20
1175.133146
 30
0.0
 10
1955.428413
 20
1183.615824
 30
0.0
 10
1965.122901
 20
1199.900863
 30
0.0
 10
1967.992980
 20
1219.757556
 30
0.0
 10
1969.204791
 20
1239.805587
 30
0.0
 10
1969.566208
 20
1259.896139
 30
0.0
 10
1969.288413
 20
1278.392202
 30
0.0
 10
1968.161641
 20
1296.867005
 30
0.0
 10
1965.312822
 20
1315.129209
 30
0.0
 10
1955.448255
 20
1329.394564
 30
0.0
 10
1948.028570
 20
1342.894564
 30
0.0
 10
1942.628570
 20
1356.394564
 30
0.0
 10
1937.228570
 20
1363.878028
 30
0.0
 10
1926.428570
 20
1374.167735
 30
0.0
 10
1915.628570
 20
1385.584299
 30
0.0
 10
1907.528570
 20
1394.194535
 30
0.0
 10
1899.428570
 20
1399.594535
 30
0.0
 10
1883.228570
 20
1404.994535
 30
0.0
 10
1867.028287
 20
1413.094535
 30
0.0
 10
1852.975531
 20
1420.216611
 30
0.0
 10
1835.712539
 20
1421.045745
 30
0.0
 10
1818.449830
 20
1421.194564
 30
0.0
 10
1801.165294
 20
1421.045745
 30
0.0
 10
1783.923562
 20
1420.216611
 30
0.0
 10
1769.849830
 20
1413.094535
 30
0.0
 10
1760.962932
 20
1405.823669
 30
0.0
 10
1748.355846
 20
1404.994535
 30
0.0
 10
1732.751121
 20
1403.633877
 30
0.0
 10
1723.588129
 20
1391.962224
 30
0.0
 10
1717.614113
 20
1381.629940
 30
0.0
 10
1707.281830
 20
1375.655953
 30
0.0
 10
1694.249546
 20
1364.388265
 30
0.0
 10
1686.766082
 20
1356.394564
 30
0.0
 10
1678.687342
 20
1345.828422
 30
0.0
 10
1675.647184
 20
1332.094564
 30
0.0
 10
1672.585767
 20
1318.254406
 30
0.0
 10
1664.230649
 20
1307.815824
 30
0.0
 10
1657.470019
 20
1293.529209
 30
0.0
 10
1656.619625
 20
1276.393776
 30
0.0
 10
1656.469389
 20
1259.215824
 30
0.0
 10
1656.619625
 20
1242.122910
 30
0.0
 10
1657.491279
 20
1225.072517
 30
0.0
 10
1663.954271
 20
1210.615824
 30
0.0
 10
1672.033011
 20
1200.028422
 30
0.0
 10
1675.073169
 20
1186.315824
 30
0.0
 10
1677.879468
 20
1173.283540
 30
0.0
 10
1684.172381
 20
1162.015824
 30
0.0
 10
1697.289704
 20
1154.213461
 30
0.0
 10
1705.049546
 20
1141.053619
 30
0.0
 10
1713.489704
 20
1134.867005
 30
0.0
 10
1723.949546
 20
1131.975666
 30
0.0
 10
1734.940885
 20
1128.595351
 30
0.0
 10
1742.849546
 20
1120.920540
 30
0.0
 10
1756.349546
 20
1113.437075
 30
0.0
 10
1769.849830
 20
1108.037075
 30
0.0
 10
1785.390491
 20
1103.912382
 30
0.0
 10
1801.909389
 20
1102.892193
 30
0.0
 10
1818.449830
 20
1102.637075
 30
0.0
 10
1834.989704
 20
1102.892193
 30
0.0
 10
1851.487625
 20
1103.912382
 30
0.0
  0
LWPOLYLINE
  5
117
100
AcDbEntity
  8
Layer_1
 62
7
100
AcDbPolyline
 90
66
 70
1
 10
295.833430
 20
1558.278028
 30
0.0
 10
303.739937
 20
1565.952860
 30
0.0
 10
314.731276
 20
1569.311887
 30
0.0
 10
325.193244
 20
1572.203282
 30
0.0
 10
333.629178
 20
1578.411099
 30
0.0
 10
341.503795
 20
1591.634750
 30
0.0
 10
354.840151
 20
1599.373304
 30
0.0
 10
360.624983
 20
1607.983625
 30
0.0
 10
371.424983
 20
1619.400104
 30
0.0
 10
382.222800
 20
1635.089896
 30
0.0
 10
387.622800
 20
1647.973389
 30
0.0
 10
391.787631
 20
1666.256825
 30
0.0
 10
392.767710
 20
1685.454491
 30
0.0
 10
393.022828
 20
1704.652072
 30
0.0
 10
392.767710
 20
1723.870998
 30
0.0
 10
391.787631
 20
1743.068665
 30
0.0
 10
387.622800
 20
1761.352157
 30
0.0
 10
382.222800
 20
1772.152157
 30
0.0
 10
374.124983
 20
1782.952157
 30
0.0
 10
366.024983
 20
1796.962394
 30
0.0
 10
363.773537
 20
1807.507247
 30
0.0
 10
355.227080
 20
1813.778957
 30
0.0
 10
344.427080
 20
1821.751398
 30
0.0
 10
335.519178
 20
1835.463940
 30
0.0
 10
320.516107
 20
1842.330926
 30
0.0
 10
312.031276
 20
1849.814362
 30
0.0
 10
300.263981
 20
1857.021477
 30
0.0
 10
285.800910
 20
1859.508850
 30
0.0
 10
271.205991
 20
1861.103367
 30
0.0
 10
253.184023
 20
1862.378957
 30
0.0
 10
235.121689
 20
1862.867877
 30
0.0
 10
217.055018
 20
1862.527748
 30
0.0
 10
199.037302
 20
1861.209638
 30
0.0
 10
181.204574
 20
1858.360847
 30
0.0
 10
166.250373
 20
1849.899402
 30
0.0
 10
152.752499
 20
1842.330926
 30
0.0
 10
139.252499
 20
1836.930926
 30
0.0
 10
131.783916
 20
1831.552157
 30
0.0
 10
121.492026
 20
1820.752157
 30
0.0
 10
110.062706
 20
1809.952157
 30
0.0
 10
101.458848
 20
1796.452157
 30
0.0
 10
96.058848
 20
1782.952157
 30
0.0
 10
90.658848
 20
1772.152157
 30
0.0
 10
82.560974
 20
1761.352157
 30
0.0
 10
75.360294
 20
1744.493074
 30
0.0
 10
74.588533
 20
1724.593833
 30
0.0
 10
74.460974
 20
1704.652072
 30
0.0
 10
74.588533
 20
1684.731628
 30
0.0
 10
75.360294
 20
1664.811184
 30
0.0
 10
82.560974
 20
1647.973389
 30
0.0
 10
90.658848
 20
1634.579660
 30
0.0
 10
93.658640
 20
1623.481994
 30
0.0
 10
103.688977
 20
1617.911972
 30
0.0
 10
114.021289
 20
1611.937899
 30
0.0
 10
119.991053
 20
1601.605616
 30
0.0
 10
131.256672
 20
1588.573304
 30
0.0
 10
139.252499
 20
1580.345802
 30
0.0
 10
155.452499
 20
1568.865487
 30
0.0
 10
171.650373
 20
1558.192989
 30
0.0
 10
185.403365
 20
1552.155194
 30
0.0
 10
201.494996
 20
1551.177269
 30
0.0
 10
217.616306
 20
1550.858372
 30
0.0
 10
233.741897
 20
1550.773332
 30
0.0
 10
249.886621
 20
1550.837112
 30
0.0
 10
266.022899
 20
1551.156009
 30
0.0
 10
282.133551
 20
1552.155165
 30
0.0
  0
LWPOLYLINE
  5
118
100
AcDbEntity
  8
Layer_1
 62
7
100
AcDbPolyline
 90
97
 70
1
 10
1006.239827
 20
1588.573304
 30
0.0
 10
1013.935861
 20
1593.973304
 30
0.0
 10
1027.435861
 20
1599.373304
 30
0.0
 10
1040.935861
 20
1607.983625
 30
0.0
 10
1051.735861
 20
1619.400104
 30
0.0
 10
1062.535861
 20
1627.372545
 30
0.0
 10
1070.529591
 20
1640.362309
 30
0.0
 10
1083.753213
 20
1647.973389
 30
0.0
 10
1089.535861
 20
1656.073389
 30
0.0
 10
1100.335861
 20
1664.173389
 30
0.0
 10
1111.135861
 20
1656.073389
 30
0.0
 10
1124.635861
 20
1647.973389
 30
0.0
 10
1138.135946
 20
1642.573389
 30
0.0
 10
1148.935946
 20
1637.173389
 30
0.0
 10
1159.735946
 20
1629.689896
 30
0.0
 10
1170.302088
 20
1621.589896
 30
0.0
 10
1184.014630
 20
1618.549767
 30
0.0
 10
1197.876076
 20
1615.509553
 30
0.0
 10
1208.314630
 20
1607.133175
 30
0.0
 10
1213.714630
 20
1599.373304
 30
0.0
 10
1219.114630
 20
1610.173304
 30
0.0
 10
1213.714630
 20
1620.973304
 30
0.0
 10
1209.165080
 20
1631.029238
 30
0.0
 10
1208.314630
 20
1642.573389
 30
0.0
 10
1207.485524
 20
1655.074148
 30
0.0
 10
1200.554844
 20
1664.173389
 30
0.0
 10
1192.199698
 20
1674.611972
 30
0.0
 10
1189.138280
 20
1688.452072
 30
0.0
 10
1186.098151
 20
1702.164699
 30
0.0
 10
1178.019383
 20
1712.752072
 30
0.0
 10
1170.514658
 20
1723.552157
 30
0.0
 10
1178.529591
 20
1734.352157
 30
0.0
 10
1189.797364
 20
1747.384384
 30
0.0
 10
1195.750120
 20
1757.716696
 30
0.0
 10
1206.082431
 20
1763.690740
 30
0.0
 10
1219.114658
 20
1774.958428
 30
0.0
 10
1227.108359
 20
1782.952157
 30
0.0
 10
1238.376076
 20
1795.984469
 30
0.0
 10
1244.350120
 20
1806.316696
 30
0.0
 10
1254.682431
 20
1812.269509
 30
0.0
 10
1267.714715
 20
1823.537225
 30
0.0
 10
1256.361959
 20
1830.425357
 30
0.0
 10
1241.798910
 20
1831.382050
 30
0.0
 10
1227.214658
 20
1831.552129
 30
0.0
 10
1212.587915
 20
1831.382050
 30
0.0
 10
1198.003635
 20
1830.446674
 30
0.0
 10
1186.714658
 20
1823.452157
 30
0.0
 10
1176.424866
 20
1816.075020
 30
0.0
 10
1162.435946
 20
1815.352157
 30
0.0
 10
1148.446942
 20
1816.075020
 30
0.0
 10
1138.135946
 20
1823.452157
 30
0.0
 10
1132.353213
 20
1831.552157
 30
0.0
 10
1118.172898
 20
1840.247433
 30
0.0
 10
1111.135861
 20
1855.448220
 30
0.0
 10
1103.652454
 20
1863.930926
 30
0.0
 10
1095.552454
 20
1874.518299
 30
0.0
 10
1092.512239
 20
1888.230926
 30
0.0
 10
1089.472110
 20
1902.071055
 30
0.0
 10
1081.095732
 20
1912.530926
 30
0.0
 10
1073.335861
 20
1926.030926
 30
0.0
 10
1067.935861
 20
1939.530926
 30
0.0
 10
1062.535861
 20
1934.130926
 30
0.0
 10
1055.201244
 20
1928.730926
 30
0.0
 10
1047.845310
 20
1911.956882
 30
0.0
 10
1045.591795
 20
1892.759272
 30
0.0
 10
1044.082346
 20
1873.497855
 30
0.0
 10
1042.657937
 20
1854.385228
 30
0.0
 10
1040.957178
 20
1835.315150
 30
0.0
 10
1038.363449
 20
1816.351398
 30
0.0
 10
1026.500457
 20
1813.375020
 30
0.0
 10
1014.382346
 20
1811.482838
 30
0.0
 10
1001.839039
 20
1808.740318
 30
0.0
 10
992.357093
 20
1801.129323
 30
0.0
 10
978.772054
 20
1794.815150
 30
0.0
 10
962.614573
 20
1793.922265
 30
0.0
 10
946.457093
 20
1793.752186
 30
0.0
 10
928.471266
 20
1793.667146
 30
0.0
 10
910.527959
 20
1792.774176
 30
0.0
 10
900.557093
 20
1780.932501
 30
0.0
 10
907.232683
 20
1768.304154
 30
0.0
 10
922.157093
 20
1764.668693
 30
0.0
 10
934.785439
 20
1761.564728
 30
0.0
 10
943.757093
 20
1753.188378
 30
0.0
 10
954.557093
 20
1745.152186
 30
0.0
 10
965.357093
 20
1739.752186
 30
0.0
 10
978.857093
 20
1734.352186
 30
0.0
 10
992.357093
 20
1725.741893
 30
0.0
 10
1003.135861
 20
1714.325386
 30
0.0
 10
1013.957093
 20
1700.102551
 30
0.0
 10
1005.835861
 20
1685.752101
 30
0.0
 10
998.501244
 20
1675.845071
 30
0.0
 10
997.757093
 20
1662.260003
 30
0.0
 10
997.310693
 20
1642.892315
 30
0.0
 10
996.417751
 20
1623.545830
 30
0.0
 10
995.205969
 20
1604.220576
 30
0.0
 10
994.419298
 20
1590.231657
 30
0.0
 10
995.609849
 20
1579.133991
 30
0.0
  0
LWPOLYLINE
  5
119
100
AcDbEntity
  8
Layer_1
 62
7
100
AcDbPolyline
 90
62
 70
1
 10
1053.096520
 20
2299.349650
 30
0.0
 10
1064.725654
 20
2302.466372
 30
0.0
 10
1073.335861
 20
2310.088025
 30
0.0
 10
1084.135861
 20
2317.482198
 30
0.0
 10
1094.935861
 20
2322.880016
 30
0.0
 10
1103.035861
 20
2328.280016
 30
0.0
 10
1111.135861
 20
2336.275843
 30
0.0
 10
1124.423320
 20
2347.607367
 30
0.0
 10
1138.114658
 20
2361.853616
 30
0.0
 10
1141.324866
 20
2382.807345
 30
0.0
 10
1144.046183
 20
2400.221282
 30
0.0
 10
1152.316205
 20
2414.669443
 30
0.0
 10
1159.204422
 20
2432.189650
 30
0.0
 10
1159.735946
 20
2452.465247
 30
0.0
 10
1159.246942
 20
2473.068104
 30
0.0
 10
1151.635946
 20
2490.258869
 30
0.0
 10
1143.450907
 20
2502.408869
 30
0.0
 10
1141.005969
 20
2523.052148
 30
0.0
 10
1129.398151
 20
2538.854589
 30
0.0
 10
1121.935861
 20
2547.337323
 30
0.0
 10
1114.069805
 20
2563.386350
 30
0.0
 10
1098.018595
 20
2571.250394
 30
0.0
 10
1089.535861
 20
2578.718948
 30
0.0
 10
1073.739827
 20
2590.320416
 30
0.0
 10
1053.096520
 20
2592.773802
 30
0.0
 10
1040.935861
 20
2600.946113
 30
0.0
 10
1027.797307
 20
2608.029950
 30
0.0
 10
1011.427200
 20
2608.899420
 30
0.0
 10
995.057093
 20
2609.043987
 30
0.0
 10
978.665783
 20
2608.899420
 30
0.0
 10
962.295676
 20
2608.029950
 30
0.0
 10
949.157093
 20
2600.946113
 30
0.0
 10
936.996435
 20
2592.773802
 30
0.0
 10
921.434258
 20
2591.468504
 30
0.0
 10
906.913786
 20
2585.991940
 30
0.0
 10
898.218510
 20
2573.437975
 30
0.0
 10
886.950822
 20
2560.450394
 30
0.0
 10
878.957093
 20
2552.454567
 30
0.0
 10
866.094888
 20
2541.231496
 30
0.0
 10
852.892498
 20
2528.522277
 30
0.0
 10
848.831839
 20
2509.856135
 30
0.0
 10
847.364910
 20
2490.762699
 30
0.0
 10
846.812183
 20
2471.620309
 30
0.0
 10
846.684624
 20
2452.465247
 30
0.0
 10
846.854702
 20
2434.364589
 30
0.0
 10
847.449978
 20
2416.274589
 30
0.0
 10
848.746857
 20
2398.224926
 30
0.0
 10
851.531839
 20
2380.349650
 30
0.0
 10
860.779956
 20
2366.075820
 30
0.0
 10
868.157093
 20
2355.275820
 30
0.0
 10
873.557093
 20
2344.477918
 30
0.0
 10
878.957093
 20
2336.377918
 30
0.0
 10
887.057093
 20
2328.280016
 30
0.0
 10
895.157093
 20
2322.880016
 30
0.0
 10
905.957093
 20
2317.482198
 30
0.0
 10
916.757093
 20
2309.741433
 30
0.0
 10
931.596435
 20
2299.751433
 30
0.0
 10
951.793342
 20
2297.925269
 30
0.0
 10
972.054000
 20
2297.117367
 30
0.0
 10
992.335861
 20
2296.817575
 30
0.0
 10
1012.617751
 20
2296.938898
 30
0.0
 10
1032.899613
 20
2297.578791
 30
0.0
  0
LWPOLYLINE
  5
11a
100
AcDbEntity
  8
Layer_1
 62
7
100
AcDbPolyline
 90
65
 70
1
 10
360.624983
 20
2614.444016
 30
0.0
 10
376.824983
 20
2619.844016
 30
0.0
 10
393.022800
 20
2627.342362
 30
0.0
 10
400.927266
 20
2635.012913
 30
0.0
 10
411.918605
 20
2638.384696
 30
0.0
 10
422.380573
 20
2641.280287
 30
0.0
 10
430.816507
 20
2647.471153
 30
0.0
 10
438.495506
 20
2660.526850
 30
0.0
 10
451.398132
 20
2668.437638
 30
0.0
 10
459.379049
 20
2679.235540
 30
0.0
 10
470.806271
 20
2690.035540
 30
0.0
 10
479.410129
 20
2703.533357
 30
0.0
 10
484.810129
 20
2717.031260
 30
0.0
 10
488.923880
 20
2732.578611
 30
0.0
 10
489.940129
 20
2749.086850
 30
0.0
 10
490.210271
 20
2765.624882
 30
0.0
 10
489.940129
 20
2782.162998
 30
0.0
 10
488.923880
 20
2798.673335
 30
0.0
 10
484.810129
 20
2814.218589
 30
0.0
 10
479.410129
 20
2833.116406
 30
0.0
 10
478.449156
 20
2844.394753
 30
0.0
 10
471.414302
 20
2852.014309
 30
0.0
 10
460.031783
 20
2865.512211
 30
0.0
 10
449.129707
 20
2879.012211
 30
0.0
 10
441.616507
 20
2889.810113
 30
0.0
 10
428.118605
 20
2900.607931
 30
0.0
 10
414.618605
 20
2906.007931
 30
0.0
 10
403.820702
 20
2911.407931
 30
0.0
 10
393.022800
 20
2918.810665
 30
0.0
 10
377.456400
 20
2927.743994
 30
0.0
 10
358.692435
 20
2930.380243
 30
0.0
 10
339.758391
 20
2931.228482
 30
0.0
 10
320.803115
 20
2930.915962
 30
0.0
 10
301.890359
 20
2929.627616
 30
0.0
 10
281.268275
 20
2927.070113
 30
0.0
 10
263.437645
 20
2918.729820
 30
0.0
 10
249.939799
 20
2911.407931
 30
0.0
 10
236.441897
 20
2906.007931
 30
0.0
 10
228.341897
 20
2900.607931
 30
0.0
 10
220.244023
 20
2892.004072
 30
0.0
 10
209.444023
 20
2880.574753
 30
0.0
 10
198.646121
 20
2864.882891
 30
0.0
 10
193.246121
 20
2852.014309
 30
0.0
 10
187.848275
 20
2841.216406
 30
0.0
 10
179.748275
 20
2830.416406
 30
0.0
 10
172.549636
 20
2813.565855
 30
0.0
 10
171.777960
 20
2793.656069
 30
0.0
 10
171.650401
 20
2773.724882
 30
0.0
 10
171.777960
 20
2753.793780
 30
0.0
 10
172.549636
 20
2733.883994
 30
0.0
 10
179.748275
 20
2717.031260
 30
0.0
 10
187.848275
 20
2703.533357
 30
0.0
 10
193.246121
 20
2690.035540
 30
0.0
 10
198.646121
 20
2679.235540
 30
0.0
 10
206.641947
 20
2668.437638
 30
0.0
 10
218.032999
 20
2654.907874
 30
0.0
 10
227.011031
 20
2642.264674
 30
0.0
 10
242.432921
 20
2638.019055
 30
0.0
 10
254.463894
 20
2634.953357
 30
0.0
 10
263.437645
 20
2627.253043
 30
0.0
 10
279.635547
 20
2619.844016
 30
0.0
 10
295.833430
 20
2614.444016
 30
0.0
 10
311.442378
 20
2609.815748
 30
0.0
 10
328.229178
 20
2609.044016
 30
0.0
 10
345.018076
 20
2609.815748
 30
0.0
  0
LWPOLYLINE
  5
11b
100
AcDbEntity
  8
Layer_1
 62
7
100
AcDbPolyline
 90
201
 70
1
 10
1013.935861
 20
3429.742224
 30
0.0
 10
1006.409906
 20
3445.940126
 30
0.0
 10
998.947644
 20
3460.326661
 30
0.0
 10
996.609061
 20
3477.381307
 30
0.0
 10
995.057093
 20
3494.533805
 30
0.0
 10
993.505124
 20
3511.684120
 30
0.0
 10
991.145310
 20
3528.738737
 30
0.0
 10
983.683106
 20
3543.127427
 30
0.0
 10
976.731137
 20
3557.841364
 30
0.0
 10
976.157093
 20
3575.525329
 30
0.0
 10
975.370507
 20
3592.312044
 30
0.0
 10
970.757093
 20
3607.921049
 30
0.0
 10
966.164995
 20
3619.377978
 30
0.0
 10
965.357093
 20
3632.216854
 30
0.0
 10
964.634230
 20
3646.205773
 30
0.0
 10
957.257093
 20
3656.514671
 30
0.0
 10
949.667329
 20
3672.332022
 30
0.0
 10
949.157093
 20
3691.610362
 30
0.0
 10
949.667329
 20
3710.888787
 30
0.0
 10
957.257093
 20
3726.706110
 30
0.0
 10
965.357093
 20
3732.104126
 30
0.0
 10
978.219298
 20
3737.504126
 30
0.0
 10
993.909061
 20
3748.301858
 30
0.0
 10
1000.180715
 20
3756.850583
 30
0.0
 10
1010.746857
 20
3759.101858
 30
0.0
 10
1024.735861
 20
3767.199874
 30
0.0
 10
1032.835861
 20
3775.299874
 30
0.0
 10
1040.935861
 20
3780.697606
 30
0.0
 10
1051.735861
 20
3786.097606
 30
0.0
 10
1062.535861
 20
3794.331685
 30
0.0
 10
1078.735861
 20
3805.805480
 30
0.0
 10
1094.935861
 20
3816.469701
 30
0.0
 10
1103.035861
 20
3823.893638
 30
0.0
 10
1111.135861
 20
3829.293638
 30
0.0
 10
1123.998151
 20
3834.691370
 30
0.0
 10
1139.687830
 20
3845.491370
 30
0.0
 10
1151.125654
 20
3856.289102
 30
0.0
 10
1159.735946
 20
3864.389102
 30
0.0
 10
1172.853213
 20
3872.487118
 30
0.0
 10
1183.228044
 20
3875.151118
 30
0.0
 10
1189.542217
 20
3883.693323
 30
0.0
 10
1191.200457
 20
3896.801858
 30
0.0
 10
1172.279254
 20
3898.451622
 30
0.0
 10
1153.294186
 20
3899.472378
 30
0.0
 10
1134.309146
 20
3900.360756
 30
0.0
 10
1115.324107
 20
3901.164378
 30
0.0
 10
1096.317808
 20
3901.906488
 30
0.0
 10
1077.332769
 20
3902.593323
 30
0.0
 10
1058.347729
 20
3903.279874
 30
0.0
 10
1039.362661
 20
3904.042961
 30
0.0
 10
1020.377622
 20
3904.933890
 30
0.0
 10
1001.413786
 20
3906.071433
 30
0.0
 10
982.492583
 20
3907.799717
 30
0.0
 10
965.357093
 20
3913.782236
 30
0.0
 10
949.157093
 20
3920.530110
 30
0.0
 10
930.257093
 20
3921.080882
 30
0.0
 10
912.122476
 20
3921.824693
 30
0.0
 10
895.157093
 20
3926.480882
 30
0.0
 10
887.057093
 20
3931.880882
 30
0.0
 10
879.679956
 20
3942.187654
 30
0.0
 10
878.957093
 20
3956.176630
 30
0.0
 10
878.149191
 20
3969.015307
 30
0.0
 10
873.557093
 20
3980.474362
 30
0.0
 10
868.157093
 20
3999.372378
 30
0.0
 10
867.200400
 20
4010.695370
 30
0.0
 10
860.057093
 20
4018.270110
 30
0.0
 10
851.957093
 20
4033.713260
 30
0.0
 10
851.361817
 20
4050.959244
 30
0.0
 10
849.533471
 20
4068.120189
 30
0.0
 10
846.110608
 20
4085.024031
 30
0.0
 10
837.734230
 20
4099.259622
 30
0.0
 10
831.207430
 20
4108.545921
 30
0.0
 10
830.357093
 20
4120.857354
 30
0.0
 10
829.527959
 20
4132.392945
 30
0.0
 10
824.978324
 20
4142.453102
 30
0.0
 10
820.386227
 20
4153.912157
 30
0.0
 10
819.578324
 20
4166.751118
 30
0.0
 10
818.855461
 20
4180.738961
 30
0.0
 10
811.478324
 20
4191.047717
 30
0.0
 10
802.740529
 20
4203.196157
 30
0.0
 10
799.657880
 20
4205.895874
 30
0.0
 10
789.474359
 20
4196.447150
 30
0.0
 10
781.778324
 20
4180.248850
 30
0.0
 10
776.378324
 20
4164.051118
 30
0.0
 10
770.978324
 20
4153.253102
 30
0.0
 10
763.133386
 20
4142.453102
 30
0.0
 10
754.374359
 20
4127.934898
 30
0.0
 10
751.653071
 20
4110.057354
 30
0.0
 10
748.910608
 20
4092.379937
 30
0.0
 10
740.576693
 20
4077.661606
 30
0.0
 10
733.178324
 20
4064.163874
 30
0.0
 10
727.778324
 20
4050.665858
 30
0.0
 10
722.378324
 20
4039.865858
 30
0.0
 10
714.894831
 20
4029.068126
 30
0.0
 10
706.560973
 20
4015.757197
 30
0.0
 10
703.712183
 20
3999.372378
 30
0.0
 10
700.863307
 20
3982.876724
 30
0.0
 10
692.295591
 20
3969.674362
 30
0.0
 10
684.578239
 20
3958.876630
 30
0.0
 10
679.178239
 20
3948.078614
 30
0.0
 10
673.778239
 20
3939.978614
 30
0.0
 10
657.663307
 20
3933.120189
 30
0.0
 10
638.763307
 20
3932.206016
 30
0.0
 10
619.820759
 20
3931.936724
 30
0.0
 10
600.899556
 20
3931.880031
 30
0.0
 10
581.957008
 20
3931.936724
 30
0.0
 10
563.014488
 20
3932.206016
 30
0.0
 10
544.093200
 20
3933.122457
 30
0.0
 10
527.999471
 20
3939.978614
 30
0.0
 10
509.818054
 20
3946.886079
 30
0.0
 10
488.898369
 20
3947.766236
 30
0.0
 10
467.955298
 20
3948.024189
 30
0.0
 10
447.014324
 20
3948.078047
 30
0.0
 10
426.075506
 20
3948.024189
 30
0.0
 10
405.134532
 20
3947.766236
 30
0.0
 10
384.212778
 20
3946.886079
 30
0.0
 10
366.024983
 20
3939.978614
 30
0.0
 10
371.809729
 20
3931.880882
 30
0.0
 10
385.218369
 20
3924.076252
 30
0.0
 10
393.022800
 20
3910.667811
 30
0.0
 10
401.626715
 20
3904.882866
 30
0.0
 10
413.053880
 20
3894.085134
 30
0.0
 10
423.347839
 20
3883.285134
 30
0.0
 10
430.816507
 20
3877.887118
 30
0.0
 10
444.316507
 20
3872.487118
 30
0.0
 10
457.814324
 20
3863.883402
 30
0.0
 10
468.612227
 20
3852.453827
 30
0.0
 10
479.410129
 20
3844.475150
 30
0.0
 10
487.201861
 20
3831.682961
 30
0.0
 10
499.993880
 20
3823.893638
 30
0.0
 10
507.972756
 20
3813.095622
 30
0.0
 10
514.240129
 20
3804.546898
 30
0.0
 10
524.799893
 20
3802.295622
 30
0.0
 10
538.799471
 20
3794.197606
 30
0.0
 10
546.793200
 20
3786.097606
 30
0.0
 10
558.060888
 20
3773.067591
 30
0.0
 10
564.034932
 20
3762.737291
 30
0.0
 10
574.367244
 20
3756.767528
 30
0.0
 10
587.399471
 20
3745.499811
 30
0.0
 10
595.499556
 20
3737.504126
 30
0.0
 10
603.599556
 20
3724.006110
 30
0.0
 10
595.499556
 20
3710.508378
 30
0.0
 10
587.399471
 20
3694.310362
 30
0.0
 10
581.999471
 20
3678.112630
 30
0.0
 10
576.599471
 20
3667.312573
 30
0.0
 10
569.201102
 20
3656.514671
 30
0.0
 10
560.718369
 20
3639.051893
 30
0.0
 10
558.082205
 20
3618.718951
 30
0.0
 10
555.424724
 20
3598.213805
 30
0.0
 10
546.580573
 20
3580.923146
 30
0.0
 10
539.756164
 20
3573.195222
 30
0.0
 10
538.799471
 20
3562.025329
 30
0.0
 10
533.399471
 20
3543.127427
 30
0.0
 10
527.999471
 20
3529.629524
 30
0.0
 10
520.639342
 20
3516.131622
 30
0.0
 10
512.713644
 20
3505.114800
 30
0.0
 10
509.841439
 20
3491.081178
 30
0.0
 10
507.662306
 20
3473.867112
 30
0.0
 10
506.716271
 20
3456.557320
 30
0.0
 10
517.205849
 20
3445.940126
 30
0.0
 10
527.999471
 20
3454.174006
 30
0.0
 10
544.199471
 20
3465.648000
 30
0.0
 10
560.399471
 20
3476.311937
 30
0.0
 10
568.499471
 20
3483.735902
 30
0.0
 10
576.599471
 20
3489.135902
 30
0.0
 10
590.099471
 20
3494.533805
 30
0.0
 10
603.599556
 20
3501.957742
 30
0.0
 10
619.799556
 20
3512.621622
 30
0.0
 10
635.999556
 20
3524.095587
 30
0.0
 10
646.799556
 20
3532.329524
 30
0.0
 10
657.578239
 20
3537.729524
 30
0.0
 10
671.078239
 20
3543.127427
 30
0.0
 10
684.578239
 20
3550.625773
 30
0.0
 10
692.486929
 20
3558.298422
 30
0.0
 10
703.478324
 20
3561.670261
 30
0.0
 10
714.639742
 20
3565.065458
 30
0.0
 10
722.378324
 20
3573.069817
 30
0.0
 10
735.878324
 20
3580.923146
 30
0.0
 10
749.378324
 20
3586.323146
 30
0.0
 10
765.578324
 20
3591.723146
 30
0.0
 10
781.778324
 20
3586.323146
 30
0.0
 10
789.878324
 20
3580.923146
 30
0.0
 10
797.978324
 20
3573.499266
 30
0.0
 10
814.178324
 20
3562.835329
 30
0.0
 10
830.357093
 20
3551.361364
 30
0.0
 10
838.372054
 20
3543.127427
 30
0.0
 10
849.597222
 20
3530.252466
 30
0.0
 10
858.505124
 20
3518.221493
 30
0.0
 10
873.408302
 20
3514.084356
 30
0.0
 10
888.587773
 20
3509.819631
 30
0.0
 10
897.368088
 20
3497.265666
 30
0.0
 10
902.895676
 20
3486.897213
 30
0.0
 10
914.163364
 20
3483.735902
 30
0.0
 10
927.557093
 20
3476.267320
 30
0.0
 10
938.357093
 20
3465.973276
 30
0.0
 10
949.157093
 20
3454.543984
 30
0.0
 10
962.657093
 20
3445.940126
 30
0.0
 10
976.157093
 20
3440.540126
 30
0.0
 10
983.619298
 20
3435.142224
 30
0.0
 10
993.909061
 20
3424.342224
 30
0.0
 10
1006.473657
 20
3413.659153
 30
0.0
  0
ENDSEC
  0
SECTION
  2
OBJECTS
  0
DICTIONARY
  5
C
330
0
100
AcDbDictionary
  3
ACAD_GROUP
350
D
  3
ACAD_MLINESTYLE
350
17
  0
DICTIONARY
  5
D
330
C
100
AcDbDictionary
  0
DICTIONARY
  5
1A
330
C
100
AcDbDictionary
  0
DICTIONARY
  5
17
330
C
100
AcDbDictionary
  3
STANDARD
350
18
  0
DICTIONARY
  5
19
330
C
100
AcDbDictionary
  0
ENDSEC
  0
EOF
